%TF.GenerationSoftware,KiCad,Pcbnew,(5.99.0-8645-g8b3dea7107)*%
%TF.CreationDate,2021-02-16T20:06:57-08:00*%
%TF.ProjectId,femu,66656d75-2e6b-4696-9361-645f70636258,rev?*%
%TF.SameCoordinates,PX7930768PY60e4b00*%
%TF.FileFunction,Copper,L4,Inr*%
%TF.FilePolarity,Positive*%
%FSLAX46Y46*%
G04 Gerber Fmt 4.6, Leading zero omitted, Abs format (unit mm)*
G04 Created by KiCad (PCBNEW (5.99.0-8645-g8b3dea7107)) date 2021-02-16 20:06:57*
%MOMM*%
%LPD*%
G01*
G04 APERTURE LIST*
%TA.AperFunction,ViaPad*%
%ADD10C,0.254000*%
%TD*%
%TA.AperFunction,ViaPad*%
%ADD11C,0.800000*%
%TD*%
%TA.AperFunction,ViaPad*%
%ADD12C,0.500000*%
%TD*%
%TA.AperFunction,ViaPad*%
%ADD13C,0.381000*%
%TD*%
%TA.AperFunction,Conductor*%
%ADD14C,0.254000*%
%TD*%
%TA.AperFunction,Conductor*%
%ADD15C,0.200000*%
%TD*%
%TA.AperFunction,Conductor*%
%ADD16C,0.127000*%
%TD*%
G04 APERTURE END LIST*
D10*
%TO.N,Net-(U1-Pad45)*%
X2133600Y7543800D03*
X5638800Y3962400D03*
D11*
%TO.N,GND*%
X2971800Y1955800D03*
X3886200Y1955800D03*
X4800600Y1955800D03*
D12*
X11963400Y330200D03*
D11*
X2057400Y1955800D03*
D12*
%TO.N,+5V*%
X12319000Y1549400D03*
D10*
%TO.N,Net-(C6-Pad1)*%
X8864600Y4013200D03*
X10947400Y431800D03*
D12*
%TO.N,+3V3*%
X2082800Y8407400D03*
X6527800Y6223000D03*
X3632200Y7239000D03*
X6908800Y1320800D03*
D10*
X1041400Y3604260D03*
D12*
X6858000Y3860800D03*
D13*
%TO.N,/USB-*%
X10363200Y457200D03*
%TO.N,/USB+*%
X9829800Y457200D03*
D12*
%TO.N,/D+*%
X7594600Y4191000D03*
X10414000Y1549400D03*
%TO.N,/D-*%
X9829800Y1549400D03*
X7061200Y5105400D03*
D10*
%TO.N,Net-(C20-Pad2)*%
X304800Y5689600D03*
X4013200Y6146800D03*
%TO.N,Net-(C20-Pad1)*%
X4368800Y5588000D03*
X304800Y5207000D03*
%TO.N,/IO5_B*%
X4343400Y1244600D03*
X8991600Y2260600D03*
%TO.N,/IO4_G*%
X762000Y1854200D03*
X8686800Y2667000D03*
%TO.N,/IO27_R*%
X762000Y4648200D03*
X11125200Y2997200D03*
%TD*%
D14*
%TO.N,Net-(U1-Pad45)*%
X4800600Y6019800D02*
X4800600Y4318000D01*
X4800600Y4318000D02*
X5156200Y3962400D01*
X2133600Y7061200D02*
X2565400Y6629400D01*
X2565400Y6629400D02*
X4191000Y6629400D01*
X5156200Y3962400D02*
X5638800Y3962400D01*
X4191000Y6629400D02*
X4800600Y6019800D01*
X2133600Y7543800D02*
X2133600Y7061200D01*
%TO.N,Net-(C6-Pad1)*%
X9220200Y4368800D02*
X11125200Y4368800D01*
X11125200Y4368800D02*
X11480800Y4013200D01*
X8864600Y4013200D02*
X9220200Y4368800D01*
X11480800Y965200D02*
X10947400Y431800D01*
X11480800Y4013200D02*
X11480800Y965200D01*
D15*
%TO.N,/D+*%
X10287000Y3911600D02*
X10185400Y3810000D01*
X9169400Y3606800D02*
X8585200Y3606800D01*
X9474200Y3911600D02*
X9169400Y3606800D01*
X10236200Y2768600D02*
X10617200Y3149600D01*
X9626600Y3911600D02*
X9474200Y3911600D01*
X10617200Y3149600D02*
X10617200Y3810000D01*
X8585200Y3606800D02*
X8356600Y3835400D01*
X10617200Y3810000D02*
X10515600Y3911600D01*
X10185400Y3352800D02*
X10083800Y3251200D01*
X10236200Y2616200D02*
X10236200Y2768600D01*
X8356600Y4216400D02*
X8280400Y4292600D01*
X10083800Y3251200D02*
X9880600Y3251200D01*
X10515600Y3911600D02*
X10287000Y3911600D01*
X7950200Y4292600D02*
X7848600Y4191000D01*
X7848600Y4191000D02*
X7594600Y4191000D01*
X9779000Y3759200D02*
X9626600Y3911600D01*
X8280400Y4292600D02*
X7950200Y4292600D01*
X10185400Y3810000D02*
X10185400Y3352800D01*
X10414000Y2438400D02*
X10236200Y2616200D01*
X9880600Y3251200D02*
X9779000Y3352800D01*
X10414000Y2438400D02*
X10414000Y2159000D01*
X9779000Y3352800D02*
X9779000Y3759200D01*
X8356600Y3835400D02*
X8356600Y4216400D01*
X10414000Y2438400D02*
X10414000Y1549400D01*
%TO.N,/D-*%
X7061200Y5105400D02*
X7061200Y4927600D01*
X8915400Y3124200D02*
X9829800Y2209800D01*
X9829800Y2209800D02*
X9829800Y1549400D01*
X6756400Y3124200D02*
X8915400Y3124200D01*
X6248400Y3632200D02*
X6756400Y3124200D01*
X7061200Y4927600D02*
X6248400Y4114800D01*
X6248400Y4114800D02*
X6248400Y3632200D01*
D16*
%TO.N,Net-(C20-Pad2)*%
X3124200Y6146800D02*
X4013200Y6146800D01*
X304800Y5689600D02*
X2667000Y5689600D01*
X2667000Y5689600D02*
X3124200Y6146800D01*
%TO.N,Net-(C20-Pad1)*%
X304800Y5207000D02*
X4241800Y5207000D01*
X4368800Y5334000D02*
X4368800Y5588000D01*
X4241800Y5207000D02*
X4368800Y5334000D01*
D14*
%TO.N,/IO5_B*%
X4927600Y660400D02*
X4343400Y1244600D01*
X7950200Y660400D02*
X4927600Y660400D01*
X8991600Y1701800D02*
X7950200Y660400D01*
X8991600Y2260600D02*
X8991600Y1701800D01*
%TO.N,/IO4_G*%
X8686800Y2667000D02*
X1676400Y2667000D01*
X1676400Y2667000D02*
X863600Y1854200D01*
X863600Y1854200D02*
X762000Y1854200D01*
%TD*%
M02*
