%TF.GenerationSoftware,KiCad,Pcbnew,(5.99.0-8645-g8b3dea7107)*%
%TF.CreationDate,2021-02-16T20:06:57-08:00*%
%TF.ProjectId,femu,66656d75-2e6b-4696-9361-645f70636258,rev?*%
%TF.SameCoordinates,PX7930768PY60e4b00*%
%TF.FileFunction,Copper,L6,Bot*%
%TF.FilePolarity,Positive*%
%FSLAX46Y46*%
G04 Gerber Fmt 4.6, Leading zero omitted, Abs format (unit mm)*
G04 Created by KiCad (PCBNEW (5.99.0-8645-g8b3dea7107)) date 2021-02-16 20:06:57*
%MOMM*%
%LPD*%
G01*
G04 APERTURE LIST*
G04 Aperture macros list*
%AMRoundRect*
0 Rectangle with rounded corners*
0 $1 Rounding radius*
0 $2 $3 $4 $5 $6 $7 $8 $9 X,Y pos of 4 corners*
0 Add a 4 corners polygon primitive as box body*
4,1,4,$2,$3,$4,$5,$6,$7,$8,$9,$2,$3,0*
0 Add four circle primitives for the rounded corners*
1,1,$1+$1,$2,$3*
1,1,$1+$1,$4,$5*
1,1,$1+$1,$6,$7*
1,1,$1+$1,$8,$9*
0 Add four rect primitives between the rounded corners*
20,1,$1+$1,$2,$3,$4,$5,0*
20,1,$1+$1,$4,$5,$6,$7,0*
20,1,$1+$1,$6,$7,$8,$9,0*
20,1,$1+$1,$8,$9,$2,$3,0*%
G04 Aperture macros list end*
%TA.AperFunction,SMDPad,CuDef*%
%ADD10C,0.250000*%
%TD*%
%TA.AperFunction,SMDPad,CuDef*%
%ADD11R,0.457200X0.457200*%
%TD*%
%TA.AperFunction,SMDPad,CuDef*%
%ADD12RoundRect,0.100000X0.100000X-0.130000X0.100000X0.130000X-0.100000X0.130000X-0.100000X-0.130000X0*%
%TD*%
%TA.AperFunction,SMDPad,CuDef*%
%ADD13RoundRect,0.100000X-0.100000X0.130000X-0.100000X-0.130000X0.100000X-0.130000X0.100000X0.130000X0*%
%TD*%
%TA.AperFunction,SMDPad,CuDef*%
%ADD14RoundRect,0.100000X-0.130000X-0.100000X0.130000X-0.100000X0.130000X0.100000X-0.130000X0.100000X0*%
%TD*%
%TA.AperFunction,SMDPad,CuDef*%
%ADD15RoundRect,0.147500X-0.147500X-0.172500X0.147500X-0.172500X0.147500X0.172500X-0.147500X0.172500X0*%
%TD*%
%TA.AperFunction,SMDPad,CuDef*%
%ADD16RoundRect,0.075000X-0.125000X-0.075000X0.125000X-0.075000X0.125000X0.075000X-0.125000X0.075000X0*%
%TD*%
%TA.AperFunction,ViaPad*%
%ADD17C,0.800000*%
%TD*%
%TA.AperFunction,ViaPad*%
%ADD18C,0.500000*%
%TD*%
%TA.AperFunction,ViaPad*%
%ADD19C,0.506000*%
%TD*%
%TA.AperFunction,ViaPad*%
%ADD20C,0.254000*%
%TD*%
%TA.AperFunction,ViaPad*%
%ADD21C,0.381000*%
%TD*%
%TA.AperFunction,Conductor*%
%ADD22C,0.127000*%
%TD*%
%TA.AperFunction,Conductor*%
%ADD23C,0.254000*%
%TD*%
%TA.AperFunction,Conductor*%
%ADD24C,0.508000*%
%TD*%
%TA.AperFunction,Conductor*%
%ADD25C,0.381000*%
%TD*%
%TA.AperFunction,Conductor*%
%ADD26C,0.213000*%
%TD*%
%TA.AperFunction,Conductor*%
%ADD27C,0.305000*%
%TD*%
G04 APERTURE END LIST*
%TA.AperFunction,SMDPad,CuDef*%
%TO.P,USB1,1*%
%TO.N,GND*%
G36*
X7737800Y324000D02*
G01*
X237800Y324000D01*
X237800Y2574000D01*
X7737800Y2574000D01*
X7737800Y324000D01*
G37*
%TD.AperFunction*%
%TA.AperFunction,SMDPad,CuDef*%
%TO.P,USB1,2*%
%TO.N,/D+*%
G36*
X7737800Y2824000D02*
G01*
X237800Y2824000D01*
X237800Y4574000D01*
X7737800Y4574000D01*
X7737800Y2824000D01*
G37*
%TD.AperFunction*%
%TA.AperFunction,SMDPad,CuDef*%
%TO.P,USB1,3*%
%TO.N,/D-*%
G36*
X7737800Y4840000D02*
G01*
X237800Y4840000D01*
X237800Y6590000D01*
X7737800Y6590000D01*
X7737800Y4840000D01*
G37*
%TD.AperFunction*%
%TA.AperFunction,SMDPad,CuDef*%
%TO.P,USB1,4*%
%TO.N,+5V*%
G36*
X7737800Y6824000D02*
G01*
X237800Y6824000D01*
X237800Y9074000D01*
X7737800Y9074000D01*
X7737800Y6824000D01*
G37*
%TD.AperFunction*%
%TD*%
D10*
%TO.P,U3,A1*%
%TO.N,+5V*%
X8258197Y3171799D03*
%TO.P,U3,A2*%
%TO.N,+3V3*%
X8258197Y2771799D03*
%TO.P,U3,B1*%
%TO.N,+5V*%
X8658197Y3171799D03*
%TO.P,U3,B2*%
%TO.N,GND*%
X8658197Y2771799D03*
%TD*%
D11*
%TO.P,LED1,1*%
%TO.N,+3V3*%
X11436800Y2559500D03*
%TO.P,LED1,2*%
%TO.N,Net-(LED1-Pad2)*%
X12286800Y2559500D03*
%TO.P,LED1,3*%
%TO.N,Net-(LED1-Pad3)*%
X12286800Y3409500D03*
%TO.P,LED1,4*%
%TO.N,Net-(LED1-Pad4)*%
X11436800Y3409500D03*
%TD*%
D12*
%TO.P,C6,1*%
%TO.N,Net-(C6-Pad1)*%
X11506200Y696000D03*
%TO.P,C6,2*%
%TO.N,GND*%
X11506200Y1336000D03*
%TD*%
%TO.P,R1,1*%
%TO.N,Net-(C6-Pad1)*%
X10947400Y696000D03*
%TO.P,R1,2*%
%TO.N,+3V3*%
X10947400Y1336000D03*
%TD*%
D13*
%TO.P,R2,1*%
%TO.N,/D+*%
X10388600Y1336000D03*
%TO.P,R2,2*%
%TO.N,/USB-*%
X10388600Y696000D03*
%TD*%
D14*
%TO.P,C7,1*%
%TO.N,GND*%
X9738400Y2133600D03*
%TO.P,C7,2*%
%TO.N,/D+*%
X10378400Y2133600D03*
%TD*%
D13*
%TO.P,C9,1*%
%TO.N,+5V*%
X12319000Y1361400D03*
%TO.P,C9,2*%
%TO.N,GND*%
X12319000Y721400D03*
%TD*%
D15*
%TO.P,C10,1*%
%TO.N,+5V*%
X8176398Y3860799D03*
%TO.P,C10,2*%
%TO.N,GND*%
X9146398Y3860799D03*
%TD*%
%TO.P,C11,1*%
%TO.N,+3V3*%
X8176400Y2082798D03*
%TO.P,C11,2*%
%TO.N,GND*%
X9146400Y2082798D03*
%TD*%
D12*
%TO.P,C8,1*%
%TO.N,GND*%
X9194800Y696000D03*
%TO.P,C8,2*%
%TO.N,/D-*%
X9194800Y1336000D03*
%TD*%
%TO.P,R3,1*%
%TO.N,/USB+*%
X9779000Y696000D03*
%TO.P,R3,2*%
%TO.N,/D-*%
X9779000Y1336000D03*
%TD*%
D16*
%TO.P,R4,1*%
%TO.N,/IO5_B*%
X10291000Y3403600D03*
%TO.P,R4,2*%
%TO.N,Net-(LED1-Pad4)*%
X10791000Y3403600D03*
%TD*%
%TO.P,R5,1*%
%TO.N,/IO4_G*%
X10291000Y3937000D03*
%TO.P,R5,2*%
%TO.N,Net-(LED1-Pad3)*%
X10791000Y3937000D03*
%TD*%
%TO.P,R6,1*%
%TO.N,/IO27_R*%
X10291000Y2794000D03*
%TO.P,R6,2*%
%TO.N,Net-(LED1-Pad2)*%
X10791000Y2794000D03*
%TD*%
D17*
%TO.N,GND*%
X2971800Y1955800D03*
X3886200Y1955800D03*
X4800600Y1955800D03*
D18*
X11963400Y330200D03*
D17*
X2057400Y1955800D03*
D18*
%TO.N,+5V*%
X12319000Y1549400D03*
D19*
X508000Y8407400D03*
X508000Y7874000D03*
X533400Y7213600D03*
X406400Y8890000D03*
D18*
X8255000Y3606800D03*
D20*
%TO.N,Net-(C6-Pad1)*%
X10947400Y431800D03*
D18*
%TO.N,+3V3*%
X8229600Y1981200D03*
X11455400Y2540000D03*
D21*
%TO.N,/USB-*%
X10363200Y457200D03*
%TO.N,/USB+*%
X9829800Y457200D03*
D18*
%TO.N,/D+*%
X7594600Y4191000D03*
X10414000Y1549400D03*
%TO.N,/D-*%
X9829800Y1549400D03*
X7061200Y5105400D03*
D20*
%TO.N,/IO5_B*%
X9829800Y2768600D03*
%TO.N,/IO4_G*%
X9525000Y3149600D03*
%TO.N,/IO27_R*%
X10287000Y2794000D03*
%TD*%
D22*
%TO.N,Net-(LED1-Pad3)*%
X11861800Y3937000D02*
X10791000Y3937000D01*
X12286800Y3409500D02*
X12286800Y3512000D01*
X12286800Y3512000D02*
X11861800Y3937000D01*
%TO.N,Net-(LED1-Pad4)*%
X11436800Y3409500D02*
X10796900Y3409500D01*
X10796900Y3409500D02*
X10791000Y3403600D01*
%TO.N,Net-(LED1-Pad2)*%
X10987399Y2990399D02*
X10791000Y2794000D01*
X12173401Y2990399D02*
X10987399Y2990399D01*
X12286800Y2559500D02*
X12286800Y2877000D01*
X12286800Y2877000D02*
X12173401Y2990399D01*
D23*
%TO.N,GND*%
X9197202Y2133600D02*
X9146400Y2082798D01*
D22*
X12014200Y914400D02*
X12126000Y914400D01*
D23*
X9194800Y696000D02*
X8570000Y696000D01*
D22*
X12126000Y914400D02*
X12319000Y721400D01*
D23*
X9146398Y3860799D02*
X9146398Y2847198D01*
D22*
X11607800Y1168400D02*
X11760200Y1168400D01*
D23*
X9146398Y2847198D02*
X9146398Y2082800D01*
D22*
X11506200Y1336000D02*
X11643400Y1336000D01*
D23*
X3987800Y1449000D02*
X6348800Y1449000D01*
D22*
X11760200Y1168400D02*
X12014200Y914400D01*
D24*
X4775200Y1449000D02*
X4775200Y1930400D01*
D23*
X9738400Y2133600D02*
X9197202Y2133600D01*
X9146400Y2059800D02*
X8570000Y1483400D01*
D24*
X4775200Y1930400D02*
X4749800Y1955800D01*
D23*
X12319000Y721400D02*
X12319000Y685800D01*
X8570000Y1483400D02*
X8570000Y696000D01*
X12319000Y685800D02*
X11963400Y330200D01*
D25*
X8570000Y696000D02*
X4740800Y696000D01*
D22*
X11506200Y1270000D02*
X11607800Y1168400D01*
D26*
X9070999Y2771799D02*
X9146398Y2847198D01*
D25*
X4740800Y696000D02*
X3987800Y1449000D01*
D23*
X9146400Y2082798D02*
X9146400Y2059800D01*
D26*
X8658197Y2771799D02*
X9070999Y2771799D01*
D22*
X11506200Y1336000D02*
X11506200Y1270000D01*
D23*
X9146398Y2082800D02*
X9146400Y2082798D01*
D26*
%TO.N,+5V*%
X8258197Y3171799D02*
X8258197Y3381397D01*
X8658197Y3171799D02*
X8258197Y3171799D01*
D27*
X8176398Y3860799D02*
X8176398Y3685402D01*
X3606800Y7568000D02*
X3987800Y7949000D01*
X8176398Y3685402D02*
X8255000Y3606800D01*
X1322000Y7949000D02*
X406400Y8864600D01*
X3987800Y7949000D02*
X1322000Y7949000D01*
X12319000Y1549400D02*
X12319000Y1361400D01*
X8258197Y3779000D02*
X8176398Y3860799D01*
X8258197Y3381397D02*
X8258197Y3779000D01*
X406400Y8864600D02*
X406400Y8890000D01*
X3606800Y7239000D02*
X3606800Y7568000D01*
D23*
%TO.N,Net-(C6-Pad1)*%
X11506200Y696000D02*
X10947400Y696000D01*
X10947400Y696000D02*
X10947400Y431800D01*
%TO.N,+3V3*%
X11436800Y2496000D02*
X11436800Y2559500D01*
D27*
X8258197Y2536803D02*
X8258197Y2164595D01*
D26*
X8258197Y2771799D02*
X8258197Y2536803D01*
D23*
X11436800Y2559500D02*
X11436800Y2558600D01*
X10947400Y2006600D02*
X11436800Y2496000D01*
X11436800Y2558600D02*
X11455400Y2540000D01*
D27*
X8258197Y2164595D02*
X8176400Y2082798D01*
D23*
X8229600Y2029598D02*
X8176400Y2082798D01*
X8229600Y1981200D02*
X8229600Y2029598D01*
X10947400Y1336000D02*
X10947400Y2006600D01*
%TO.N,/USB-*%
X10388600Y696000D02*
X10388600Y482600D01*
X10388600Y482600D02*
X10363200Y457200D01*
%TO.N,/USB+*%
X9829800Y645200D02*
X9779000Y696000D01*
X9829800Y457200D02*
X9829800Y645200D01*
%TO.N,/D+*%
X7102600Y3699000D02*
X7594600Y4191000D01*
X10414000Y1549400D02*
X10414000Y1361400D01*
X10378400Y1585000D02*
X10414000Y1549400D01*
X10378400Y2133600D02*
X10378400Y1585000D01*
X3987800Y3699000D02*
X7102600Y3699000D01*
X10414000Y1361400D02*
X10388600Y1336000D01*
%TO.N,/D-*%
X9829800Y1549400D02*
X9829800Y1386800D01*
X9194800Y1336000D02*
X9779000Y1336000D01*
X9829800Y1386800D02*
X9779000Y1336000D01*
X3987800Y5715000D02*
X6451600Y5715000D01*
X6451600Y5715000D02*
X7061200Y5105400D01*
D22*
%TO.N,/IO5_B*%
X10291000Y3403600D02*
X10058400Y3403600D01*
X10058400Y3403600D02*
X9829800Y3175000D01*
X9829800Y3175000D02*
X9829800Y2768600D01*
%TO.N,/IO4_G*%
X9982200Y3937000D02*
X9753600Y3708400D01*
X10291000Y3937000D02*
X9982200Y3937000D01*
X9753600Y3505200D02*
X9525000Y3276600D01*
X9525000Y3276600D02*
X9525000Y3149600D01*
X9753600Y3708400D02*
X9753600Y3505200D01*
%TO.N,/IO27_R*%
X10291000Y2794000D02*
X10287000Y2794000D01*
%TD*%
%TA.AperFunction,Conductor*%
%TO.N,GND*%
G36*
X11905994Y2194184D02*
G01*
X11909471Y2190707D01*
X11912890Y2185590D01*
X11918007Y2182171D01*
X11974440Y2144463D01*
X11974442Y2144462D01*
X11979559Y2141043D01*
X12031035Y2130804D01*
X12055188Y2125999D01*
X12055189Y2125999D01*
X12058200Y2125400D01*
X12308802Y2125400D01*
X12339770Y2112572D01*
X12342171Y2115932D01*
X12375245Y2125400D01*
X12515400Y2125400D01*
X12584518Y2139149D01*
X12631434Y2129817D01*
X12658010Y2090044D01*
X12658995Y2072660D01*
X12654327Y2016638D01*
X12654326Y2016634D01*
X12651319Y1980550D01*
X12629406Y1938028D01*
X12583845Y1923456D01*
X12557643Y1931695D01*
X12490716Y1970569D01*
X12486681Y1972913D01*
X12450929Y1981200D01*
X12361132Y2002014D01*
X12343706Y2014467D01*
X12313216Y2000556D01*
X12219636Y1993930D01*
X12215278Y1992244D01*
X12185051Y1980550D01*
X12093319Y1945062D01*
X12076363Y1931695D01*
X11992765Y1865791D01*
X11986955Y1861211D01*
X11984299Y1857368D01*
X11984297Y1857366D01*
X11975790Y1845057D01*
X11909948Y1749792D01*
X11869108Y1620656D01*
X11869071Y1615983D01*
X11869071Y1615981D01*
X11868779Y1578784D01*
X11868044Y1485219D01*
X11869382Y1480746D01*
X11869382Y1480744D01*
X11872683Y1469706D01*
X11906851Y1355458D01*
X11909445Y1351575D01*
X11911435Y1347347D01*
X11910109Y1346723D01*
X11918500Y1319065D01*
X11918500Y1204554D01*
X11933983Y1121421D01*
X11937010Y1116510D01*
X11937011Y1116508D01*
X11987435Y1034704D01*
X11992684Y1026189D01*
X11997276Y1022697D01*
X11997277Y1022696D01*
X12019627Y1005701D01*
X12081733Y958475D01*
X12087272Y956871D01*
X12087274Y956870D01*
X12172719Y932127D01*
X12172721Y932127D01*
X12176957Y930900D01*
X12435031Y930900D01*
X12479225Y912594D01*
X12497531Y868400D01*
X12497222Y862189D01*
X12494894Y838912D01*
X12494348Y833457D01*
X12493170Y826121D01*
X12481110Y771850D01*
X12480748Y770514D01*
X12480018Y768895D01*
X12479324Y765425D01*
X12479323Y765422D01*
X12476228Y749946D01*
X12475954Y748647D01*
X12471808Y729989D01*
X12471818Y728217D01*
X12471606Y726832D01*
X12456913Y653368D01*
X12456261Y650468D01*
X12442819Y596700D01*
X12442291Y594920D01*
X12441357Y592960D01*
X12437314Y574766D01*
X12436936Y573167D01*
X12432455Y555243D01*
X12432410Y553071D01*
X12432083Y551225D01*
X12426023Y523956D01*
X12419679Y495409D01*
X12417661Y488329D01*
X12415464Y482052D01*
X12415074Y478539D01*
X12415073Y478536D01*
X12414590Y474187D01*
X12413484Y467532D01*
X12411808Y459989D01*
X12411846Y453309D01*
X12411465Y446060D01*
X12404973Y387636D01*
X12403489Y379380D01*
X12368826Y240728D01*
X12368295Y238745D01*
X12366748Y233328D01*
X12337004Y195864D01*
X12306653Y188000D01*
X11785836Y188000D01*
X11741642Y206306D01*
X11723336Y250500D01*
X11741642Y294694D01*
X11753041Y303705D01*
X11753436Y303948D01*
X11782383Y321791D01*
X11806499Y336656D01*
X11806500Y336657D01*
X11811411Y339684D01*
X11879125Y428733D01*
X11885188Y449668D01*
X11905473Y519719D01*
X11905473Y519721D01*
X11906700Y523957D01*
X11906700Y852846D01*
X11891217Y935979D01*
X11887475Y942051D01*
X11835544Y1026299D01*
X11835543Y1026300D01*
X11832516Y1031211D01*
X11827924Y1034703D01*
X11827923Y1034704D01*
X11783660Y1068362D01*
X11743467Y1098925D01*
X11737928Y1100529D01*
X11737926Y1100530D01*
X11652481Y1125273D01*
X11652479Y1125273D01*
X11648243Y1126500D01*
X11410400Y1126500D01*
X11366206Y1144806D01*
X11347900Y1189000D01*
X11347900Y1492846D01*
X11336305Y1555105D01*
X11333475Y1570301D01*
X11333474Y1570304D01*
X11332417Y1575979D01*
X11284194Y1654212D01*
X11274900Y1687004D01*
X11274900Y1845057D01*
X11293206Y1889251D01*
X11477795Y2073840D01*
X11508834Y2090746D01*
X11573732Y2104717D01*
X11611838Y2112921D01*
X11611839Y2112921D01*
X11616408Y2113905D01*
X11622704Y2117431D01*
X11653243Y2125400D01*
X11665400Y2125400D01*
X11668411Y2125999D01*
X11668412Y2125999D01*
X11692565Y2130804D01*
X11744041Y2141043D01*
X11749158Y2144462D01*
X11749160Y2144463D01*
X11805593Y2182171D01*
X11810710Y2185590D01*
X11814129Y2190707D01*
X11817606Y2194184D01*
X11861800Y2212490D01*
X11905994Y2194184D01*
G37*
%TD.AperFunction*%
%TA.AperFunction,Conductor*%
G36*
X8109694Y9169693D02*
G01*
X8128000Y9125499D01*
X8128000Y4648200D01*
X8874840Y4650114D01*
X12058969Y4658275D01*
X12071401Y4658307D01*
X12071111Y4767398D01*
X12059502Y9125333D01*
X12077690Y9169575D01*
X12122002Y9187999D01*
X12306653Y9187999D01*
X12350847Y9169693D01*
X12366747Y9142673D01*
X12368286Y9137288D01*
X12368826Y9135272D01*
X12403489Y8996620D01*
X12404973Y8988365D01*
X12411438Y8930182D01*
X12411817Y8922835D01*
X12411768Y8916189D01*
X12412535Y8912739D01*
X12412535Y8912737D01*
X12413484Y8908467D01*
X12414589Y8901816D01*
X12415055Y8897620D01*
X12415057Y8897610D01*
X12415444Y8894129D01*
X12416597Y8890816D01*
X12416598Y8890812D01*
X12417640Y8887817D01*
X12419624Y8880836D01*
X12432047Y8824934D01*
X12432370Y8823109D01*
X12432411Y8820934D01*
X12433268Y8817508D01*
X12433268Y8817505D01*
X12436933Y8802847D01*
X12437311Y8801246D01*
X12441317Y8783217D01*
X12442247Y8781258D01*
X12442778Y8779464D01*
X12456262Y8725528D01*
X12456914Y8722627D01*
X12465284Y8680776D01*
X12471568Y8649353D01*
X12471781Y8647961D01*
X12471768Y8646189D01*
X12472534Y8642744D01*
X12475956Y8627344D01*
X12476231Y8626042D01*
X12479982Y8607284D01*
X12480709Y8605663D01*
X12481071Y8604326D01*
X12482074Y8599812D01*
X12493171Y8549876D01*
X12494349Y8542537D01*
X12501220Y8473830D01*
X12501504Y8465822D01*
X12501350Y8460449D01*
X12503169Y8451354D01*
X12504070Y8445332D01*
X12504974Y8436289D01*
X12506704Y8431135D01*
X12508735Y8423519D01*
X12527053Y8331928D01*
X12527718Y8328607D01*
X12543169Y8251350D01*
X12544068Y8245343D01*
X12549095Y8195073D01*
X12550976Y8176266D01*
X12551194Y8168104D01*
X12551235Y8167494D01*
X12551072Y8163967D01*
X12551704Y8160491D01*
X12553143Y8152574D01*
X12553841Y8147616D01*
X12554974Y8136289D01*
X12556090Y8132965D01*
X12556194Y8132483D01*
X12558247Y8124509D01*
X12573141Y8042587D01*
X12573839Y8037627D01*
X12580976Y7966260D01*
X12581194Y7958103D01*
X12581235Y7957494D01*
X12581072Y7953967D01*
X12581704Y7950491D01*
X12583143Y7942574D01*
X12583841Y7937616D01*
X12584974Y7926289D01*
X12586090Y7922966D01*
X12586192Y7922492D01*
X12588247Y7914508D01*
X12602931Y7833746D01*
X12603682Y7828224D01*
X12612523Y7730970D01*
X12612564Y7730503D01*
X12621166Y7627295D01*
X12621315Y7619217D01*
X12621072Y7613967D01*
X12621704Y7610489D01*
X12621705Y7610481D01*
X12622754Y7604714D01*
X12623547Y7598722D01*
X12624311Y7589548D01*
X12625371Y7586210D01*
X12625372Y7586203D01*
X12625914Y7584497D01*
X12627835Y7576769D01*
X12642754Y7494721D01*
X12643546Y7488730D01*
X12650655Y7403417D01*
X12650655Y7403416D01*
X12660655Y7283417D01*
X12660655Y7283416D01*
X12670655Y7163417D01*
X12670655Y7163416D01*
X12680655Y7043417D01*
X12680655Y7043416D01*
X12692419Y6902250D01*
X12692451Y6901854D01*
X12700726Y6794275D01*
X12700733Y6793958D01*
X12700655Y6793416D01*
X12700781Y6791905D01*
X12700781Y6791902D01*
X12702422Y6772214D01*
X12702454Y6771816D01*
X12704070Y6750806D01*
X12704231Y6750288D01*
X12704277Y6749953D01*
X12712416Y6652285D01*
X12712447Y6651895D01*
X12712945Y6645430D01*
X12720726Y6544275D01*
X12720733Y6543958D01*
X12720655Y6543416D01*
X12720781Y6541905D01*
X12720781Y6541901D01*
X12722422Y6522214D01*
X12722454Y6521816D01*
X12724070Y6500806D01*
X12724231Y6500288D01*
X12724277Y6499953D01*
X12732419Y6402250D01*
X12732451Y6401854D01*
X12741616Y6282709D01*
X12741800Y6277915D01*
X12741800Y6176724D01*
X12741274Y6169693D01*
X12741220Y6168192D01*
X12740694Y6164697D01*
X12740965Y6161173D01*
X12740965Y6161171D01*
X12741616Y6152711D01*
X12741800Y6147917D01*
X12741800Y6136081D01*
X12742579Y6132663D01*
X12742727Y6131352D01*
X12743806Y6124233D01*
X12754070Y5990806D01*
X12761616Y5892709D01*
X12761800Y5887915D01*
X12761800Y5776724D01*
X12761274Y5769693D01*
X12761220Y5768192D01*
X12760694Y5764697D01*
X12760965Y5761173D01*
X12760965Y5761171D01*
X12761616Y5752711D01*
X12761800Y5747917D01*
X12761800Y5736081D01*
X12762579Y5732663D01*
X12762727Y5731352D01*
X12763806Y5724233D01*
X12771616Y5622709D01*
X12771800Y5617915D01*
X12771800Y5376724D01*
X12771274Y5369693D01*
X12771220Y5368192D01*
X12770694Y5364697D01*
X12770965Y5361173D01*
X12770965Y5361171D01*
X12771616Y5352711D01*
X12771800Y5347917D01*
X12771800Y5336081D01*
X12772579Y5332663D01*
X12772727Y5331352D01*
X12773806Y5324233D01*
X12781616Y5222709D01*
X12781800Y5217915D01*
X12781800Y4158085D01*
X12781616Y4153291D01*
X12777971Y4105902D01*
X12773825Y4052002D01*
X12772760Y4045030D01*
X12772591Y4043540D01*
X12771800Y4040101D01*
X12771800Y4028083D01*
X12771616Y4023289D01*
X12770708Y4011485D01*
X12771224Y4008012D01*
X12771271Y4006685D01*
X12771800Y3999520D01*
X12771800Y3821510D01*
X12753494Y3777316D01*
X12709300Y3759010D01*
X12665106Y3777316D01*
X12664129Y3778293D01*
X12660710Y3783410D01*
X12603690Y3821510D01*
X12599160Y3824537D01*
X12599158Y3824538D01*
X12594041Y3827957D01*
X12542565Y3838196D01*
X12518412Y3843001D01*
X12518411Y3843001D01*
X12515400Y3843600D01*
X12354440Y3843600D01*
X12310246Y3861906D01*
X12070605Y4101548D01*
X12062835Y4111014D01*
X12052012Y4127212D01*
X12046896Y4130631D01*
X12021437Y4147642D01*
X12014632Y4152189D01*
X11964742Y4185524D01*
X11958708Y4186724D01*
X11958706Y4186725D01*
X11867838Y4204799D01*
X11861800Y4206000D01*
X11855762Y4204799D01*
X11842701Y4202201D01*
X11830508Y4201000D01*
X11147285Y4201000D01*
X11112562Y4211533D01*
X11028462Y4267728D01*
X11028460Y4267729D01*
X11023343Y4271148D01*
X10986009Y4278574D01*
X10944150Y4286901D01*
X10944147Y4286901D01*
X10941137Y4287500D01*
X10640863Y4287500D01*
X10637853Y4286901D01*
X10637850Y4286901D01*
X10558657Y4271148D01*
X10558400Y4272441D01*
X10523600Y4272441D01*
X10523343Y4271148D01*
X10444150Y4286901D01*
X10444147Y4286901D01*
X10441137Y4287500D01*
X10140863Y4287500D01*
X10137853Y4286901D01*
X10137850Y4286901D01*
X10095991Y4278574D01*
X10058657Y4271148D01*
X10053540Y4267729D01*
X10053538Y4267728D01*
X9967657Y4210343D01*
X9967005Y4211319D01*
X9942150Y4198034D01*
X9903940Y4190433D01*
X9879258Y4185524D01*
X9874141Y4182105D01*
X9874139Y4182104D01*
X9843850Y4161865D01*
X9822564Y4147642D01*
X9791988Y4127212D01*
X9781165Y4111014D01*
X9773395Y4101548D01*
X9589052Y3917205D01*
X9579586Y3909435D01*
X9563388Y3898612D01*
X9559969Y3893495D01*
X9549149Y3877302D01*
X9513893Y3824537D01*
X9505076Y3811342D01*
X9484600Y3708400D01*
X9485801Y3702362D01*
X9488399Y3689301D01*
X9489600Y3677108D01*
X9489600Y3640441D01*
X9471294Y3596247D01*
X9360452Y3485405D01*
X9350986Y3477635D01*
X9334788Y3466812D01*
X9320549Y3445502D01*
X9276476Y3379542D01*
X9275275Y3373504D01*
X9274284Y3371111D01*
X9269752Y3363638D01*
X9270290Y3363327D01*
X9224974Y3284837D01*
X9212552Y3263322D01*
X9192500Y3149600D01*
X9212552Y3035878D01*
X9215285Y3031144D01*
X9215286Y3031142D01*
X9242215Y2984500D01*
X9270290Y2935873D01*
X9358750Y2861647D01*
X9395722Y2848190D01*
X9457126Y2825840D01*
X9492393Y2793522D01*
X9497574Y2770154D01*
X9497300Y2768600D01*
X9517352Y2654878D01*
X9575090Y2554873D01*
X9663550Y2480647D01*
X9743914Y2451396D01*
X9766922Y2443022D01*
X9772062Y2441151D01*
X9887538Y2441151D01*
X9892678Y2443022D01*
X9892679Y2443022D01*
X9892946Y2443119D01*
X9893174Y2443109D01*
X9898063Y2443971D01*
X9898254Y2442887D01*
X9940736Y2441032D01*
X9973053Y2405764D01*
X9974356Y2367003D01*
X9950654Y2285152D01*
X9947900Y2275643D01*
X9947900Y2063049D01*
X9929594Y2018855D01*
X9885400Y2000549D01*
X9871286Y2002164D01*
X9865538Y2003496D01*
X9730436Y1993930D01*
X9726078Y1992244D01*
X9695851Y1980550D01*
X9604119Y1945062D01*
X9587163Y1931695D01*
X9503565Y1865791D01*
X9497755Y1861211D01*
X9495099Y1857368D01*
X9495097Y1857366D01*
X9441959Y1780481D01*
X9401773Y1754533D01*
X9373160Y1755983D01*
X9336843Y1766500D01*
X9067954Y1766500D01*
X8984821Y1751017D01*
X8979910Y1747990D01*
X8979908Y1747989D01*
X8922658Y1712700D01*
X8889589Y1692316D01*
X8886097Y1687724D01*
X8886096Y1687723D01*
X8872080Y1669290D01*
X8821875Y1603267D01*
X8820271Y1597728D01*
X8820270Y1597726D01*
X8799673Y1526599D01*
X8794300Y1508043D01*
X8794300Y1179154D01*
X8809783Y1096021D01*
X8812810Y1091110D01*
X8812811Y1091108D01*
X8865456Y1005701D01*
X8868484Y1000789D01*
X8873076Y997297D01*
X8873077Y997296D01*
X8913008Y966932D01*
X8957533Y933075D01*
X8963072Y931471D01*
X8963074Y931470D01*
X9048519Y906727D01*
X9048521Y906727D01*
X9052757Y905500D01*
X9316000Y905500D01*
X9360194Y887194D01*
X9378500Y843000D01*
X9378500Y539154D01*
X9379028Y536320D01*
X9392925Y461699D01*
X9392926Y461696D01*
X9393983Y456021D01*
X9441254Y379333D01*
X9449779Y356318D01*
X9453182Y334829D01*
X9455416Y330445D01*
X9455416Y330444D01*
X9481692Y278874D01*
X9485445Y231186D01*
X9454378Y194812D01*
X9426004Y188000D01*
X8303875Y188000D01*
X8259681Y206306D01*
X8241375Y250500D01*
X8242010Y259387D01*
X8251300Y324000D01*
X8251300Y1474637D01*
X8269606Y1518831D01*
X8300646Y1535737D01*
X8386039Y1554121D01*
X8386041Y1554122D01*
X8390608Y1555105D01*
X8414876Y1568695D01*
X8428385Y1573439D01*
X8428259Y1573808D01*
X8433147Y1575482D01*
X8438243Y1576330D01*
X8540256Y1631373D01*
X8543760Y1635164D01*
X8543763Y1635166D01*
X8615434Y1712700D01*
X8615435Y1712701D01*
X8618940Y1716493D01*
X8632865Y1747989D01*
X8663971Y1818351D01*
X8665810Y1822510D01*
X8668658Y1845057D01*
X8671653Y1868760D01*
X8671653Y1868766D01*
X8671900Y1870718D01*
X8671900Y1889911D01*
X8672748Y1900173D01*
X8685044Y1974045D01*
X8685100Y1981200D01*
X8679773Y2016636D01*
X8672595Y2064377D01*
X8671900Y2073669D01*
X8671900Y2285338D01*
X8657868Y2369641D01*
X8618692Y2442247D01*
X8611197Y2471923D01*
X8611197Y2566843D01*
X8596896Y2652765D01*
X8594443Y2657311D01*
X8594442Y2657314D01*
X8585218Y2674408D01*
X8578671Y2714941D01*
X8587747Y2766411D01*
X8588697Y2771799D01*
X8587747Y2777187D01*
X8587747Y2782652D01*
X8590638Y2782652D01*
X8598843Y2819666D01*
X8639185Y2845370D01*
X8650041Y2846320D01*
X8715588Y2846320D01*
X8720725Y2848190D01*
X8720727Y2848190D01*
X8774826Y2867881D01*
X8823447Y2885578D01*
X8911375Y2959358D01*
X8968765Y3058761D01*
X8988697Y3171799D01*
X8968765Y3284837D01*
X8911375Y3384240D01*
X8867411Y3421130D01*
X8827635Y3454506D01*
X8827634Y3454506D01*
X8823447Y3458020D01*
X8750654Y3484515D01*
X8743475Y3487128D01*
X8708207Y3519445D01*
X8703199Y3556120D01*
X8707688Y3583089D01*
X8710042Y3597228D01*
X8710042Y3597232D01*
X8710444Y3599645D01*
X8710500Y3606800D01*
X8709335Y3614553D01*
X8695225Y3708400D01*
X8690364Y3740735D01*
X8678057Y3766364D01*
X8671898Y3793419D01*
X8671898Y4063339D01*
X8657866Y4147642D01*
X8653528Y4155683D01*
X8626378Y4206000D01*
X8602823Y4249655D01*
X8599032Y4253159D01*
X8599030Y4253162D01*
X8521496Y4324833D01*
X8521495Y4324834D01*
X8517703Y4328339D01*
X8512983Y4330426D01*
X8512981Y4330427D01*
X8457777Y4354832D01*
X8411686Y4375209D01*
X8396745Y4377096D01*
X8365436Y4381052D01*
X8365430Y4381052D01*
X8363478Y4381299D01*
X8042218Y4381299D01*
X7998024Y4399605D01*
X7985877Y4416745D01*
X7973359Y4442815D01*
X7973357Y4442817D01*
X7971335Y4447029D01*
X7959905Y4459394D01*
X7943300Y4501819D01*
X7943300Y4574000D01*
X7927657Y4652641D01*
X7923893Y4658275D01*
X7914537Y4672276D01*
X7905204Y4719192D01*
X7914537Y4741724D01*
X7924236Y4756239D01*
X7927657Y4761359D01*
X7943300Y4840000D01*
X7943300Y6590000D01*
X7940239Y6605391D01*
X7930910Y6652285D01*
X7927657Y6668641D01*
X7924236Y6673760D01*
X7921881Y6679447D01*
X7923656Y6680182D01*
X7915894Y6719187D01*
X7922203Y6734420D01*
X7921881Y6734553D01*
X7924236Y6740240D01*
X7927657Y6745359D01*
X7943300Y6824000D01*
X7943300Y9074000D01*
X7935481Y9113306D01*
X7944813Y9160221D01*
X7984586Y9186798D01*
X7996780Y9187999D01*
X8065500Y9187999D01*
X8109694Y9169693D01*
G37*
%TD.AperFunction*%
%TD*%
M02*
