%TF.GenerationSoftware,KiCad,Pcbnew,(5.99.0-8645-g8b3dea7107)*%
%TF.CreationDate,2021-02-16T20:06:57-08:00*%
%TF.ProjectId,femu,66656d75-2e6b-4696-9361-645f70636258,rev?*%
%TF.SameCoordinates,PX7930768PY60e4b00*%
%TF.FileFunction,Soldermask,Top*%
%TF.FilePolarity,Negative*%
%FSLAX46Y46*%
G04 Gerber Fmt 4.6, Leading zero omitted, Abs format (unit mm)*
G04 Created by KiCad (PCBNEW (5.99.0-8645-g8b3dea7107)) date 2021-02-16 20:06:57*
%MOMM*%
%LPD*%
G01*
G04 APERTURE LIST*
G04 Aperture macros list*
%AMRoundRect*
0 Rectangle with rounded corners*
0 $1 Rounding radius*
0 $2 $3 $4 $5 $6 $7 $8 $9 X,Y pos of 4 corners*
0 Add a 4 corners polygon primitive as box body*
4,1,4,$2,$3,$4,$5,$6,$7,$8,$9,$2,$3,0*
0 Add four circle primitives for the rounded corners*
1,1,$1+$1,$2,$3*
1,1,$1+$1,$4,$5*
1,1,$1+$1,$6,$7*
1,1,$1+$1,$8,$9*
0 Add four rect primitives between the rounded corners*
20,1,$1+$1,$2,$3,$4,$5,0*
20,1,$1+$1,$4,$5,$6,$7,0*
20,1,$1+$1,$6,$7,$8,$9,0*
20,1,$1+$1,$8,$9,$2,$3,0*%
G04 Aperture macros list end*
%ADD10RoundRect,0.062500X-0.250000X-0.062500X0.250000X-0.062500X0.250000X0.062500X-0.250000X0.062500X0*%
%ADD11RoundRect,0.062500X-0.062500X-0.200000X0.062500X-0.200000X0.062500X0.200000X-0.062500X0.200000X0*%
%ADD12RoundRect,0.062500X-0.062500X-0.250000X0.062500X-0.250000X0.062500X0.250000X-0.062500X0.250000X0*%
%ADD13RoundRect,0.250000X-1.000000X-1.000000X1.000000X-1.000000X1.000000X1.000000X-1.000000X1.000000X0*%
%ADD14RoundRect,0.100000X-0.100000X0.130000X-0.100000X-0.130000X0.100000X-0.130000X0.100000X0.130000X0*%
%ADD15RoundRect,0.100000X0.100000X-0.130000X0.100000X0.130000X-0.100000X0.130000X-0.100000X-0.130000X0*%
%ADD16R,0.800000X0.650000*%
%ADD17R,0.800000X1.600000*%
%ADD18R,0.200000X0.810000*%
%ADD19R,0.810000X0.200000*%
%ADD20R,3.700000X3.700000*%
%ADD21RoundRect,0.100000X-0.130000X-0.100000X0.130000X-0.100000X0.130000X0.100000X-0.130000X0.100000X0*%
%ADD22RoundRect,0.091500X-0.108500X0.091500X-0.108500X-0.091500X0.108500X-0.091500X0.108500X0.091500X0*%
%ADD23RoundRect,0.100000X-0.100000X0.100000X-0.100000X-0.100000X0.100000X-0.100000X0.100000X0.100000X0*%
%ADD24RoundRect,0.075000X-0.125000X-0.075000X0.125000X-0.075000X0.125000X0.075000X-0.125000X0.075000X0*%
%ADD25RoundRect,0.100000X0.130000X0.100000X-0.130000X0.100000X-0.130000X-0.100000X0.130000X-0.100000X0*%
%ADD26RoundRect,0.075000X0.075000X-0.125000X0.075000X0.125000X-0.075000X0.125000X-0.075000X-0.125000X0*%
%ADD27RoundRect,0.100000X0.021213X0.162635X-0.162635X-0.021213X-0.021213X-0.162635X0.162635X0.021213X0*%
%ADD28R,0.700000X0.800000*%
%ADD29RoundRect,0.075000X0.125000X0.075000X-0.125000X0.075000X-0.125000X-0.075000X0.125000X-0.075000X0*%
%ADD30RoundRect,0.147500X-0.172500X0.147500X-0.172500X-0.147500X0.172500X-0.147500X0.172500X0.147500X0*%
%ADD31RoundRect,0.075000X-0.075000X0.125000X-0.075000X-0.125000X0.075000X-0.125000X0.075000X0.125000X0*%
G04 APERTURE END LIST*
D10*
%TO.C,U2*%
X8017700Y3108200D03*
X8017700Y2608200D03*
X8017700Y2108200D03*
X8017700Y1608200D03*
X8017700Y1108200D03*
D11*
X8855200Y320700D03*
X9355200Y320700D03*
X9855200Y320700D03*
X10355200Y320700D03*
X10855200Y320700D03*
D10*
X11692700Y1108200D03*
X11692700Y1608200D03*
X11692700Y2108200D03*
X11692700Y2608200D03*
X11692700Y3108200D03*
D12*
X10855200Y3945700D03*
X10355200Y3945700D03*
X9855200Y3945700D03*
X9355200Y3945700D03*
X8855200Y3945700D03*
D13*
X9855200Y2108200D03*
%TD*%
D14*
%TO.C,C4*%
X12319000Y2250400D03*
X12319000Y1610400D03*
%TD*%
D15*
%TO.C,C5*%
X12319000Y340400D03*
X12319000Y980400D03*
%TD*%
D16*
%TO.C,ANT1*%
X8483800Y7449800D03*
X8483800Y8399800D03*
D17*
X11683800Y7924800D03*
%TD*%
D14*
%TO.C,C12*%
X330200Y8194000D03*
X330200Y7554000D03*
%TD*%
D18*
%TO.C,U1*%
X5754800Y5874000D03*
X5404800Y5874000D03*
X5054800Y5874000D03*
X4704800Y5874000D03*
X4354800Y5874000D03*
X4004800Y5874000D03*
X3654800Y5874000D03*
X3304800Y5874000D03*
X2954800Y5874000D03*
X2604800Y5874000D03*
X2254800Y5874000D03*
X1904800Y5874000D03*
X1554800Y5874000D03*
X1204800Y5874000D03*
D19*
X1034800Y5004000D03*
X1034800Y4654000D03*
X1034800Y4304000D03*
X1034800Y3954000D03*
X1034800Y3604000D03*
X1034800Y3254000D03*
X1034800Y2904000D03*
X1034800Y2554000D03*
X1034800Y2204000D03*
X1034800Y1854000D03*
D18*
X1204800Y984000D03*
X1554800Y984000D03*
X1904800Y984000D03*
X2254800Y984000D03*
X2604800Y984000D03*
X2954800Y984000D03*
X3304800Y984000D03*
X3654800Y984000D03*
X4004800Y984000D03*
X4354800Y984000D03*
X4704800Y984000D03*
X5054800Y984000D03*
X5404800Y984000D03*
X5754800Y984000D03*
D19*
X5924800Y1854000D03*
X5924800Y2204000D03*
X5924800Y2554000D03*
X5924800Y2904000D03*
X5924800Y3254000D03*
X5924800Y3604000D03*
X5924800Y3954000D03*
X5924800Y4304000D03*
X5924800Y4654000D03*
X5924800Y5004000D03*
D20*
X3479800Y3429000D03*
%TD*%
D21*
%TO.C,C3*%
X6502400Y7467600D03*
X7142400Y7467600D03*
%TD*%
D14*
%TO.C,C2*%
X7696200Y7470101D03*
X7696200Y6830101D03*
%TD*%
D22*
%TO.C,L1*%
X5956299Y7470101D03*
D23*
X5956299Y6830101D03*
%TD*%
D24*
%TO.C,C14*%
X2975800Y7239000D03*
X3475800Y7239000D03*
%TD*%
D25*
%TO.C,C15*%
X7482800Y3683000D03*
X6842800Y3683000D03*
%TD*%
D26*
%TO.C,C17*%
X330200Y3102800D03*
X330200Y3602800D03*
%TD*%
%TO.C,C21*%
X6908800Y689800D03*
X6908800Y1189800D03*
%TD*%
D27*
%TO.C,C23*%
X5357074Y8786074D03*
X4904526Y8333526D03*
%TD*%
D28*
%TO.C,Y1*%
X1074800Y8854200D03*
X1074800Y7554200D03*
X2074800Y7554200D03*
X2074800Y8854200D03*
%TD*%
D29*
%TO.C,C26*%
X4720400Y7239000D03*
X4220400Y7239000D03*
%TD*%
%TO.C,L2*%
X4364800Y6604000D03*
X3864800Y6604000D03*
%TD*%
%TO.C,C25*%
X2078800Y6604000D03*
X1578800Y6604000D03*
%TD*%
D30*
%TO.C,C22*%
X4267200Y8994000D03*
X4267200Y8024000D03*
%TD*%
%TO.C,C18*%
X3403600Y8994000D03*
X3403600Y8024000D03*
%TD*%
D29*
%TO.C,R7*%
X3298000Y6604000D03*
X2798000Y6604000D03*
%TD*%
D25*
%TO.C,C16*%
X7482800Y4343400D03*
X6842800Y4343400D03*
%TD*%
D26*
%TO.C,C1*%
X297180Y6376860D03*
X297180Y6876860D03*
%TD*%
%TO.C,C20*%
X299720Y5177980D03*
X299720Y5677980D03*
%TD*%
D31*
%TO.C,R8*%
X7366000Y5406200D03*
X7366000Y4906200D03*
%TD*%
%TO.C,C19*%
X6858000Y5406200D03*
X6858000Y4906200D03*
%TD*%
D24*
%TO.C,C13*%
X7116000Y5867400D03*
X7616000Y5867400D03*
%TD*%
D29*
%TO.C,C24*%
X7387400Y6273800D03*
X6887400Y6273800D03*
%TD*%
M02*
