M48
INCH,TZ
T1C0.0039
T2C0.0079
T3C0.0157
%
G90
G05
T1
X110Y1810
X110Y1610
X110Y1210
X110Y1010
X110Y810
X110Y610
X110Y410
X110Y210
X140Y2970
X190Y120
X310Y2600
X310Y2430
X310Y2250
X370Y110
X440Y2600
X570Y110
X620Y2600
X770Y110
X970Y110
X1040Y2760
X1070Y3500
X1070Y3300
X1070Y3200
X1070Y3100
X1070Y3000
X1070Y2900
X1120Y3600
X1120Y3400
X1120Y2800
X1170Y2900
X1170Y110
X1220Y3500
X1320Y3600
X1320Y3400
X1370Y110
X1420Y3500
X1520Y3600
X1520Y3400
X1570Y110
X1620Y3500
X1720Y3400
X1770Y3600
X1770Y3500
X1770Y110
X1910Y3460
X1970Y3600
X1970Y3120
X1970Y2760
X1970Y2590
X1970Y110
X1990Y2910
X2070Y3500
X2070Y3150
X2070Y3020
X2170Y3600
X2170Y3400
X2170Y3200
X2170Y110
X2190Y3090
X2270Y3500
X2270Y3200
X2320Y3130
X2320Y2750
X2320Y2600
X2370Y3600
X2370Y3400
X2370Y3200
X2370Y110
X2420Y2650
X2420Y2510
X2465Y3130
X2470Y3500
X2470Y3300
X2470Y3200
X2470Y2750
X2470Y2600
X2570Y3600
X2570Y3400
X2570Y3200
X2570Y2650
X2570Y110
X2600Y3130
X2620Y2750
X2670Y3500
X2670Y3200
X2720Y2650
X2735Y3130
X2770Y3600
X2770Y3200
X2770Y2750
X2770Y110
X2870Y3500
X2870Y3300
X2870Y3200
X2870Y3135
X2870Y2650
X2920Y2750
X2970Y3600
X2970Y3400
X2970Y3300
X2970Y2550
X2970Y110
X2985Y3145
X3020Y2650
X3070Y3500
X3070Y3200
X3070Y2750
X3070Y2400
X3070Y2200
X3070Y2000
X3070Y1900
X3070Y1800
X3070Y1500
X3095Y3145
X3170Y3600
X3170Y3400
X3170Y3200
X3170Y2700
X3170Y2500
X3170Y2300
X3170Y2100
X3170Y1900
X3170Y1800
X3170Y1700
X3170Y1600
X3170Y1500
X3170Y110
X3270Y1800
X3270Y1700
X3270Y1600
X3270Y1500
X3370Y1800
X3470Y1800
X3570Y1800
X3670Y1800
X3770Y1800
X3870Y1800
X3970Y1800
X4070Y1800
X4170Y1800
X4270Y1800
X4370Y1800
X4470Y1800
X4470Y1700
X4470Y1600
X4470Y1500
X4570Y1800
X4570Y1700
X4570Y1600
X4570Y1500
X4670Y1800
X4670Y1700
X4670Y1600
X4670Y1500
X4770Y3450
X4770Y3300
X4770Y3150
X4770Y3000
X4770Y2850
X4770Y2700
X4770Y2550
X4770Y2400
X4770Y2250
X4770Y2100
X4770Y1950
X4770Y1800
X4770Y1700
X4770Y1600
X4770Y1500
X4870Y1800
X4870Y1700
X4870Y1600
X4870Y1500
X4970Y1800
X4970Y1600
X4970Y1400
X4970Y1200
X4970Y1000
T2
X2270Y3335
X2670Y3335
X3070Y3300
X4870Y3400
X4920Y3080
X4920Y2800
X4920Y2500
X4920Y2200
X4920Y1950
T3
X1070Y1870
X1070Y1500
X1070Y1200
X1470Y1870
X1870Y1870
T0
M30
