%TF.GenerationSoftware,KiCad,Pcbnew,(5.99.0-8645-g8b3dea7107)*%
%TF.CreationDate,2021-02-16T20:06:57-08:00*%
%TF.ProjectId,femu,66656d75-2e6b-4696-9361-645f70636258,rev?*%
%TF.SameCoordinates,PX7930768PY60e4b00*%
%TF.FileFunction,Copper,L3,Inr*%
%TF.FilePolarity,Positive*%
%FSLAX46Y46*%
G04 Gerber Fmt 4.6, Leading zero omitted, Abs format (unit mm)*
G04 Created by KiCad (PCBNEW (5.99.0-8645-g8b3dea7107)) date 2021-02-16 20:06:57*
%MOMM*%
%LPD*%
G01*
G04 APERTURE LIST*
%TA.AperFunction,ViaPad*%
%ADD10C,0.254000*%
%TD*%
%TA.AperFunction,ViaPad*%
%ADD11C,0.800000*%
%TD*%
%TA.AperFunction,ViaPad*%
%ADD12C,0.500000*%
%TD*%
%TA.AperFunction,ViaPad*%
%ADD13C,0.381000*%
%TD*%
%TA.AperFunction,Conductor*%
%ADD14C,0.127000*%
%TD*%
%TA.AperFunction,Conductor*%
%ADD15C,0.254000*%
%TD*%
%TA.AperFunction,Conductor*%
%ADD16C,0.200000*%
%TD*%
G04 APERTURE END LIST*
D10*
%TO.N,Net-(U1-Pad45)*%
X2133600Y7543800D03*
X5638800Y3962400D03*
D11*
%TO.N,GND*%
X2971800Y1955800D03*
X3886200Y1955800D03*
X4800600Y1955800D03*
D12*
X11963400Y330200D03*
D11*
X2057400Y1955800D03*
D12*
%TO.N,+5V*%
X12319000Y1549400D03*
D10*
%TO.N,Net-(C6-Pad1)*%
X8864600Y4013200D03*
X10947400Y431800D03*
D12*
%TO.N,+3V3*%
X2082800Y8407400D03*
X6527800Y6223000D03*
X3632200Y7239000D03*
X6908800Y1320800D03*
D10*
X1041400Y3604260D03*
D12*
X6858000Y3860800D03*
D13*
%TO.N,/USB-*%
X10363200Y457200D03*
%TO.N,/USB+*%
X9829800Y457200D03*
D10*
%TO.N,Net-(C1-Pad2)*%
X3657600Y5588000D03*
X304800Y6807200D03*
%TO.N,Net-(C1-Pad1)*%
X304800Y6350000D03*
X3302000Y5765800D03*
%TO.N,Net-(C20-Pad2)*%
X304800Y5689600D03*
X4013200Y6146800D03*
%TO.N,Net-(C20-Pad1)*%
X4368800Y5588000D03*
X304800Y5207000D03*
%TO.N,/IO5_B*%
X4343400Y1244600D03*
%TO.N,/IO4_G*%
X762000Y1854200D03*
%TO.N,/IO27_R*%
X762000Y4648200D03*
X11125200Y2997200D03*
%TO.N,/UART+*%
X7848600Y3098800D03*
X5638800Y2565400D03*
%TO.N,/UART-*%
X10363200Y3708400D03*
X5638800Y2209800D03*
%TO.N,/BOOT_DTR*%
X9855200Y4064000D03*
X1295400Y2209800D03*
%TO.N,/EN_RTS*%
X2438400Y6578600D03*
X9347200Y4114800D03*
%TD*%
D14*
%TO.N,Net-(C1-Pad2)*%
X1397000Y6807200D02*
X2032000Y6172200D01*
X3479800Y6172200D02*
X3657600Y5994400D01*
X304800Y6807200D02*
X1397000Y6807200D01*
X2032000Y6172200D02*
X3479800Y6172200D01*
X3657600Y5994400D02*
X3657600Y5588000D01*
%TO.N,Net-(C1-Pad1)*%
X304800Y6350000D02*
X1270000Y6350000D01*
X1270000Y6350000D02*
X1854200Y5765800D01*
X1854200Y5765800D02*
X3302000Y5765800D01*
D15*
%TO.N,/IO27_R*%
X11125200Y2286000D02*
X10236200Y1397000D01*
X7366000Y787400D02*
X889000Y787400D01*
X330200Y1346200D02*
X330200Y4216400D01*
X11125200Y2997200D02*
X11125200Y2286000D01*
X889000Y787400D02*
X330200Y1346200D01*
X10236200Y1397000D02*
X7975600Y1397000D01*
X7975600Y1397000D02*
X7366000Y787400D01*
X330200Y4216400D02*
X762000Y4648200D01*
D16*
%TO.N,/UART+*%
X5638800Y2565400D02*
X5686000Y2612600D01*
X8813800Y3098800D02*
X7848600Y3098800D01*
X9042400Y2870200D02*
X8813800Y3098800D01*
X5686000Y2612600D02*
X8784800Y2612600D01*
X8784800Y2612600D02*
X9042400Y2870200D01*
%TO.N,/UART-*%
X10668000Y3403600D02*
X10363200Y3708400D01*
X10668000Y2540000D02*
X10668000Y3403600D01*
X10290600Y2162600D02*
X10668000Y2540000D01*
X5686000Y2162600D02*
X10290600Y2162600D01*
X5638800Y2209800D02*
X5686000Y2162600D01*
D15*
%TO.N,/BOOT_DTR*%
X1295400Y2540000D02*
X1295400Y2209800D01*
X9855200Y4064000D02*
X9296400Y3505200D01*
X7188200Y3505200D02*
X6781800Y3098800D01*
X1854200Y3098800D02*
X1295400Y2540000D01*
X6781800Y3098800D02*
X1854200Y3098800D01*
X9296400Y3505200D02*
X7188200Y3505200D01*
%TO.N,/EN_RTS*%
X5486400Y4394200D02*
X4876800Y5003800D01*
X9347200Y4114800D02*
X9067800Y4394200D01*
X4876800Y6350000D02*
X4648200Y6578600D01*
X4876800Y5003800D02*
X4876800Y6350000D01*
X4648200Y6578600D02*
X2438400Y6578600D01*
X9067800Y4394200D02*
X5486400Y4394200D01*
%TD*%
M02*
