%TF.GenerationSoftware,KiCad,Pcbnew,(5.99.0-8645-g8b3dea7107)*%
%TF.CreationDate,2021-02-16T20:06:57-08:00*%
%TF.ProjectId,femu,66656d75-2e6b-4696-9361-645f70636258,rev?*%
%TF.SameCoordinates,PX7930768PY60e4b00*%
%TF.FileFunction,Copper,L2,Inr*%
%TF.FilePolarity,Positive*%
%FSLAX46Y46*%
G04 Gerber Fmt 4.6, Leading zero omitted, Abs format (unit mm)*
G04 Created by KiCad (PCBNEW (5.99.0-8645-g8b3dea7107)) date 2021-02-16 20:06:57*
%MOMM*%
%LPD*%
G01*
G04 APERTURE LIST*
%TA.AperFunction,ViaPad*%
%ADD10C,0.254000*%
%TD*%
%TA.AperFunction,ViaPad*%
%ADD11C,0.800000*%
%TD*%
%TA.AperFunction,ViaPad*%
%ADD12C,0.200000*%
%TD*%
%TA.AperFunction,ViaPad*%
%ADD13C,0.500000*%
%TD*%
%TA.AperFunction,ViaPad*%
%ADD14C,0.381000*%
%TD*%
G04 APERTURE END LIST*
D10*
%TO.N,Net-(U1-Pad45)*%
X2133600Y7543800D03*
X5638800Y3962400D03*
D11*
%TO.N,GND*%
X2971800Y1955800D03*
X3886200Y1955800D03*
X4749800Y4749800D03*
X2717800Y4749800D03*
X2717800Y3810000D03*
X3733800Y4749800D03*
X2717800Y3048000D03*
D12*
X8051800Y8636000D03*
X8051800Y8128000D03*
X8051800Y6858000D03*
X8051800Y6350000D03*
X8051800Y5842000D03*
X8051800Y5334000D03*
X8051800Y4826000D03*
X8051800Y4572000D03*
X8305800Y4572000D03*
X8813800Y4572000D03*
X9321800Y4572000D03*
X9829800Y4572000D03*
X10337800Y4572000D03*
X10845800Y4572000D03*
X11353800Y4572000D03*
X11861800Y4572000D03*
X12623800Y4572000D03*
X7543800Y9144000D03*
X7035800Y9144000D03*
X6527800Y9144000D03*
X6019800Y9144000D03*
X5511800Y9144000D03*
X5003800Y9144000D03*
X4851400Y8788400D03*
X279400Y4597400D03*
X279400Y4089400D03*
X279400Y3073400D03*
X279400Y2565400D03*
X279400Y2057400D03*
X279400Y1549400D03*
X279400Y1041400D03*
X279400Y533400D03*
X482600Y304800D03*
X939800Y279400D03*
X1447800Y279400D03*
X1955800Y279400D03*
X2463800Y279400D03*
X5003800Y6578600D03*
X5003800Y7010400D03*
X5054600Y7391400D03*
X5257800Y7670800D03*
X5562600Y7848600D03*
X7861300Y7988300D03*
X5892800Y6604000D03*
X6654800Y6985000D03*
X7035800Y6985000D03*
X7416800Y6985000D03*
X7797800Y6985000D03*
X12115800Y4572000D03*
X12115800Y4953000D03*
X12115800Y5334000D03*
X12115800Y5715000D03*
X12115800Y6096000D03*
X12115800Y6477000D03*
X12115800Y6858000D03*
X12115800Y7239000D03*
X12115800Y7620000D03*
X12115800Y8001000D03*
X12115800Y8382000D03*
X12115800Y8763000D03*
D13*
X12496800Y7112000D03*
X12496800Y6350000D03*
X12496800Y5588000D03*
X12496800Y4953000D03*
X12369800Y8636000D03*
X7797800Y8382000D03*
D12*
X2971800Y279400D03*
X3479800Y279400D03*
X3987800Y279400D03*
X4495800Y279400D03*
X5003800Y279400D03*
X5511800Y279400D03*
X6019800Y279400D03*
X6527800Y279400D03*
X7035800Y279400D03*
X7543800Y279400D03*
X8051800Y279400D03*
X12623800Y4064000D03*
X12623800Y3556000D03*
X12623800Y3048000D03*
X12623800Y2540000D03*
X5892800Y7950200D03*
X7581900Y7988300D03*
X6261100Y7950200D03*
X6604000Y7950200D03*
X6946900Y7950200D03*
X7289800Y7962900D03*
D13*
X6781800Y8470900D03*
X5765800Y8470900D03*
D12*
X5003800Y7924800D03*
X5511800Y8128000D03*
X5257800Y8001000D03*
X5257800Y8890000D03*
X5765800Y8890000D03*
X5511800Y8636000D03*
X6019800Y8636000D03*
X5765800Y8128000D03*
X6273800Y8382000D03*
X6019800Y8128000D03*
X6527800Y8636000D03*
X6273800Y8890000D03*
X6781800Y8890000D03*
X7289800Y8890000D03*
X7797800Y8890000D03*
X7543800Y8636000D03*
X7289800Y8382000D03*
X7035800Y8128000D03*
X6527800Y8128000D03*
X6273800Y8128000D03*
X6781800Y8128000D03*
X7289800Y8128000D03*
X7797800Y8128000D03*
X7543800Y8382000D03*
X5892800Y6985000D03*
X6273800Y6985000D03*
X6146800Y6731000D03*
X6527800Y6731000D03*
X6908800Y6731000D03*
X7289800Y6731000D03*
X7670800Y6731000D03*
X7543800Y6477000D03*
X7797800Y6096000D03*
X7797800Y5588000D03*
X8559800Y4572000D03*
X9067800Y4572000D03*
X9575800Y4572000D03*
X10083800Y4572000D03*
X10591800Y4572000D03*
X11099800Y4572000D03*
X11607800Y4572000D03*
X11607800Y4318000D03*
X11607800Y4064000D03*
X11861800Y4064000D03*
X11861800Y4318000D03*
X12115800Y4318000D03*
X12115800Y4064000D03*
X12369800Y4064000D03*
X12369800Y4318000D03*
X12369800Y4572000D03*
X11607800Y3810000D03*
X11861800Y3810000D03*
X12115800Y3810000D03*
X12369800Y3810000D03*
X11353800Y3810000D03*
X11353800Y4064000D03*
X11353800Y4318000D03*
X8305800Y4318000D03*
X8051800Y4318000D03*
X8051800Y4064000D03*
X8305800Y4064000D03*
X8305800Y3810000D03*
X8051800Y3810000D03*
X7797800Y3810000D03*
X7797800Y4572000D03*
X7797800Y4826000D03*
X7797800Y5080000D03*
X6146800Y6375400D03*
X6273800Y6604000D03*
X4495800Y9144000D03*
X3860800Y9144000D03*
X3352800Y9144000D03*
X2844800Y9144000D03*
X2844800Y8636000D03*
X2717800Y8128000D03*
X2717800Y8382000D03*
X2717800Y8890000D03*
X2717800Y7874000D03*
X2717800Y7620000D03*
X2717800Y7366000D03*
X2971800Y7366000D03*
X2844800Y7112000D03*
X3098800Y8890000D03*
X3606800Y8890000D03*
X4114800Y8890000D03*
X3860800Y8636000D03*
X3352800Y8636000D03*
X4368800Y8636000D03*
X4495800Y8890000D03*
X1574800Y6604000D03*
X1117600Y6604000D03*
X787400Y6604000D03*
X787400Y6172200D03*
X355600Y7543800D03*
X787400Y5715000D03*
X2641600Y7010400D03*
D11*
X4800600Y1955800D03*
D13*
X11963400Y330200D03*
D12*
X8051800Y9144000D03*
D11*
X2057400Y1955800D03*
D13*
X12496800Y7823200D03*
%TO.N,+5V*%
X12319000Y1549400D03*
D10*
%TO.N,Net-(C6-Pad1)*%
X8864600Y4013200D03*
X10947400Y431800D03*
D13*
%TO.N,+3V3*%
X2082800Y8407400D03*
X6527800Y6223000D03*
X3632200Y7239000D03*
X6908800Y1320800D03*
D10*
X1041400Y3604260D03*
D13*
X6858000Y3860800D03*
D14*
%TO.N,/USB-*%
X10363200Y457200D03*
%TO.N,/USB+*%
X9829800Y457200D03*
D10*
%TO.N,Net-(C1-Pad2)*%
X3657600Y5588000D03*
X304800Y6807200D03*
%TO.N,Net-(C1-Pad1)*%
X304800Y6350000D03*
X3302000Y5765800D03*
%TO.N,Net-(C20-Pad2)*%
X304800Y5689600D03*
X4013200Y6146800D03*
%TO.N,Net-(C20-Pad1)*%
X4368800Y5588000D03*
X304800Y5207000D03*
%TO.N,/IO5_B*%
X4343400Y1244600D03*
%TO.N,/IO4_G*%
X762000Y1854200D03*
%TO.N,/IO27_R*%
X762000Y4648200D03*
%TO.N,/UART+*%
X7848600Y3098800D03*
X5638800Y2565400D03*
%TO.N,/UART-*%
X10363200Y3708400D03*
X5638800Y2209800D03*
%TO.N,/BOOT_DTR*%
X9855200Y4064000D03*
X1295400Y2209800D03*
%TO.N,/EN_RTS*%
X2438400Y6578600D03*
X9347200Y4114800D03*
%TD*%
%TA.AperFunction,Conductor*%
%TO.N,GND*%
G36*
X8065500Y9187999D02*
G01*
X8109694Y9169693D01*
X8128000Y9125499D01*
X8128000Y4648200D01*
X8874840Y4650114D01*
X12058969Y4658275D01*
X12071401Y4658307D01*
X12070878Y4854857D01*
X12059502Y9125333D01*
X12077690Y9169575D01*
X12122002Y9187999D01*
X12306653Y9187999D01*
X12350847Y9169693D01*
X12366747Y9142673D01*
X12368286Y9137288D01*
X12368826Y9135272D01*
X12403489Y8996620D01*
X12404973Y8988365D01*
X12411438Y8930182D01*
X12411817Y8922835D01*
X12411768Y8916189D01*
X12412535Y8912739D01*
X12412535Y8912737D01*
X12413484Y8908467D01*
X12414589Y8901816D01*
X12415055Y8897620D01*
X12415057Y8897610D01*
X12415444Y8894129D01*
X12416597Y8890816D01*
X12416598Y8890812D01*
X12417640Y8887817D01*
X12419624Y8880836D01*
X12432047Y8824934D01*
X12432370Y8823109D01*
X12432411Y8820934D01*
X12433268Y8817508D01*
X12433268Y8817505D01*
X12436933Y8802847D01*
X12437311Y8801246D01*
X12441317Y8783217D01*
X12442247Y8781258D01*
X12442778Y8779464D01*
X12456262Y8725528D01*
X12456914Y8722627D01*
X12465284Y8680776D01*
X12471568Y8649353D01*
X12471781Y8647961D01*
X12471768Y8646189D01*
X12472534Y8642744D01*
X12475956Y8627344D01*
X12476231Y8626042D01*
X12479982Y8607284D01*
X12480709Y8605663D01*
X12481071Y8604326D01*
X12482074Y8599812D01*
X12493171Y8549876D01*
X12494348Y8542542D01*
X12500292Y8483113D01*
X12501205Y8473981D01*
X12501220Y8473830D01*
X12501504Y8465822D01*
X12501350Y8460449D01*
X12503169Y8451354D01*
X12504070Y8445332D01*
X12504974Y8436289D01*
X12506704Y8431136D01*
X12508736Y8423515D01*
X12543170Y8251344D01*
X12544068Y8245343D01*
X12550976Y8176265D01*
X12551194Y8168104D01*
X12551235Y8167494D01*
X12551072Y8163967D01*
X12551704Y8160491D01*
X12553143Y8152574D01*
X12553841Y8147616D01*
X12554974Y8136289D01*
X12556090Y8132965D01*
X12556194Y8132483D01*
X12558247Y8124509D01*
X12573141Y8042587D01*
X12573839Y8037627D01*
X12580976Y7966260D01*
X12581194Y7958103D01*
X12581235Y7957494D01*
X12581072Y7953967D01*
X12581704Y7950491D01*
X12583143Y7942574D01*
X12583841Y7937616D01*
X12584974Y7926289D01*
X12586090Y7922966D01*
X12586192Y7922492D01*
X12588247Y7914508D01*
X12602931Y7833746D01*
X12603682Y7828224D01*
X12612523Y7730970D01*
X12612564Y7730503D01*
X12620552Y7634662D01*
X12621166Y7627295D01*
X12621315Y7619217D01*
X12621072Y7613967D01*
X12621704Y7610489D01*
X12621705Y7610481D01*
X12622754Y7604714D01*
X12623547Y7598722D01*
X12624311Y7589548D01*
X12625371Y7586210D01*
X12625372Y7586203D01*
X12625914Y7584497D01*
X12627835Y7576769D01*
X12642754Y7494721D01*
X12643545Y7488739D01*
X12650655Y7403417D01*
X12650655Y7403416D01*
X12660655Y7283417D01*
X12660655Y7283416D01*
X12670655Y7163417D01*
X12670655Y7163416D01*
X12680655Y7043417D01*
X12680655Y7043416D01*
X12692259Y6904179D01*
X12692416Y6902291D01*
X12692448Y6901894D01*
X12700726Y6794275D01*
X12700733Y6793958D01*
X12700655Y6793416D01*
X12700781Y6791905D01*
X12700781Y6791901D01*
X12702422Y6772214D01*
X12702454Y6771816D01*
X12704070Y6750806D01*
X12704231Y6750288D01*
X12704277Y6749953D01*
X12712416Y6652285D01*
X12712447Y6651895D01*
X12712945Y6645430D01*
X12720726Y6544275D01*
X12720733Y6543958D01*
X12720655Y6543416D01*
X12720781Y6541905D01*
X12720781Y6541901D01*
X12722422Y6522214D01*
X12722454Y6521816D01*
X12724070Y6500806D01*
X12724231Y6500288D01*
X12724277Y6499953D01*
X12732419Y6402250D01*
X12732451Y6401854D01*
X12741616Y6282709D01*
X12741800Y6277915D01*
X12741800Y6176724D01*
X12741274Y6169693D01*
X12741220Y6168192D01*
X12740694Y6164697D01*
X12740965Y6161173D01*
X12740965Y6161171D01*
X12741616Y6152711D01*
X12741800Y6147917D01*
X12741800Y6136081D01*
X12742579Y6132663D01*
X12742727Y6131352D01*
X12743806Y6124233D01*
X12754070Y5990806D01*
X12761616Y5892709D01*
X12761800Y5887915D01*
X12761800Y5776724D01*
X12761274Y5769693D01*
X12761220Y5768192D01*
X12760694Y5764697D01*
X12760965Y5761173D01*
X12760965Y5761171D01*
X12761616Y5752711D01*
X12761800Y5747917D01*
X12761800Y5736081D01*
X12762579Y5732663D01*
X12762727Y5731352D01*
X12763806Y5724233D01*
X12771616Y5622709D01*
X12771800Y5617915D01*
X12771800Y5376724D01*
X12771274Y5369693D01*
X12771220Y5368192D01*
X12770694Y5364697D01*
X12770965Y5361173D01*
X12770965Y5361171D01*
X12771616Y5352711D01*
X12771800Y5347917D01*
X12771800Y5336081D01*
X12772579Y5332663D01*
X12772727Y5331352D01*
X12773806Y5324233D01*
X12779778Y5246603D01*
X12781616Y5222710D01*
X12781800Y5217916D01*
X12781800Y4158083D01*
X12781616Y4153292D01*
X12776045Y4080858D01*
X12773825Y4052002D01*
X12772760Y4045030D01*
X12772591Y4043540D01*
X12771800Y4040101D01*
X12771800Y4028083D01*
X12771616Y4023289D01*
X12770708Y4011485D01*
X12771224Y4008012D01*
X12771271Y4006685D01*
X12771800Y3999520D01*
X12771800Y3758083D01*
X12771616Y3753292D01*
X12770618Y3740319D01*
X12764669Y3662976D01*
X12763825Y3652007D01*
X12762759Y3645017D01*
X12762592Y3643543D01*
X12761800Y3640101D01*
X12761800Y3628083D01*
X12761616Y3623289D01*
X12760708Y3611485D01*
X12761224Y3608012D01*
X12761271Y3606685D01*
X12761800Y3599520D01*
X12761800Y3488083D01*
X12761616Y3483292D01*
X12754084Y3385375D01*
X12745877Y3278681D01*
X12743825Y3252002D01*
X12742760Y3245030D01*
X12742591Y3243540D01*
X12741800Y3240101D01*
X12741800Y3228083D01*
X12741616Y3223289D01*
X12740708Y3211485D01*
X12741224Y3208012D01*
X12741271Y3206685D01*
X12741800Y3199520D01*
X12741800Y3098084D01*
X12741616Y3093290D01*
X12732447Y2974093D01*
X12732415Y2973697D01*
X12725678Y2892849D01*
X12724293Y2876234D01*
X12724246Y2875894D01*
X12724084Y2875375D01*
X12723968Y2873864D01*
X12722443Y2854045D01*
X12722411Y2853650D01*
X12720671Y2832766D01*
X12720748Y2832227D01*
X12720740Y2831898D01*
X12712447Y2724093D01*
X12712415Y2723697D01*
X12704704Y2631166D01*
X12704293Y2626234D01*
X12704246Y2625894D01*
X12704084Y2625375D01*
X12703968Y2623864D01*
X12702443Y2604045D01*
X12702411Y2603650D01*
X12700671Y2582766D01*
X12700748Y2582227D01*
X12700740Y2581898D01*
X12692447Y2474093D01*
X12692415Y2473697D01*
X12684327Y2376636D01*
X12684326Y2376634D01*
X12684326Y2376629D01*
X12684325Y2376626D01*
X12674327Y2256637D01*
X12674325Y2256628D01*
X12671160Y2218636D01*
X12670090Y2205799D01*
X12664787Y2142153D01*
X12664327Y2136636D01*
X12664326Y2136634D01*
X12657888Y2059366D01*
X12654327Y2016637D01*
X12654325Y2016628D01*
X12651319Y1980550D01*
X12629406Y1938028D01*
X12583845Y1923456D01*
X12557643Y1931695D01*
X12531729Y1946747D01*
X12486681Y1972913D01*
X12453733Y1980550D01*
X12359286Y2002442D01*
X12359285Y2002442D01*
X12354738Y2003496D01*
X12219636Y1993930D01*
X12215278Y1992244D01*
X12185051Y1980550D01*
X12093319Y1945062D01*
X12046362Y1908044D01*
X11992765Y1865791D01*
X11986955Y1861211D01*
X11984299Y1857368D01*
X11984297Y1857366D01*
X11974913Y1843788D01*
X11909948Y1749792D01*
X11869108Y1620656D01*
X11869071Y1615983D01*
X11869071Y1615981D01*
X11868791Y1580260D01*
X11868044Y1485219D01*
X11869382Y1480746D01*
X11869382Y1480744D01*
X11875900Y1458949D01*
X11906851Y1355458D01*
X11909445Y1351576D01*
X11977328Y1249982D01*
X11982098Y1242843D01*
X11985718Y1239896D01*
X12082783Y1160873D01*
X12087132Y1157332D01*
X12212666Y1106486D01*
X12217317Y1106083D01*
X12217318Y1106083D01*
X12342945Y1095202D01*
X12342947Y1095202D01*
X12347601Y1094799D01*
X12401886Y1106486D01*
X12452609Y1117406D01*
X12499666Y1108812D01*
X12526863Y1069460D01*
X12527049Y1044050D01*
X12509569Y956647D01*
X12508785Y952728D01*
X12506713Y944989D01*
X12504992Y939892D01*
X12504640Y936371D01*
X12504071Y930680D01*
X12503167Y924642D01*
X12502074Y919175D01*
X12501385Y915730D01*
X12501531Y910304D01*
X12501244Y902417D01*
X12500473Y894705D01*
X12494348Y833458D01*
X12493170Y826121D01*
X12481110Y771850D01*
X12480748Y770514D01*
X12480018Y768895D01*
X12479324Y765425D01*
X12479323Y765422D01*
X12476228Y749946D01*
X12475954Y748647D01*
X12471808Y729989D01*
X12471818Y728217D01*
X12471606Y726832D01*
X12456913Y653368D01*
X12456261Y650468D01*
X12452902Y637030D01*
X12442819Y596700D01*
X12442291Y594920D01*
X12441357Y592960D01*
X12438382Y579571D01*
X12437314Y574766D01*
X12436936Y573167D01*
X12433306Y558649D01*
X12433305Y558645D01*
X12432455Y555243D01*
X12432410Y553069D01*
X12432084Y551230D01*
X12430227Y542872D01*
X12430224Y542868D01*
X12430226Y542868D01*
X12429619Y540137D01*
X12419679Y495408D01*
X12417662Y488331D01*
X12415464Y482052D01*
X12415074Y478539D01*
X12415073Y478536D01*
X12414590Y474187D01*
X12413484Y467532D01*
X12411808Y459989D01*
X12411846Y453309D01*
X12411465Y446060D01*
X12404973Y387636D01*
X12403489Y379380D01*
X12368826Y240728D01*
X12368295Y238745D01*
X12366748Y233328D01*
X12337004Y195864D01*
X12306653Y188000D01*
X11293001Y188000D01*
X11248807Y206306D01*
X11230501Y250500D01*
X11238874Y281750D01*
X11257114Y313342D01*
X11257115Y313344D01*
X11259848Y318078D01*
X11279900Y431800D01*
X11259848Y545522D01*
X11256553Y551230D01*
X11204843Y640793D01*
X11202110Y645527D01*
X11113650Y719753D01*
X11005138Y759249D01*
X10889662Y759249D01*
X10781150Y719753D01*
X10776962Y716239D01*
X10755765Y698453D01*
X10710143Y684069D01*
X10671397Y702137D01*
X10595963Y777571D01*
X10485571Y833818D01*
X10363200Y853200D01*
X10240829Y833818D01*
X10130437Y777571D01*
X10130251Y777937D01*
X10086725Y767486D01*
X10062695Y777439D01*
X10062563Y777571D01*
X9952171Y833818D01*
X9829800Y853200D01*
X9707429Y833818D01*
X9597037Y777571D01*
X9509429Y689963D01*
X9453182Y579571D01*
X9447369Y542868D01*
X9436491Y474187D01*
X9433800Y457200D01*
X9453182Y334829D01*
X9455417Y330443D01*
X9481692Y278874D01*
X9485445Y231186D01*
X9454378Y194812D01*
X9426004Y188000D01*
X534152Y188000D01*
X518481Y189997D01*
X509524Y192317D01*
X505993Y192414D01*
X505985Y192415D01*
X453309Y193860D01*
X438846Y195966D01*
X376575Y212652D01*
X361502Y218896D01*
X308895Y249269D01*
X295951Y259201D01*
X253001Y302151D01*
X243068Y315095D01*
X212692Y367708D01*
X206452Y382773D01*
X189764Y445053D01*
X187660Y459508D01*
X186219Y512022D01*
X186218Y512029D01*
X186122Y515531D01*
X183769Y524681D01*
X181800Y540247D01*
X181800Y1244600D01*
X4010900Y1244600D01*
X4030952Y1130878D01*
X4033685Y1126144D01*
X4033686Y1126142D01*
X4051782Y1094799D01*
X4088690Y1030873D01*
X4177150Y956647D01*
X4285662Y917151D01*
X4401138Y917151D01*
X4509650Y956647D01*
X4598110Y1030873D01*
X4635018Y1094799D01*
X4653114Y1126142D01*
X4653115Y1126144D01*
X4655848Y1130878D01*
X4675900Y1244600D01*
X4673781Y1256619D01*
X6457844Y1256619D01*
X6459182Y1252146D01*
X6459182Y1252144D01*
X6461438Y1244600D01*
X6496651Y1126858D01*
X6499245Y1122976D01*
X6543925Y1056108D01*
X6571898Y1014243D01*
X6575518Y1011296D01*
X6659106Y943245D01*
X6676932Y928732D01*
X6802466Y877886D01*
X6807117Y877483D01*
X6807118Y877483D01*
X6932745Y866602D01*
X6932747Y866602D01*
X6937401Y866199D01*
X7003605Y880452D01*
X7065238Y893721D01*
X7065239Y893721D01*
X7069808Y894705D01*
X7150495Y939892D01*
X7183901Y958600D01*
X7183902Y958601D01*
X7187979Y960884D01*
X7231146Y1006134D01*
X7278242Y1055504D01*
X7278243Y1055505D01*
X7281467Y1058885D01*
X7286203Y1068362D01*
X7330658Y1157332D01*
X7342006Y1180043D01*
X7364244Y1313645D01*
X7364300Y1320800D01*
X7359469Y1352937D01*
X7344859Y1450110D01*
X7344164Y1454735D01*
X7291514Y1564378D01*
X7287557Y1572619D01*
X7287556Y1572621D01*
X7285535Y1576829D01*
X7231295Y1635506D01*
X7196769Y1672856D01*
X7196768Y1672857D01*
X7193598Y1676286D01*
X7076481Y1744313D01*
X7052843Y1749792D01*
X6949086Y1773842D01*
X6949085Y1773842D01*
X6944538Y1774896D01*
X6809436Y1765330D01*
X6805078Y1763644D01*
X6696775Y1721745D01*
X6683119Y1716462D01*
X6576755Y1632611D01*
X6574099Y1628768D01*
X6574097Y1628766D01*
X6534898Y1572049D01*
X6499748Y1521192D01*
X6498338Y1516735D01*
X6498338Y1516734D01*
X6489849Y1489892D01*
X6458908Y1392056D01*
X6458871Y1387383D01*
X6458871Y1387381D01*
X6458643Y1358322D01*
X6457844Y1256619D01*
X4673781Y1256619D01*
X4655848Y1358322D01*
X4643267Y1380114D01*
X4600843Y1453593D01*
X4598110Y1458327D01*
X4509650Y1532553D01*
X4429286Y1561804D01*
X4406276Y1570179D01*
X4406275Y1570179D01*
X4401138Y1572049D01*
X4285662Y1572049D01*
X4280525Y1570179D01*
X4280524Y1570179D01*
X4257514Y1561804D01*
X4177150Y1532553D01*
X4088690Y1458327D01*
X4085957Y1453593D01*
X4043534Y1380114D01*
X4030952Y1358322D01*
X4010900Y1244600D01*
X181800Y1244600D01*
X181800Y1854200D01*
X429500Y1854200D01*
X449552Y1740478D01*
X452285Y1735744D01*
X452286Y1735742D01*
X465087Y1713570D01*
X507290Y1640473D01*
X595750Y1566247D01*
X676114Y1536996D01*
X683187Y1534422D01*
X704262Y1526751D01*
X819738Y1526751D01*
X840814Y1534422D01*
X847886Y1536996D01*
X928250Y1566247D01*
X1016710Y1640473D01*
X1058913Y1713570D01*
X1071714Y1735742D01*
X1071715Y1735744D01*
X1074448Y1740478D01*
X1094500Y1854200D01*
X1096957Y1853767D01*
X1111857Y1889738D01*
X1156051Y1908044D01*
X1177427Y1904275D01*
X1237662Y1882351D01*
X1353138Y1882351D01*
X1461650Y1921847D01*
X1550110Y1996073D01*
X1607848Y2096078D01*
X1627900Y2209800D01*
X1607848Y2323522D01*
X1550110Y2423527D01*
X1461650Y2497753D01*
X1353138Y2537249D01*
X1237662Y2537249D01*
X1129150Y2497753D01*
X1040690Y2423527D01*
X982952Y2323522D01*
X962900Y2209800D01*
X960443Y2210233D01*
X945543Y2174262D01*
X901349Y2155956D01*
X879972Y2159725D01*
X824876Y2179779D01*
X824875Y2179779D01*
X819738Y2181649D01*
X704262Y2181649D01*
X595750Y2142153D01*
X507290Y2067927D01*
X504557Y2063193D01*
X452434Y1972913D01*
X449552Y1967922D01*
X429500Y1854200D01*
X181800Y1854200D01*
X181800Y2565400D01*
X5306300Y2565400D01*
X5326352Y2451678D01*
X5345306Y2418849D01*
X5351551Y2371425D01*
X5345309Y2356355D01*
X5326352Y2323522D01*
X5306300Y2209800D01*
X5326352Y2096078D01*
X5384090Y1996073D01*
X5472550Y1921847D01*
X5581062Y1882351D01*
X5696538Y1882351D01*
X5805050Y1921847D01*
X5893510Y1996073D01*
X5951248Y2096078D01*
X5971300Y2209800D01*
X5951248Y2323522D01*
X5932294Y2356351D01*
X5926049Y2403775D01*
X5932291Y2418845D01*
X5951248Y2451678D01*
X5971300Y2565400D01*
X5951248Y2679122D01*
X5943757Y2692098D01*
X5896243Y2774393D01*
X5893510Y2779127D01*
X5805050Y2853353D01*
X5696538Y2892849D01*
X5581062Y2892849D01*
X5472550Y2853353D01*
X5384090Y2779127D01*
X5381357Y2774393D01*
X5333844Y2692098D01*
X5326352Y2679122D01*
X5306300Y2565400D01*
X181800Y2565400D01*
X181800Y3098800D01*
X7516100Y3098800D01*
X7536152Y2985078D01*
X7538885Y2980344D01*
X7538886Y2980342D01*
X7572869Y2921482D01*
X7593890Y2885073D01*
X7682350Y2810847D01*
X7790862Y2771351D01*
X7906338Y2771351D01*
X8014850Y2810847D01*
X8103310Y2885073D01*
X8124331Y2921482D01*
X8158314Y2980342D01*
X8158315Y2980344D01*
X8161048Y2985078D01*
X8181100Y3098800D01*
X8161048Y3212522D01*
X8142280Y3245030D01*
X8106043Y3307793D01*
X8103310Y3312527D01*
X8014850Y3386753D01*
X7929315Y3417886D01*
X7911476Y3424379D01*
X7911475Y3424379D01*
X7906338Y3426249D01*
X7790862Y3426249D01*
X7785725Y3424379D01*
X7785724Y3424379D01*
X7767885Y3417886D01*
X7682350Y3386753D01*
X7593890Y3312527D01*
X7591157Y3307793D01*
X7554921Y3245030D01*
X7536152Y3212522D01*
X7516100Y3098800D01*
X181800Y3098800D01*
X181800Y3604260D01*
X708900Y3604260D01*
X728952Y3490538D01*
X731685Y3485804D01*
X731686Y3485802D01*
X759869Y3436989D01*
X786690Y3390533D01*
X875150Y3316307D01*
X983662Y3276811D01*
X1099138Y3276811D01*
X1207650Y3316307D01*
X1296110Y3390533D01*
X1322931Y3436989D01*
X1351114Y3485802D01*
X1351115Y3485804D01*
X1353848Y3490538D01*
X1373900Y3604260D01*
X1353848Y3717982D01*
X1349997Y3724653D01*
X1298843Y3813253D01*
X1296110Y3817987D01*
X1207650Y3892213D01*
X1099138Y3931709D01*
X983662Y3931709D01*
X875150Y3892213D01*
X786690Y3817987D01*
X783957Y3813253D01*
X732804Y3724653D01*
X728952Y3717982D01*
X708900Y3604260D01*
X181800Y3604260D01*
X181800Y3962400D01*
X5306300Y3962400D01*
X5326352Y3848678D01*
X5329085Y3843944D01*
X5329086Y3843942D01*
X5356244Y3796903D01*
X5384090Y3748673D01*
X5472550Y3674447D01*
X5581062Y3634951D01*
X5696538Y3634951D01*
X5805050Y3674447D01*
X5893510Y3748673D01*
X5921192Y3796619D01*
X6407044Y3796619D01*
X6408382Y3792146D01*
X6408382Y3792144D01*
X6419636Y3754515D01*
X6445851Y3666858D01*
X6448445Y3662976D01*
X6497245Y3589942D01*
X6521098Y3554243D01*
X6524718Y3551296D01*
X6606746Y3484515D01*
X6626132Y3468732D01*
X6751666Y3417886D01*
X6756317Y3417483D01*
X6756318Y3417483D01*
X6881945Y3406602D01*
X6881947Y3406602D01*
X6886601Y3406199D01*
X6952805Y3420452D01*
X7014438Y3433721D01*
X7014439Y3433721D01*
X7019008Y3434705D01*
X7119814Y3491159D01*
X7133101Y3498600D01*
X7133102Y3498601D01*
X7137179Y3500884D01*
X7180346Y3546134D01*
X7227442Y3595504D01*
X7227443Y3595505D01*
X7230667Y3598885D01*
X7233291Y3604135D01*
X7285388Y3708400D01*
X7291206Y3720043D01*
X7313444Y3853645D01*
X7313500Y3860800D01*
X7310059Y3883692D01*
X7294059Y3990110D01*
X7293364Y3994735D01*
X7284497Y4013200D01*
X8532100Y4013200D01*
X8552152Y3899478D01*
X8554885Y3894744D01*
X8554886Y3894742D01*
X8581481Y3848678D01*
X8609890Y3799473D01*
X8637808Y3776047D01*
X8674620Y3745159D01*
X8698350Y3725247D01*
X8806862Y3685751D01*
X8922338Y3685751D01*
X9030850Y3725247D01*
X9054581Y3745159D01*
X9115121Y3795958D01*
X9115122Y3795959D01*
X9119310Y3799473D01*
X9122043Y3804207D01*
X9122249Y3804452D01*
X9164681Y3826537D01*
X9191502Y3823006D01*
X9284323Y3789221D01*
X9284326Y3789221D01*
X9289462Y3787351D01*
X9404938Y3787351D01*
X9418107Y3792144D01*
X9451248Y3804207D01*
X9513450Y3826847D01*
X9530755Y3841367D01*
X9576375Y3855752D01*
X9611102Y3841368D01*
X9688950Y3776047D01*
X9751152Y3753407D01*
X9787110Y3740319D01*
X9797462Y3736551D01*
X9912938Y3736551D01*
X9923291Y3740319D01*
X9948940Y3749655D01*
X9996730Y3747568D01*
X10029048Y3712301D01*
X10031867Y3701779D01*
X10050752Y3594678D01*
X10108490Y3494673D01*
X10137514Y3470319D01*
X10181131Y3433721D01*
X10196950Y3420447D01*
X10266130Y3395267D01*
X10284387Y3388622D01*
X10305462Y3380951D01*
X10420938Y3380951D01*
X10442014Y3388622D01*
X10460270Y3395267D01*
X10529450Y3420447D01*
X10545270Y3433721D01*
X10588886Y3470319D01*
X10617910Y3494673D01*
X10675648Y3594678D01*
X10695700Y3708400D01*
X10675648Y3822122D01*
X10670892Y3830361D01*
X10620643Y3917393D01*
X10617910Y3922127D01*
X10563500Y3967782D01*
X10533638Y3992839D01*
X10529450Y3996353D01*
X10448874Y4025681D01*
X10426076Y4033979D01*
X10426075Y4033979D01*
X10420938Y4035849D01*
X10305462Y4035849D01*
X10300325Y4033979D01*
X10300324Y4033979D01*
X10279483Y4026393D01*
X10269460Y4022745D01*
X10221670Y4024832D01*
X10189352Y4060099D01*
X10186532Y4070623D01*
X10186512Y4070737D01*
X10167648Y4177722D01*
X10147364Y4212856D01*
X10122187Y4256462D01*
X10109910Y4277727D01*
X10038756Y4337432D01*
X10025638Y4348439D01*
X10021450Y4351953D01*
X9912938Y4391449D01*
X9797462Y4391449D01*
X9688950Y4351953D01*
X9675479Y4340649D01*
X9671646Y4337433D01*
X9626025Y4323048D01*
X9591297Y4337432D01*
X9578180Y4348439D01*
X9513450Y4402753D01*
X9404938Y4442249D01*
X9289462Y4442249D01*
X9180950Y4402753D01*
X9092490Y4328527D01*
X9089757Y4323794D01*
X9089551Y4323548D01*
X9047119Y4301463D01*
X9020298Y4304994D01*
X8927477Y4338779D01*
X8927474Y4338779D01*
X8922338Y4340649D01*
X8806862Y4340649D01*
X8801725Y4338779D01*
X8801724Y4338779D01*
X8783215Y4332042D01*
X8698350Y4301153D01*
X8694162Y4297639D01*
X8664790Y4272993D01*
X8609890Y4226927D01*
X8601766Y4212856D01*
X8559887Y4140319D01*
X8552152Y4126922D01*
X8532100Y4013200D01*
X7284497Y4013200D01*
X7234735Y4116829D01*
X7142798Y4216286D01*
X7132629Y4222193D01*
X7070729Y4258147D01*
X7025681Y4284313D01*
X7009865Y4287979D01*
X6898286Y4313842D01*
X6898285Y4313842D01*
X6893738Y4314896D01*
X6758636Y4305330D01*
X6632319Y4256462D01*
X6525955Y4172611D01*
X6523299Y4168768D01*
X6523297Y4168766D01*
X6467618Y4088205D01*
X6448948Y4061192D01*
X6447538Y4056735D01*
X6447538Y4056734D01*
X6440933Y4035849D01*
X6408108Y3932056D01*
X6408071Y3927383D01*
X6408071Y3927381D01*
X6408030Y3922127D01*
X6407044Y3796619D01*
X5921192Y3796619D01*
X5921356Y3796903D01*
X5948514Y3843942D01*
X5948515Y3843944D01*
X5951248Y3848678D01*
X5971300Y3962400D01*
X5951248Y4076122D01*
X5930177Y4112619D01*
X5896243Y4171393D01*
X5893510Y4176127D01*
X5832968Y4226927D01*
X5809238Y4246839D01*
X5805050Y4250353D01*
X5696538Y4289849D01*
X5581062Y4289849D01*
X5472550Y4250353D01*
X5468362Y4246839D01*
X5444632Y4226927D01*
X5384090Y4176127D01*
X5381357Y4171393D01*
X5347424Y4112619D01*
X5326352Y4076122D01*
X5306300Y3962400D01*
X181800Y3962400D01*
X181800Y4817538D01*
X200106Y4861732D01*
X244300Y4880038D01*
X246174Y4879874D01*
X247062Y4879551D01*
X362538Y4879551D01*
X397320Y4892211D01*
X445110Y4890124D01*
X477428Y4854857D01*
X475341Y4807067D01*
X472823Y4802230D01*
X452288Y4766662D01*
X452287Y4766659D01*
X449552Y4761922D01*
X429500Y4648200D01*
X449552Y4534478D01*
X507290Y4434473D01*
X595750Y4360247D01*
X704262Y4320751D01*
X819738Y4320751D01*
X928250Y4360247D01*
X1016710Y4434473D01*
X1074448Y4534478D01*
X1094500Y4648200D01*
X1074448Y4761922D01*
X1071712Y4766662D01*
X1019443Y4857193D01*
X1016710Y4861927D01*
X928250Y4936153D01*
X819738Y4975649D01*
X704262Y4975649D01*
X669480Y4962989D01*
X621690Y4965076D01*
X589372Y5000343D01*
X591459Y5048133D01*
X593977Y5052970D01*
X614512Y5088538D01*
X614513Y5088541D01*
X617248Y5093278D01*
X637300Y5207000D01*
X617248Y5320722D01*
X614471Y5325533D01*
X561633Y5417050D01*
X555390Y5464476D01*
X561633Y5479550D01*
X614514Y5571142D01*
X614515Y5571144D01*
X617248Y5575878D01*
X637300Y5689600D01*
X623864Y5765800D01*
X2969500Y5765800D01*
X2989552Y5652078D01*
X2992285Y5647344D01*
X2992286Y5647342D01*
X3023168Y5593853D01*
X3047290Y5552073D01*
X3135750Y5477847D01*
X3244262Y5438351D01*
X3329811Y5438351D01*
X3374005Y5420045D01*
X3383932Y5407108D01*
X3402890Y5374273D01*
X3407078Y5370759D01*
X3407080Y5370757D01*
X3461066Y5325458D01*
X3491350Y5300047D01*
X3599862Y5260551D01*
X3715338Y5260551D01*
X3823850Y5300047D01*
X3912310Y5374273D01*
X3959073Y5455269D01*
X3997024Y5484389D01*
X4044450Y5478146D01*
X4067327Y5455269D01*
X4114090Y5374273D01*
X4202550Y5300047D01*
X4311062Y5260551D01*
X4426538Y5260551D01*
X4535050Y5300047D01*
X4623510Y5374273D01*
X4665236Y5446544D01*
X4678514Y5469542D01*
X4678515Y5469544D01*
X4681248Y5474278D01*
X4701300Y5588000D01*
X4681248Y5701722D01*
X4662536Y5734133D01*
X4640082Y5773024D01*
X4623510Y5801727D01*
X4535050Y5875953D01*
X4426538Y5915449D01*
X4365988Y5915449D01*
X4321794Y5933755D01*
X4303488Y5977949D01*
X4311862Y6009200D01*
X4322913Y6028341D01*
X4325648Y6033078D01*
X4345700Y6146800D01*
X4343581Y6158819D01*
X6076844Y6158819D01*
X6078182Y6154346D01*
X6078182Y6154344D01*
X6087187Y6124233D01*
X6115651Y6029058D01*
X6118245Y6025176D01*
X6185967Y5923823D01*
X6190898Y5916443D01*
X6295932Y5830932D01*
X6421466Y5780086D01*
X6426117Y5779683D01*
X6426118Y5779683D01*
X6551745Y5768802D01*
X6551747Y5768802D01*
X6556401Y5768399D01*
X6622604Y5782652D01*
X6684238Y5795921D01*
X6684239Y5795921D01*
X6688808Y5796905D01*
X6754830Y5833879D01*
X6802901Y5860800D01*
X6802902Y5860801D01*
X6806979Y5863084D01*
X6850146Y5908334D01*
X6897242Y5957704D01*
X6897243Y5957705D01*
X6900467Y5961085D01*
X6907317Y5974793D01*
X6943049Y6046305D01*
X6961006Y6082243D01*
X6983244Y6215845D01*
X6983300Y6223000D01*
X6981789Y6233055D01*
X6973130Y6290647D01*
X6963164Y6356935D01*
X6924899Y6436622D01*
X6906557Y6474819D01*
X6906556Y6474821D01*
X6904535Y6479029D01*
X6818430Y6572177D01*
X6815769Y6575056D01*
X6815768Y6575057D01*
X6812598Y6578486D01*
X6799027Y6586369D01*
X6707038Y6639800D01*
X6695481Y6646513D01*
X6670579Y6652285D01*
X6568086Y6676042D01*
X6568085Y6676042D01*
X6563538Y6677096D01*
X6428436Y6667530D01*
X6408306Y6659742D01*
X6359431Y6640834D01*
X6302119Y6618662D01*
X6271820Y6594776D01*
X6204749Y6541901D01*
X6195755Y6534811D01*
X6193099Y6530968D01*
X6193097Y6530966D01*
X6153898Y6474249D01*
X6118748Y6423392D01*
X6077908Y6294256D01*
X6077871Y6289583D01*
X6077871Y6289581D01*
X6077448Y6235664D01*
X6076844Y6158819D01*
X4343581Y6158819D01*
X4325648Y6260522D01*
X4318657Y6272632D01*
X4270643Y6355793D01*
X4267910Y6360527D01*
X4179450Y6434753D01*
X4070938Y6474249D01*
X3955462Y6474249D01*
X3846950Y6434753D01*
X3758490Y6360527D01*
X3755757Y6355793D01*
X3707744Y6272632D01*
X3700752Y6260522D01*
X3680700Y6146800D01*
X3700752Y6033078D01*
X3703487Y6028341D01*
X3714538Y6009200D01*
X3720783Y5961774D01*
X3691663Y5923823D01*
X3660412Y5915449D01*
X3629789Y5915449D01*
X3585595Y5933755D01*
X3575668Y5946692D01*
X3556710Y5979527D01*
X3542755Y5991237D01*
X3472438Y6050239D01*
X3468250Y6053753D01*
X3379349Y6086111D01*
X3364876Y6091379D01*
X3364875Y6091379D01*
X3359738Y6093249D01*
X3244262Y6093249D01*
X3239125Y6091379D01*
X3239124Y6091379D01*
X3224651Y6086111D01*
X3135750Y6053753D01*
X3047290Y5979527D01*
X3030431Y5950327D01*
X2994398Y5887915D01*
X2989552Y5879522D01*
X2969500Y5765800D01*
X623864Y5765800D01*
X617248Y5803322D01*
X602320Y5829179D01*
X570698Y5883948D01*
X559510Y5903327D01*
X489855Y5961774D01*
X477761Y5971922D01*
X455673Y6014353D01*
X470057Y6059974D01*
X477761Y6067678D01*
X555322Y6132759D01*
X559510Y6136273D01*
X582864Y6176724D01*
X614514Y6231542D01*
X614515Y6231544D01*
X617248Y6236278D01*
X637300Y6350000D01*
X617248Y6463722D01*
X614513Y6468459D01*
X614512Y6468462D01*
X568966Y6547350D01*
X564852Y6578600D01*
X2105900Y6578600D01*
X2125952Y6464878D01*
X2128685Y6460144D01*
X2128686Y6460142D01*
X2147683Y6427239D01*
X2183690Y6364873D01*
X2272150Y6290647D01*
X2380662Y6251151D01*
X2496138Y6251151D01*
X2604650Y6290647D01*
X2693110Y6364873D01*
X2729117Y6427239D01*
X2748114Y6460142D01*
X2748115Y6460144D01*
X2750848Y6464878D01*
X2770900Y6578600D01*
X2750848Y6692322D01*
X2743417Y6705194D01*
X2697687Y6784399D01*
X2693110Y6792327D01*
X2604650Y6866553D01*
X2496138Y6906049D01*
X2380662Y6906049D01*
X2272150Y6866553D01*
X2183690Y6792327D01*
X2179113Y6784399D01*
X2133384Y6705194D01*
X2125952Y6692322D01*
X2105900Y6578600D01*
X564852Y6578600D01*
X562722Y6594776D01*
X568966Y6609850D01*
X614512Y6688738D01*
X614513Y6688741D01*
X617248Y6693478D01*
X637300Y6807200D01*
X617248Y6920922D01*
X610597Y6932443D01*
X562243Y7016193D01*
X559510Y7020927D01*
X471050Y7095153D01*
X362538Y7134649D01*
X247062Y7134649D01*
X247062Y7136905D01*
X208451Y7145465D01*
X189750Y7174819D01*
X3181244Y7174819D01*
X3220051Y7045058D01*
X3222645Y7041176D01*
X3279697Y6955792D01*
X3295298Y6932443D01*
X3298918Y6929496D01*
X3380548Y6863039D01*
X3400332Y6846932D01*
X3525866Y6796086D01*
X3530517Y6795683D01*
X3530518Y6795683D01*
X3656145Y6784802D01*
X3656147Y6784802D01*
X3660801Y6784399D01*
X3766709Y6807200D01*
X3788638Y6811921D01*
X3788639Y6811921D01*
X3793208Y6812905D01*
X3882729Y6863039D01*
X3907301Y6876800D01*
X3907302Y6876801D01*
X3911379Y6879084D01*
X3955808Y6925658D01*
X4001642Y6973704D01*
X4001643Y6973705D01*
X4004867Y6977085D01*
X4065406Y7098243D01*
X4087644Y7231845D01*
X4087700Y7239000D01*
X4067564Y7372935D01*
X4008935Y7495029D01*
X3943968Y7565310D01*
X3920169Y7591056D01*
X3920168Y7591057D01*
X3916998Y7594486D01*
X3909711Y7598719D01*
X3844929Y7636347D01*
X3799881Y7662513D01*
X3795334Y7663567D01*
X3672486Y7692042D01*
X3672485Y7692042D01*
X3667938Y7693096D01*
X3532836Y7683530D01*
X3406519Y7634662D01*
X3360926Y7598719D01*
X3307311Y7556452D01*
X3300155Y7550811D01*
X3297499Y7546968D01*
X3297497Y7546966D01*
X3257248Y7488730D01*
X3223148Y7439392D01*
X3182308Y7310256D01*
X3181244Y7174819D01*
X189750Y7174819D01*
X182749Y7185809D01*
X181800Y7196662D01*
X181800Y8343219D01*
X1631844Y8343219D01*
X1633182Y8338746D01*
X1633182Y8338744D01*
X1648726Y8286770D01*
X1670651Y8213458D01*
X1673245Y8209576D01*
X1739973Y8109711D01*
X1745898Y8100843D01*
X1850932Y8015332D01*
X1976466Y7964486D01*
X1981120Y7964083D01*
X1981124Y7964082D01*
X1982239Y7963985D01*
X1982851Y7963667D01*
X1985663Y7962992D01*
X1985495Y7962293D01*
X2024687Y7941931D01*
X2039107Y7896321D01*
X2017053Y7853873D01*
X1998217Y7842988D01*
X1967350Y7831753D01*
X1878890Y7757527D01*
X1876157Y7752793D01*
X1824034Y7662513D01*
X1821152Y7657522D01*
X1801100Y7543800D01*
X1821152Y7430078D01*
X1878890Y7330073D01*
X1967350Y7255847D01*
X2075862Y7216351D01*
X2191338Y7216351D01*
X2299850Y7255847D01*
X2388310Y7330073D01*
X2446048Y7430078D01*
X2466100Y7543800D01*
X2446048Y7657522D01*
X2443167Y7662513D01*
X2391043Y7752793D01*
X2388310Y7757527D01*
X2299850Y7831753D01*
X2224658Y7859121D01*
X2189391Y7891439D01*
X2187304Y7939229D01*
X2219622Y7974496D01*
X2232878Y7978951D01*
X2239235Y7980320D01*
X2239238Y7980321D01*
X2243808Y7981305D01*
X2361979Y8047484D01*
X2408149Y8095883D01*
X2452242Y8142104D01*
X2452243Y8142105D01*
X2455467Y8145485D01*
X2459010Y8152574D01*
X2506874Y8248367D01*
X2516006Y8266643D01*
X2538244Y8400245D01*
X2538300Y8407400D01*
X2518164Y8541335D01*
X2485306Y8609762D01*
X2461557Y8659219D01*
X2461556Y8659221D01*
X2459535Y8663429D01*
X2367598Y8762886D01*
X2250481Y8830913D01*
X2193969Y8844012D01*
X2123086Y8860442D01*
X2123085Y8860442D01*
X2118538Y8861496D01*
X1983436Y8851930D01*
X1979078Y8850244D01*
X1879967Y8811901D01*
X1857119Y8803062D01*
X1750755Y8719211D01*
X1748099Y8715368D01*
X1748097Y8715366D01*
X1700286Y8646189D01*
X1673748Y8607792D01*
X1632908Y8478656D01*
X1632871Y8473983D01*
X1632871Y8473981D01*
X1632575Y8436289D01*
X1631844Y8343219D01*
X181800Y8343219D01*
X181800Y8835649D01*
X183797Y8851320D01*
X185230Y8856854D01*
X186117Y8860277D01*
X186214Y8863808D01*
X186215Y8863816D01*
X187660Y8916491D01*
X189766Y8930954D01*
X206452Y8993225D01*
X212693Y9008293D01*
X243070Y9060908D01*
X253000Y9073848D01*
X295953Y9116801D01*
X308892Y9126730D01*
X361512Y9157110D01*
X376577Y9163349D01*
X399811Y9169575D01*
X438845Y9180034D01*
X453307Y9182140D01*
X505823Y9183581D01*
X505830Y9183582D01*
X509332Y9183678D01*
X512722Y9184550D01*
X512724Y9184550D01*
X518482Y9186031D01*
X534048Y9188000D01*
X5305765Y9188000D01*
X8065500Y9187999D01*
G37*
%TD.AperFunction*%
%TD*%
M02*
