%TF.GenerationSoftware,KiCad,Pcbnew,(5.99.0-8645-g8b3dea7107)*%
%TF.CreationDate,2021-02-16T19:13:28-08:00*%
%TF.ProjectId,femu,66656d75-2e6b-4696-9361-645f70636258,rev?*%
%TF.SameCoordinates,Original*%
%TF.FileFunction,Copper,L3,Inr*%
%TF.FilePolarity,Positive*%
%FSLAX46Y46*%
G04 Gerber Fmt 4.6, Leading zero omitted, Abs format (unit mm)*
G04 Created by KiCad (PCBNEW (5.99.0-8645-g8b3dea7107)) date 2021-02-16 19:13:28*
%MOMM*%
%LPD*%
G01*
G04 APERTURE LIST*
%TA.AperFunction,ViaPad*%
%ADD10C,0.254000*%
%TD*%
%TA.AperFunction,ViaPad*%
%ADD11C,0.800000*%
%TD*%
%TA.AperFunction,ViaPad*%
%ADD12C,0.500000*%
%TD*%
%TA.AperFunction,ViaPad*%
%ADD13C,0.381000*%
%TD*%
%TA.AperFunction,Conductor*%
%ADD14C,0.127000*%
%TD*%
%TA.AperFunction,Conductor*%
%ADD15C,0.254000*%
%TD*%
%TA.AperFunction,Conductor*%
%ADD16C,0.200000*%
%TD*%
G04 APERTURE END LIST*
D10*
%TO.N,Net-(U1-Pad45)*%
X129209800Y-94056200D03*
X132715000Y-97637600D03*
D11*
%TO.N,GND*%
X130048000Y-99644200D03*
X130962400Y-99644200D03*
X131876800Y-99644200D03*
D12*
X139039600Y-101269800D03*
D11*
X129133600Y-99644200D03*
D12*
%TO.N,+5V*%
X139395200Y-100050600D03*
D10*
%TO.N,Net-(C6-Pad1)*%
X135940800Y-97586800D03*
X138023600Y-101168200D03*
D12*
%TO.N,+3V3*%
X129159000Y-93192600D03*
X133604000Y-95377000D03*
X130708400Y-94361000D03*
X133985000Y-100279200D03*
D10*
X128117600Y-97995740D03*
D12*
X133934200Y-97739200D03*
D13*
%TO.N,/USB-*%
X137439400Y-101142800D03*
%TO.N,/USB+*%
X136906000Y-101142800D03*
D10*
%TO.N,Net-(C1-Pad2)*%
X130733800Y-96012000D03*
X127381000Y-94792800D03*
%TO.N,Net-(C1-Pad1)*%
X127381000Y-95250000D03*
X130378200Y-95834200D03*
%TO.N,Net-(C20-Pad2)*%
X127381000Y-95910400D03*
X131089400Y-95453200D03*
%TO.N,Net-(C20-Pad1)*%
X131445000Y-96012000D03*
X127381000Y-96393000D03*
%TO.N,/IO5_B*%
X131419600Y-100355400D03*
%TO.N,/IO4_G*%
X127838200Y-99745800D03*
%TO.N,/IO27_R*%
X127838200Y-96951800D03*
X138201400Y-98602800D03*
%TO.N,/UART+*%
X134924800Y-98501200D03*
X132715000Y-99034600D03*
%TO.N,/UART-*%
X137439400Y-97891600D03*
X132715000Y-99390200D03*
%TO.N,/BOOT_DTR*%
X136931400Y-97536000D03*
X128371600Y-99390200D03*
%TO.N,/EN_RTS*%
X129514600Y-95021400D03*
X136423400Y-97485200D03*
%TD*%
D14*
%TO.N,Net-(C1-Pad2)*%
X128473200Y-94792800D02*
X129108200Y-95427800D01*
X130556000Y-95427800D02*
X130733800Y-95605600D01*
X127381000Y-94792800D02*
X128473200Y-94792800D01*
X129108200Y-95427800D02*
X130556000Y-95427800D01*
X130733800Y-95605600D02*
X130733800Y-96012000D01*
%TO.N,Net-(C1-Pad1)*%
X127381000Y-95250000D02*
X128346200Y-95250000D01*
X128346200Y-95250000D02*
X128930400Y-95834200D01*
X128930400Y-95834200D02*
X130378200Y-95834200D01*
D15*
%TO.N,/IO27_R*%
X138201400Y-99314000D02*
X137312400Y-100203000D01*
X134442200Y-100812600D02*
X127965200Y-100812600D01*
X127406400Y-100253800D02*
X127406400Y-97383600D01*
X138201400Y-98602800D02*
X138201400Y-99314000D01*
X127965200Y-100812600D02*
X127406400Y-100253800D01*
X137312400Y-100203000D02*
X135051800Y-100203000D01*
X135051800Y-100203000D02*
X134442200Y-100812600D01*
X127406400Y-97383600D02*
X127838200Y-96951800D01*
D16*
%TO.N,/UART+*%
X132715000Y-99034600D02*
X132762200Y-98987400D01*
X135890000Y-98501200D02*
X134924800Y-98501200D01*
X136118600Y-98729800D02*
X135890000Y-98501200D01*
X132762200Y-98987400D02*
X135861000Y-98987400D01*
X135861000Y-98987400D02*
X136118600Y-98729800D01*
%TO.N,/UART-*%
X137744200Y-98196400D02*
X137439400Y-97891600D01*
X137744200Y-99060000D02*
X137744200Y-98196400D01*
X137366800Y-99437400D02*
X137744200Y-99060000D01*
X132762200Y-99437400D02*
X137366800Y-99437400D01*
X132715000Y-99390200D02*
X132762200Y-99437400D01*
D15*
%TO.N,/BOOT_DTR*%
X128371600Y-99060000D02*
X128371600Y-99390200D01*
X136931400Y-97536000D02*
X136372600Y-98094800D01*
X134264400Y-98094800D02*
X133858000Y-98501200D01*
X128930400Y-98501200D02*
X128371600Y-99060000D01*
X133858000Y-98501200D02*
X128930400Y-98501200D01*
X136372600Y-98094800D02*
X134264400Y-98094800D01*
%TO.N,/EN_RTS*%
X132562600Y-97205800D02*
X131953000Y-96596200D01*
X136423400Y-97485200D02*
X136144000Y-97205800D01*
X131953000Y-95250000D02*
X131724400Y-95021400D01*
X131953000Y-96596200D02*
X131953000Y-95250000D01*
X131724400Y-95021400D02*
X129514600Y-95021400D01*
X136144000Y-97205800D02*
X132562600Y-97205800D01*
%TD*%
M02*
