%TF.GenerationSoftware,KiCad,Pcbnew,(5.99.0-8645-g8b3dea7107)*%
%TF.CreationDate,2021-02-16T19:13:28-08:00*%
%TF.ProjectId,femu,66656d75-2e6b-4696-9361-645f70636258,rev?*%
%TF.SameCoordinates,Original*%
%TF.FileFunction,Copper,L1,Top*%
%TF.FilePolarity,Positive*%
%FSLAX46Y46*%
G04 Gerber Fmt 4.6, Leading zero omitted, Abs format (unit mm)*
G04 Created by KiCad (PCBNEW (5.99.0-8645-g8b3dea7107)) date 2021-02-16 19:13:28*
%MOMM*%
%LPD*%
G01*
G04 APERTURE LIST*
G04 Aperture macros list*
%AMRoundRect*
0 Rectangle with rounded corners*
0 $1 Rounding radius*
0 $2 $3 $4 $5 $6 $7 $8 $9 X,Y pos of 4 corners*
0 Add a 4 corners polygon primitive as box body*
4,1,4,$2,$3,$4,$5,$6,$7,$8,$9,$2,$3,0*
0 Add four circle primitives for the rounded corners*
1,1,$1+$1,$2,$3*
1,1,$1+$1,$4,$5*
1,1,$1+$1,$6,$7*
1,1,$1+$1,$8,$9*
0 Add four rect primitives between the rounded corners*
20,1,$1+$1,$2,$3,$4,$5,0*
20,1,$1+$1,$4,$5,$6,$7,0*
20,1,$1+$1,$6,$7,$8,$9,0*
20,1,$1+$1,$8,$9,$2,$3,0*%
G04 Aperture macros list end*
%TA.AperFunction,SMDPad,CuDef*%
%ADD10RoundRect,0.062500X-0.250000X-0.062500X0.250000X-0.062500X0.250000X0.062500X-0.250000X0.062500X0*%
%TD*%
%TA.AperFunction,SMDPad,CuDef*%
%ADD11RoundRect,0.062500X-0.062500X-0.200000X0.062500X-0.200000X0.062500X0.200000X-0.062500X0.200000X0*%
%TD*%
%TA.AperFunction,SMDPad,CuDef*%
%ADD12RoundRect,0.062500X-0.062500X-0.250000X0.062500X-0.250000X0.062500X0.250000X-0.062500X0.250000X0*%
%TD*%
%TA.AperFunction,SMDPad,CuDef*%
%ADD13RoundRect,0.250000X-1.000000X-1.000000X1.000000X-1.000000X1.000000X1.000000X-1.000000X1.000000X0*%
%TD*%
%TA.AperFunction,SMDPad,CuDef*%
%ADD14RoundRect,0.100000X-0.100000X0.130000X-0.100000X-0.130000X0.100000X-0.130000X0.100000X0.130000X0*%
%TD*%
%TA.AperFunction,SMDPad,CuDef*%
%ADD15RoundRect,0.100000X0.100000X-0.130000X0.100000X0.130000X-0.100000X0.130000X-0.100000X-0.130000X0*%
%TD*%
%TA.AperFunction,SMDPad,CuDef*%
%ADD16R,0.800000X0.650000*%
%TD*%
%TA.AperFunction,SMDPad,CuDef*%
%ADD17R,0.800000X1.600000*%
%TD*%
%TA.AperFunction,SMDPad,CuDef*%
%ADD18R,0.200000X0.810000*%
%TD*%
%TA.AperFunction,SMDPad,CuDef*%
%ADD19R,0.810000X0.200000*%
%TD*%
%TA.AperFunction,SMDPad,CuDef*%
%ADD20R,3.700000X3.700000*%
%TD*%
%TA.AperFunction,SMDPad,CuDef*%
%ADD21RoundRect,0.100000X-0.130000X-0.100000X0.130000X-0.100000X0.130000X0.100000X-0.130000X0.100000X0*%
%TD*%
%TA.AperFunction,SMDPad,CuDef*%
%ADD22RoundRect,0.091500X-0.108500X0.091500X-0.108500X-0.091500X0.108500X-0.091500X0.108500X0.091500X0*%
%TD*%
%TA.AperFunction,SMDPad,CuDef*%
%ADD23RoundRect,0.100000X-0.100000X0.100000X-0.100000X-0.100000X0.100000X-0.100000X0.100000X0.100000X0*%
%TD*%
%TA.AperFunction,SMDPad,CuDef*%
%ADD24RoundRect,0.075000X-0.125000X-0.075000X0.125000X-0.075000X0.125000X0.075000X-0.125000X0.075000X0*%
%TD*%
%TA.AperFunction,SMDPad,CuDef*%
%ADD25RoundRect,0.100000X0.130000X0.100000X-0.130000X0.100000X-0.130000X-0.100000X0.130000X-0.100000X0*%
%TD*%
%TA.AperFunction,SMDPad,CuDef*%
%ADD26RoundRect,0.075000X0.075000X-0.125000X0.075000X0.125000X-0.075000X0.125000X-0.075000X-0.125000X0*%
%TD*%
%TA.AperFunction,SMDPad,CuDef*%
%ADD27RoundRect,0.100000X0.021213X0.162635X-0.162635X-0.021213X-0.021213X-0.162635X0.162635X0.021213X0*%
%TD*%
%TA.AperFunction,SMDPad,CuDef*%
%ADD28R,0.700000X0.800000*%
%TD*%
%TA.AperFunction,SMDPad,CuDef*%
%ADD29RoundRect,0.075000X0.125000X0.075000X-0.125000X0.075000X-0.125000X-0.075000X0.125000X-0.075000X0*%
%TD*%
%TA.AperFunction,SMDPad,CuDef*%
%ADD30RoundRect,0.147500X-0.172500X0.147500X-0.172500X-0.147500X0.172500X-0.147500X0.172500X0.147500X0*%
%TD*%
%TA.AperFunction,SMDPad,CuDef*%
%ADD31RoundRect,0.075000X-0.075000X0.125000X-0.075000X-0.125000X0.075000X-0.125000X0.075000X0.125000X0*%
%TD*%
%TA.AperFunction,ViaPad*%
%ADD32C,0.254000*%
%TD*%
%TA.AperFunction,ViaPad*%
%ADD33C,0.800000*%
%TD*%
%TA.AperFunction,ViaPad*%
%ADD34C,0.200000*%
%TD*%
%TA.AperFunction,ViaPad*%
%ADD35C,0.500000*%
%TD*%
%TA.AperFunction,ViaPad*%
%ADD36C,0.381000*%
%TD*%
%TA.AperFunction,Conductor*%
%ADD37C,0.127000*%
%TD*%
%TA.AperFunction,Conductor*%
%ADD38C,0.213000*%
%TD*%
%TA.AperFunction,Conductor*%
%ADD39C,0.305000*%
%TD*%
%TA.AperFunction,Conductor*%
%ADD40C,0.254000*%
%TD*%
%TA.AperFunction,Conductor*%
%ADD41C,0.508000*%
%TD*%
G04 APERTURE END LIST*
D10*
%TO.P,U2,1*%
%TO.N,/UART+*%
X135093900Y-98491800D03*
%TO.P,U2,2*%
%TO.N,Net-(U2-Pad2)*%
X135093900Y-98991800D03*
%TO.P,U2,3*%
%TO.N,GND*%
X135093900Y-99491800D03*
%TO.P,U2,4*%
%TO.N,Net-(U2-Pad4)*%
X135093900Y-99991800D03*
%TO.P,U2,5*%
%TO.N,Net-(U2-Pad5)*%
X135093900Y-100491800D03*
D11*
%TO.P,U2,6*%
%TO.N,Net-(U2-Pad6)*%
X135931400Y-101279300D03*
%TO.P,U2,7*%
%TO.N,Net-(U2-Pad7)*%
X136431400Y-101279300D03*
%TO.P,U2,8*%
%TO.N,/USB+*%
X136931400Y-101279300D03*
%TO.P,U2,9*%
%TO.N,/USB-*%
X137431400Y-101279300D03*
%TO.P,U2,10*%
%TO.N,Net-(C6-Pad1)*%
X137931400Y-101279300D03*
D10*
%TO.P,U2,11*%
X138768900Y-100491800D03*
%TO.P,U2,12*%
%TO.N,+5V*%
X138768900Y-99991800D03*
%TO.P,U2,13*%
%TO.N,GND*%
X138768900Y-99491800D03*
%TO.P,U2,14*%
%TO.N,Net-(U2-Pad14)*%
X138768900Y-98991800D03*
%TO.P,U2,15*%
%TO.N,Net-(U2-Pad15)*%
X138768900Y-98491800D03*
D12*
%TO.P,U2,16*%
%TO.N,Net-(U2-Pad16)*%
X137931400Y-97654300D03*
%TO.P,U2,17*%
%TO.N,/UART-*%
X137431400Y-97654300D03*
%TO.P,U2,18*%
%TO.N,/BOOT_DTR*%
X136931400Y-97654300D03*
%TO.P,U2,19*%
%TO.N,/EN_RTS*%
X136431400Y-97654300D03*
%TO.P,U2,20*%
%TO.N,Net-(C6-Pad1)*%
X135931400Y-97654300D03*
D13*
%TO.P,U2,21*%
%TO.N,GND*%
X136931400Y-99491800D03*
%TD*%
D14*
%TO.P,C4,1*%
%TO.N,GND*%
X139395200Y-99349600D03*
%TO.P,C4,2*%
%TO.N,+5V*%
X139395200Y-99989600D03*
%TD*%
D15*
%TO.P,C5,1*%
%TO.N,GND*%
X139395200Y-101259600D03*
%TO.P,C5,2*%
%TO.N,+5V*%
X139395200Y-100619600D03*
%TD*%
D16*
%TO.P,ANT1,FEED*%
%TO.N,Net-(ANT1-PadFEED)*%
X135560000Y-94150200D03*
%TO.P,ANT1,G1*%
%TO.N,GND*%
X135560000Y-93200200D03*
D17*
%TO.P,ANT1,G2*%
X138760000Y-93675200D03*
%TD*%
D14*
%TO.P,C12,1*%
%TO.N,+3V3*%
X127406400Y-93406000D03*
%TO.P,C12,2*%
%TO.N,GND*%
X127406400Y-94046000D03*
%TD*%
D18*
%TO.P,U1,1*%
%TO.N,+3V3*%
X132831000Y-95726000D03*
%TO.P,U1,2*%
%TO.N,Net-(C3-Pad1)*%
X132481000Y-95726000D03*
%TO.P,U1,3*%
%TO.N,Net-(C26-Pad2)*%
X132131000Y-95726000D03*
%TO.P,U1,4*%
X131781000Y-95726000D03*
%TO.P,U1,5*%
%TO.N,Net-(C20-Pad1)*%
X131431000Y-95726000D03*
%TO.P,U1,6*%
%TO.N,Net-(C20-Pad2)*%
X131081000Y-95726000D03*
%TO.P,U1,7*%
%TO.N,Net-(C1-Pad2)*%
X130731000Y-95726000D03*
%TO.P,U1,8*%
%TO.N,Net-(C1-Pad1)*%
X130381000Y-95726000D03*
%TO.P,U1,9*%
%TO.N,/EN_RTS*%
X130031000Y-95726000D03*
%TO.P,U1,10*%
%TO.N,Net-(U1-Pad10)*%
X129681000Y-95726000D03*
%TO.P,U1,11*%
%TO.N,Net-(U1-Pad11)*%
X129331000Y-95726000D03*
%TO.P,U1,12*%
%TO.N,Net-(U1-Pad12)*%
X128981000Y-95726000D03*
%TO.P,U1,13*%
%TO.N,Net-(U1-Pad13)*%
X128631000Y-95726000D03*
%TO.P,U1,14*%
%TO.N,Net-(U1-Pad14)*%
X128281000Y-95726000D03*
D19*
%TO.P,U1,15*%
%TO.N,Net-(U1-Pad15)*%
X128111000Y-96596000D03*
%TO.P,U1,16*%
%TO.N,/IO27_R*%
X128111000Y-96946000D03*
%TO.P,U1,17*%
%TO.N,Net-(U1-Pad17)*%
X128111000Y-97296000D03*
%TO.P,U1,18*%
%TO.N,Net-(U1-Pad18)*%
X128111000Y-97646000D03*
%TO.P,U1,19*%
%TO.N,+3V3*%
X128111000Y-97996000D03*
%TO.P,U1,20*%
%TO.N,Net-(U1-Pad20)*%
X128111000Y-98346000D03*
%TO.P,U1,21*%
%TO.N,Net-(U1-Pad21)*%
X128111000Y-98696000D03*
%TO.P,U1,22*%
%TO.N,Net-(U1-Pad22)*%
X128111000Y-99046000D03*
%TO.P,U1,23*%
%TO.N,/BOOT_DTR*%
X128111000Y-99396000D03*
%TO.P,U1,24*%
%TO.N,/IO4_G*%
X128111000Y-99746000D03*
D18*
%TO.P,U1,25*%
%TO.N,Net-(U1-Pad25)*%
X128281000Y-100616000D03*
%TO.P,U1,26*%
%TO.N,Net-(U1-Pad26)*%
X128631000Y-100616000D03*
%TO.P,U1,27*%
%TO.N,Net-(U1-Pad27)*%
X128981000Y-100616000D03*
%TO.P,U1,28*%
%TO.N,Net-(U1-Pad28)*%
X129331000Y-100616000D03*
%TO.P,U1,29*%
%TO.N,Net-(U1-Pad29)*%
X129681000Y-100616000D03*
%TO.P,U1,30*%
%TO.N,Net-(U1-Pad30)*%
X130031000Y-100616000D03*
%TO.P,U1,31*%
%TO.N,Net-(U1-Pad31)*%
X130381000Y-100616000D03*
%TO.P,U1,32*%
%TO.N,Net-(U1-Pad32)*%
X130731000Y-100616000D03*
%TO.P,U1,33*%
%TO.N,Net-(U1-Pad33)*%
X131081000Y-100616000D03*
%TO.P,U1,34*%
%TO.N,/IO5_B*%
X131431000Y-100616000D03*
%TO.P,U1,35*%
%TO.N,Net-(U1-Pad35)*%
X131781000Y-100616000D03*
%TO.P,U1,36*%
%TO.N,Net-(U1-Pad36)*%
X132131000Y-100616000D03*
%TO.P,U1,37*%
%TO.N,+3V3*%
X132481000Y-100616000D03*
%TO.P,U1,38*%
%TO.N,Net-(U1-Pad38)*%
X132831000Y-100616000D03*
D19*
%TO.P,U1,39*%
%TO.N,Net-(U1-Pad39)*%
X133001000Y-99746000D03*
%TO.P,U1,40*%
%TO.N,/UART-*%
X133001000Y-99396000D03*
%TO.P,U1,41*%
%TO.N,/UART+*%
X133001000Y-99046000D03*
%TO.P,U1,42*%
%TO.N,Net-(U1-Pad42)*%
X133001000Y-98696000D03*
%TO.P,U1,43*%
%TO.N,+3V3*%
X133001000Y-98346000D03*
%TO.P,U1,44*%
%TO.N,Net-(U1-Pad44)*%
X133001000Y-97996000D03*
%TO.P,U1,45*%
%TO.N,Net-(U1-Pad45)*%
X133001000Y-97646000D03*
%TO.P,U1,46*%
%TO.N,+3V3*%
X133001000Y-97296000D03*
%TO.P,U1,47*%
%TO.N,Net-(C19-Pad2)*%
X133001000Y-96946000D03*
%TO.P,U1,48*%
%TO.N,Net-(C13-Pad1)*%
X133001000Y-96596000D03*
D20*
%TO.P,U1,49*%
%TO.N,GND*%
X130556000Y-98171000D03*
%TD*%
D21*
%TO.P,C3,1*%
%TO.N,Net-(C3-Pad1)*%
X133578600Y-94132400D03*
%TO.P,C3,2*%
%TO.N,Net-(ANT1-PadFEED)*%
X134218600Y-94132400D03*
%TD*%
D14*
%TO.P,C2,1*%
%TO.N,Net-(ANT1-PadFEED)*%
X134772400Y-94129899D03*
%TO.P,C2,2*%
%TO.N,GND*%
X134772400Y-94769899D03*
%TD*%
D22*
%TO.P,L1,1*%
%TO.N,Net-(C3-Pad1)*%
X133032499Y-94129899D03*
D23*
%TO.P,L1,2*%
%TO.N,GND*%
X133032499Y-94769899D03*
%TD*%
D24*
%TO.P,C14,1*%
%TO.N,GND*%
X130052000Y-94361000D03*
%TO.P,C14,2*%
%TO.N,+3V3*%
X130552000Y-94361000D03*
%TD*%
D25*
%TO.P,C15,1*%
%TO.N,GND*%
X134559000Y-97917000D03*
%TO.P,C15,2*%
%TO.N,+3V3*%
X133919000Y-97917000D03*
%TD*%
D26*
%TO.P,C17,1*%
%TO.N,GND*%
X127406400Y-98497200D03*
%TO.P,C17,2*%
%TO.N,+3V3*%
X127406400Y-97997200D03*
%TD*%
%TO.P,C21,1*%
%TO.N,GND*%
X133985000Y-100910200D03*
%TO.P,C21,2*%
%TO.N,+3V3*%
X133985000Y-100410200D03*
%TD*%
D27*
%TO.P,C23,1*%
%TO.N,GND*%
X132433274Y-92813926D03*
%TO.P,C23,2*%
%TO.N,+3V3*%
X131980726Y-93266474D03*
%TD*%
D28*
%TO.P,Y1,1*%
%TO.N,+3V3*%
X128151000Y-92745800D03*
%TO.P,Y1,2*%
%TO.N,GND*%
X128151000Y-94045800D03*
%TO.P,Y1,3*%
%TO.N,Net-(U1-Pad45)*%
X129151000Y-94045800D03*
%TO.P,Y1,4*%
%TO.N,+3V3*%
X129151000Y-92745800D03*
%TD*%
D29*
%TO.P,C26,1*%
%TO.N,GND*%
X131796600Y-94361000D03*
%TO.P,C26,2*%
%TO.N,Net-(C26-Pad2)*%
X131296600Y-94361000D03*
%TD*%
%TO.P,L2,1*%
%TO.N,Net-(C26-Pad2)*%
X131441000Y-94996000D03*
%TO.P,L2,2*%
%TO.N,+3V3*%
X130941000Y-94996000D03*
%TD*%
%TO.P,C25,1*%
%TO.N,/EN_RTS*%
X129155000Y-94996000D03*
%TO.P,C25,2*%
%TO.N,GND*%
X128655000Y-94996000D03*
%TD*%
D30*
%TO.P,C22,1*%
%TO.N,GND*%
X131343400Y-92606000D03*
%TO.P,C22,2*%
%TO.N,+3V3*%
X131343400Y-93576000D03*
%TD*%
%TO.P,C18,1*%
%TO.N,GND*%
X130479800Y-92606000D03*
%TO.P,C18,2*%
%TO.N,+3V3*%
X130479800Y-93576000D03*
%TD*%
D29*
%TO.P,R7,1*%
%TO.N,+3V3*%
X130374200Y-94996000D03*
%TO.P,R7,2*%
%TO.N,/EN_RTS*%
X129874200Y-94996000D03*
%TD*%
D25*
%TO.P,C16,1*%
%TO.N,GND*%
X134559000Y-97256600D03*
%TO.P,C16,2*%
%TO.N,+3V3*%
X133919000Y-97256600D03*
%TD*%
D26*
%TO.P,C1,1*%
%TO.N,Net-(C1-Pad1)*%
X127373380Y-95223140D03*
%TO.P,C1,2*%
%TO.N,Net-(C1-Pad2)*%
X127373380Y-94723140D03*
%TD*%
%TO.P,C20,1*%
%TO.N,Net-(C20-Pad1)*%
X127375920Y-96422020D03*
%TO.P,C20,2*%
%TO.N,Net-(C20-Pad2)*%
X127375920Y-95922020D03*
%TD*%
D31*
%TO.P,R8,1*%
%TO.N,Net-(C13-Pad1)*%
X134442200Y-96193800D03*
%TO.P,R8,2*%
%TO.N,Net-(C19-Pad2)*%
X134442200Y-96693800D03*
%TD*%
%TO.P,C19,1*%
%TO.N,Net-(C13-Pad1)*%
X133934200Y-96193800D03*
%TO.P,C19,2*%
%TO.N,Net-(C19-Pad2)*%
X133934200Y-96693800D03*
%TD*%
D24*
%TO.P,C13,1*%
%TO.N,Net-(C13-Pad1)*%
X134192200Y-95732600D03*
%TO.P,C13,2*%
%TO.N,GND*%
X134692200Y-95732600D03*
%TD*%
D29*
%TO.P,C24,1*%
%TO.N,GND*%
X134463600Y-95326200D03*
%TO.P,C24,2*%
%TO.N,+3V3*%
X133963600Y-95326200D03*
%TD*%
D32*
%TO.N,Net-(U1-Pad45)*%
X129209800Y-94056200D03*
X132715000Y-97637600D03*
D33*
%TO.N,GND*%
X130048000Y-99644200D03*
X130962400Y-99644200D03*
X131826000Y-96850200D03*
X129794000Y-96850200D03*
X129794000Y-97790000D03*
X130810000Y-96850200D03*
X129794000Y-98552000D03*
D34*
X135128000Y-92964000D03*
X135128000Y-93472000D03*
X135128000Y-94742000D03*
X135128000Y-95250000D03*
X135128000Y-95758000D03*
X135128000Y-96266000D03*
X135128000Y-96774000D03*
X135128000Y-97028000D03*
X135382000Y-97028000D03*
X135890000Y-97028000D03*
X136398000Y-97028000D03*
X136906000Y-97028000D03*
X137414000Y-97028000D03*
X137922000Y-97028000D03*
X138430000Y-97028000D03*
X138938000Y-97028000D03*
X139700000Y-97028000D03*
X134620000Y-92456000D03*
X134112000Y-92456000D03*
X133604000Y-92456000D03*
X133096000Y-92456000D03*
X132588000Y-92456000D03*
X132080000Y-92456000D03*
X131927600Y-92811600D03*
X127355600Y-97002600D03*
X127355600Y-97510600D03*
X127355600Y-98526600D03*
X127355600Y-99034600D03*
X127355600Y-99542600D03*
X127355600Y-100050600D03*
X127355600Y-100558600D03*
X127355600Y-101066600D03*
X127558800Y-101295200D03*
X128016000Y-101320600D03*
X128524000Y-101320600D03*
X129032000Y-101320600D03*
X129540000Y-101320600D03*
X132080000Y-95021400D03*
X132080000Y-94589600D03*
X132130800Y-94208600D03*
X132334000Y-93929200D03*
X132638800Y-93751400D03*
X134937500Y-93611700D03*
X132969000Y-94996000D03*
X133731000Y-94615000D03*
X134112000Y-94615000D03*
X134493000Y-94615000D03*
X134874000Y-94615000D03*
X139192000Y-97028000D03*
X139192000Y-96647000D03*
X139192000Y-96266000D03*
X139192000Y-95885000D03*
X139192000Y-95504000D03*
X139192000Y-95123000D03*
X139192000Y-94742000D03*
X139192000Y-94361000D03*
X139192000Y-93980000D03*
X139192000Y-93599000D03*
X139192000Y-93218000D03*
X139192000Y-92837000D03*
D35*
X139573000Y-94488000D03*
X139573000Y-95250000D03*
X139573000Y-96012000D03*
X139573000Y-96647000D03*
X139446000Y-92964000D03*
X134874000Y-93218000D03*
D34*
X130048000Y-101320600D03*
X130556000Y-101320600D03*
X131064000Y-101320600D03*
X131572000Y-101320600D03*
X132080000Y-101320600D03*
X132588000Y-101320600D03*
X133096000Y-101320600D03*
X133604000Y-101320600D03*
X134112000Y-101320600D03*
X134620000Y-101320600D03*
X135128000Y-101320600D03*
X139700000Y-97536000D03*
X139700000Y-98044000D03*
X139700000Y-98552000D03*
X139700000Y-99060000D03*
X132969000Y-93649800D03*
X134658100Y-93611700D03*
X133337300Y-93649800D03*
X133680200Y-93649800D03*
X134023100Y-93649800D03*
X134366000Y-93637100D03*
D35*
X133858000Y-93129100D03*
X132842000Y-93129100D03*
D34*
X132080000Y-93675200D03*
X132588000Y-93472000D03*
X132334000Y-93599000D03*
X132334000Y-92710000D03*
X132842000Y-92710000D03*
X132588000Y-92964000D03*
X133096000Y-92964000D03*
X132842000Y-93472000D03*
X133350000Y-93218000D03*
X133096000Y-93472000D03*
X133604000Y-92964000D03*
X133350000Y-92710000D03*
X133858000Y-92710000D03*
X134366000Y-92710000D03*
X134874000Y-92710000D03*
X134620000Y-92964000D03*
X134366000Y-93218000D03*
X134112000Y-93472000D03*
X133604000Y-93472000D03*
X133350000Y-93472000D03*
X133858000Y-93472000D03*
X134366000Y-93472000D03*
X134874000Y-93472000D03*
X134620000Y-93218000D03*
X132969000Y-94615000D03*
X133350000Y-94615000D03*
X133223000Y-94869000D03*
X133604000Y-94869000D03*
X133985000Y-94869000D03*
X134366000Y-94869000D03*
X134747000Y-94869000D03*
X134620000Y-95123000D03*
X134874000Y-95504000D03*
X134874000Y-96012000D03*
X135636000Y-97028000D03*
X136144000Y-97028000D03*
X136652000Y-97028000D03*
X137160000Y-97028000D03*
X137668000Y-97028000D03*
X138176000Y-97028000D03*
X138684000Y-97028000D03*
X138684000Y-97282000D03*
X138684000Y-97536000D03*
X138938000Y-97536000D03*
X138938000Y-97282000D03*
X139192000Y-97282000D03*
X139192000Y-97536000D03*
X139446000Y-97536000D03*
X139446000Y-97282000D03*
X139446000Y-97028000D03*
X138684000Y-97790000D03*
X138938000Y-97790000D03*
X139192000Y-97790000D03*
X139446000Y-97790000D03*
X138430000Y-97790000D03*
X138430000Y-97536000D03*
X138430000Y-97282000D03*
X135382000Y-97282000D03*
X135128000Y-97282000D03*
X135128000Y-97536000D03*
X135382000Y-97536000D03*
X135382000Y-97790000D03*
X135128000Y-97790000D03*
X134874000Y-97790000D03*
X134874000Y-97028000D03*
X134874000Y-96774000D03*
X134874000Y-96520000D03*
X133223000Y-95224600D03*
X133350000Y-94996000D03*
X131572000Y-92456000D03*
X130937000Y-92456000D03*
X130429000Y-92456000D03*
X129921000Y-92456000D03*
X129921000Y-92964000D03*
X129794000Y-93472000D03*
X129794000Y-93218000D03*
X129794000Y-92710000D03*
X129794000Y-93726000D03*
X129794000Y-93980000D03*
X129794000Y-94234000D03*
X130048000Y-94234000D03*
X129921000Y-94488000D03*
X130175000Y-92710000D03*
X130683000Y-92710000D03*
X131191000Y-92710000D03*
X130937000Y-92964000D03*
X130429000Y-92964000D03*
X131445000Y-92964000D03*
X131572000Y-92710000D03*
X128651000Y-94996000D03*
X128193800Y-94996000D03*
X127863600Y-94996000D03*
X127863600Y-95427800D03*
X127431800Y-94056200D03*
X127863600Y-95885000D03*
X129717800Y-94589600D03*
D33*
X131876800Y-99644200D03*
D35*
X139039600Y-101269800D03*
D34*
X135128000Y-92456000D03*
D33*
X129133600Y-99644200D03*
D35*
X139573000Y-93776800D03*
%TO.N,+5V*%
X139395200Y-100050600D03*
D32*
%TO.N,Net-(C6-Pad1)*%
X135940800Y-97586800D03*
X138023600Y-101168200D03*
D35*
%TO.N,+3V3*%
X129159000Y-93192600D03*
X133604000Y-95377000D03*
X130708400Y-94361000D03*
X133985000Y-100279200D03*
D32*
X128117600Y-97995740D03*
D35*
X133934200Y-97739200D03*
D36*
%TO.N,/USB-*%
X137439400Y-101142800D03*
%TO.N,/USB+*%
X136906000Y-101142800D03*
D32*
%TO.N,Net-(C1-Pad2)*%
X130733800Y-96012000D03*
X127381000Y-94792800D03*
%TO.N,Net-(C1-Pad1)*%
X127381000Y-95250000D03*
X130378200Y-95834200D03*
%TO.N,Net-(C20-Pad2)*%
X127381000Y-95910400D03*
X131089400Y-95453200D03*
%TO.N,Net-(C20-Pad1)*%
X131445000Y-96012000D03*
X127381000Y-96393000D03*
%TO.N,/IO5_B*%
X131419600Y-100355400D03*
%TO.N,/IO4_G*%
X127838200Y-99745800D03*
%TO.N,/IO27_R*%
X127838200Y-96951800D03*
%TO.N,/UART+*%
X134924800Y-98501200D03*
X132715000Y-99034600D03*
%TO.N,/UART-*%
X137439400Y-97891600D03*
X132715000Y-99390200D03*
%TO.N,/BOOT_DTR*%
X136931400Y-97536000D03*
X128371600Y-99390200D03*
%TO.N,/EN_RTS*%
X129514600Y-95021400D03*
X136423400Y-97485200D03*
%TD*%
D37*
%TO.N,Net-(U1-Pad45)*%
X129209800Y-94056200D02*
X129161400Y-94056200D01*
X129161400Y-94056200D02*
X129151000Y-94045800D01*
X133001000Y-97646000D02*
X132723400Y-97646000D01*
X132723400Y-97646000D02*
X132715000Y-97637600D01*
D38*
%TO.N,Net-(ANT1-PadFEED)*%
X135539699Y-94129899D02*
X135560000Y-94150200D01*
X134218600Y-94132400D02*
X134769899Y-94132400D01*
X134769899Y-94132400D02*
X134772400Y-94129899D01*
X134772400Y-94129899D02*
X135539699Y-94129899D01*
D39*
%TO.N,GND*%
X134848600Y-97256600D02*
X134975600Y-97129600D01*
D40*
X135364200Y-93200200D02*
X135128000Y-92964000D01*
D39*
X133131600Y-94869000D02*
X133032499Y-94769899D01*
D41*
X138760000Y-93675200D02*
X139115800Y-93675200D01*
D40*
X139039600Y-101269800D02*
X139377122Y-101269800D01*
X132534874Y-92813926D02*
X132842000Y-92506800D01*
D39*
X134543800Y-94869000D02*
X134213600Y-94869000D01*
X134213600Y-94869000D02*
X133131600Y-94869000D01*
X134463600Y-94949200D02*
X134543800Y-94869000D01*
D41*
X139115800Y-93675200D02*
X139192000Y-93599000D01*
X130962400Y-98577400D02*
X130556000Y-98171000D01*
D40*
X132842000Y-92506800D02*
X132511800Y-92506800D01*
D39*
X134747000Y-94869000D02*
X134543800Y-94869000D01*
D40*
X129844800Y-94183200D02*
X129844800Y-93241000D01*
X128524000Y-94996000D02*
X128151000Y-94623000D01*
X130052000Y-94361000D02*
X129946400Y-94361000D01*
X132433274Y-92585326D02*
X132511800Y-92506800D01*
X127406600Y-94045800D02*
X127406400Y-94046000D01*
D39*
X134463600Y-95326200D02*
X134463600Y-94949200D01*
D40*
X128655000Y-94996000D02*
X128524000Y-94996000D01*
D39*
X134559000Y-97917000D02*
X134559000Y-97256600D01*
D40*
X132334000Y-93599000D02*
X132372100Y-93599000D01*
X132511800Y-92506800D02*
X131821200Y-92506800D01*
X135128000Y-92964000D02*
X134023100Y-92964000D01*
X132334000Y-93827600D02*
X132334000Y-93599000D01*
D39*
X134692200Y-95732600D02*
X134692200Y-95431800D01*
D40*
X131722000Y-92606000D02*
X131343400Y-92606000D01*
X129844800Y-93241000D02*
X130479800Y-92606000D01*
X132372100Y-93599000D02*
X132842000Y-93129100D01*
X132842000Y-93129100D02*
X132842000Y-92506800D01*
D39*
X134975600Y-95834200D02*
X134793800Y-95834200D01*
X134692200Y-95431800D02*
X134586600Y-95326200D01*
X134793800Y-95834200D02*
X134692200Y-95732600D01*
D40*
X133858000Y-93129100D02*
X132842000Y-93129100D01*
X131343400Y-92606000D02*
X130479800Y-92606000D01*
D41*
X130962400Y-99644200D02*
X130962400Y-98577400D01*
D40*
X131796600Y-94361000D02*
X131800600Y-94361000D01*
X139253000Y-99491800D02*
X139395200Y-99349600D01*
D39*
X134975600Y-97129600D02*
X134975600Y-95834200D01*
D40*
X138768900Y-99491800D02*
X139253000Y-99491800D01*
D39*
X134586600Y-95326200D02*
X134463600Y-95326200D01*
D40*
X131800600Y-94361000D02*
X132334000Y-93827600D01*
D39*
X134559000Y-97256600D02*
X134848600Y-97256600D01*
D40*
X127355600Y-94096800D02*
X127406400Y-94046000D01*
X128227200Y-94165800D02*
X128107400Y-94046000D01*
X135560000Y-93200200D02*
X135364200Y-93200200D01*
X128151000Y-94045800D02*
X127406600Y-94045800D01*
X132433274Y-92813926D02*
X132433274Y-92585326D01*
X134023100Y-92964000D02*
X133858000Y-93129100D01*
X132433274Y-92813926D02*
X132534874Y-92813926D01*
X139377122Y-101269800D02*
X139388897Y-101258025D01*
X131821200Y-92506800D02*
X131722000Y-92606000D01*
X128151000Y-94623000D02*
X128151000Y-94045800D01*
X130022600Y-94361000D02*
X129844800Y-94183200D01*
X130052000Y-94361000D02*
X130022600Y-94361000D01*
D38*
%TO.N,Net-(C3-Pad1)*%
X132499376Y-94374011D02*
X132509506Y-94352594D01*
X132535799Y-94313243D02*
X132551710Y-94295689D01*
X132664344Y-94184698D02*
X132646790Y-94200609D01*
X132725112Y-94148275D02*
X132703695Y-94158405D01*
X132683374Y-94170585D02*
X132664344Y-94184698D01*
X133035000Y-94132400D02*
X133032499Y-94129899D01*
X132703695Y-94158405D02*
X132683374Y-94170585D01*
X132482162Y-94442736D02*
X132485638Y-94419300D01*
X132793837Y-94131061D02*
X132770401Y-94134537D01*
X132747419Y-94140294D02*
X132725112Y-94148275D01*
X132509506Y-94352594D02*
X132521686Y-94332273D01*
X132817501Y-94129899D02*
X132793837Y-94131061D01*
X132481000Y-94466400D02*
X132481000Y-95726000D01*
X132491395Y-94396318D02*
X132499376Y-94374011D01*
X132521686Y-94332273D02*
X132535799Y-94313243D01*
X132646790Y-94200609D02*
X132551710Y-94295689D01*
X132485638Y-94419300D02*
X132491395Y-94396318D01*
X132770401Y-94134537D02*
X132747419Y-94140294D01*
X132817501Y-94129899D02*
X133032499Y-94129899D01*
X132481000Y-94466400D02*
X132482162Y-94442736D01*
X133578600Y-94132400D02*
X133035000Y-94132400D01*
D39*
%TO.N,+5V*%
X139393000Y-99991800D02*
X139395200Y-99989600D01*
X139395200Y-100619600D02*
X139395200Y-99989600D01*
X138768900Y-99991800D02*
X139393000Y-99991800D01*
X139395200Y-100050600D02*
X139395200Y-99989600D01*
D40*
%TO.N,Net-(C6-Pad1)*%
X135931400Y-97654300D02*
X135931400Y-97596200D01*
X138768900Y-100491800D02*
X138768900Y-100702300D01*
X135931400Y-97596200D02*
X135940800Y-97586800D01*
X138303000Y-101168200D02*
X138023600Y-101168200D01*
X138768900Y-100702300D02*
X138303000Y-101168200D01*
X137931400Y-101329300D02*
X137931400Y-101260400D01*
X137931400Y-101260400D02*
X138023600Y-101168200D01*
%TO.N,+3V3*%
X133604000Y-95529400D02*
X133407400Y-95726000D01*
X133963600Y-95326200D02*
X133654800Y-95326200D01*
D37*
X128111000Y-97996000D02*
X127407600Y-97996000D01*
X127558800Y-93421200D02*
X128930400Y-93421200D01*
D40*
X130708400Y-93980000D02*
X130708400Y-94361000D01*
X133919000Y-98237000D02*
X133919000Y-97917000D01*
X131343400Y-93576000D02*
X130479800Y-93576000D01*
D37*
X132481000Y-100183000D02*
X132613400Y-100050600D01*
X133146800Y-100050600D02*
X133375400Y-100279200D01*
D40*
X129151000Y-92745800D02*
X128151000Y-92745800D01*
X129159000Y-92753800D02*
X129151000Y-92745800D01*
D37*
X127543600Y-93406000D02*
X127558800Y-93421200D01*
D40*
X129159000Y-93192600D02*
X129159000Y-92753800D01*
X130784600Y-94996000D02*
X130941000Y-94996000D01*
X131343400Y-93576000D02*
X131671200Y-93576000D01*
D38*
X133001000Y-98346000D02*
X133499600Y-98346000D01*
D40*
X130374200Y-94996000D02*
X130784600Y-94996000D01*
D38*
X133985000Y-100279200D02*
X133985000Y-100410200D01*
D40*
X133513800Y-97296000D02*
X133879600Y-97296000D01*
D37*
X127406400Y-93406000D02*
X127543600Y-93406000D01*
D40*
X133654800Y-95326200D02*
X133604000Y-95377000D01*
D37*
X132481000Y-100616000D02*
X132481000Y-100183000D01*
X128930400Y-93421200D02*
X129159000Y-93192600D01*
X132481000Y-100616000D02*
X132481000Y-100310000D01*
D40*
X131671200Y-93576000D02*
X131980726Y-93266474D01*
X133407400Y-95726000D02*
X132970020Y-95726000D01*
X130552000Y-94361000D02*
X130552000Y-94433200D01*
D37*
X133375400Y-100279200D02*
X133985000Y-100279200D01*
D40*
X130479800Y-93751400D02*
X130708400Y-93980000D01*
D37*
X128111000Y-97996000D02*
X128117340Y-97996000D01*
D40*
X130552000Y-94433200D02*
X130784600Y-94665800D01*
D37*
X132613400Y-100050600D02*
X133146800Y-100050600D01*
X128117340Y-97996000D02*
X128117600Y-97995740D01*
D40*
X131343400Y-93576000D02*
X131341000Y-93576000D01*
X129227200Y-93184600D02*
X129235200Y-93192600D01*
D38*
X133001000Y-97296000D02*
X133513800Y-97296000D01*
D40*
X130784600Y-94665800D02*
X130784600Y-94996000D01*
D37*
X132831000Y-95726000D02*
X132970020Y-95726000D01*
D40*
X133604000Y-95377000D02*
X133604000Y-95529400D01*
X131341000Y-93576000D02*
X131191000Y-93726000D01*
D37*
X132838440Y-95726000D02*
X132831000Y-95726000D01*
D40*
X133919000Y-97917000D02*
X133919000Y-97256600D01*
X130479800Y-93576000D02*
X130479800Y-93751400D01*
X133407400Y-95726000D02*
X133051800Y-95726000D01*
D37*
X127407600Y-97996000D02*
X127406400Y-97997200D01*
D40*
X133810000Y-98346000D02*
X133919000Y-98237000D01*
X133879600Y-97296000D02*
X133919000Y-97256600D01*
X133499600Y-98346000D02*
X133810000Y-98346000D01*
%TO.N,/USB-*%
X137431400Y-101329300D02*
X137431400Y-101150800D01*
X137431400Y-101150800D02*
X137439400Y-101142800D01*
%TO.N,/USB+*%
X136931400Y-101168200D02*
X136906000Y-101142800D01*
X136931400Y-101329300D02*
X136931400Y-101168200D01*
D37*
%TO.N,Net-(C1-Pad2)*%
X130731000Y-96009200D02*
X130733800Y-96012000D01*
X127381000Y-94730760D02*
X127373380Y-94723140D01*
X130731000Y-95726000D02*
X130731000Y-96009200D01*
X127381000Y-94792800D02*
X127381000Y-94730760D01*
%TO.N,Net-(C1-Pad1)*%
X130378200Y-95728800D02*
X130381000Y-95726000D01*
X130378200Y-95834200D02*
X130378200Y-95728800D01*
X127381000Y-95230760D02*
X127373380Y-95223140D01*
X127381000Y-95250000D02*
X127381000Y-95230760D01*
%TO.N,Net-(C13-Pad1)*%
X133426400Y-96596000D02*
X133731000Y-96291400D01*
X134112000Y-95732600D02*
X133934200Y-95910400D01*
X134395400Y-96193800D02*
X133934200Y-96193800D01*
X133836600Y-96291400D02*
X133934200Y-96193800D01*
X134442200Y-96193800D02*
X134395400Y-96193800D01*
X134192200Y-95732600D02*
X134112000Y-95732600D01*
X133934200Y-95910400D02*
X133934200Y-96193800D01*
X133001000Y-96596000D02*
X133426400Y-96596000D01*
X133731000Y-96291400D02*
X133836600Y-96291400D01*
%TO.N,Net-(C19-Pad2)*%
X133001000Y-96946000D02*
X133482800Y-96946000D01*
X133735000Y-96693800D02*
X133934200Y-96693800D01*
X133934200Y-96693800D02*
X134442200Y-96693800D01*
X133482800Y-96946000D02*
X133735000Y-96693800D01*
%TO.N,Net-(C20-Pad2)*%
X131081000Y-95726000D02*
X131081000Y-95461600D01*
X131081000Y-95461600D02*
X131089400Y-95453200D01*
X127381000Y-95910400D02*
X127381000Y-95916940D01*
X127381000Y-95916940D02*
X127375920Y-95922020D01*
%TO.N,Net-(C20-Pad1)*%
X127381000Y-96393000D02*
X127381000Y-96416940D01*
X127381000Y-96416940D02*
X127375920Y-96422020D01*
X131431000Y-95998000D02*
X131445000Y-96012000D01*
X131431000Y-95726000D02*
X131431000Y-95998000D01*
%TO.N,/IO5_B*%
X131431000Y-100366800D02*
X131419600Y-100355400D01*
X131431000Y-100616000D02*
X131431000Y-100366800D01*
%TO.N,/IO4_G*%
X127838400Y-99746000D02*
X127838200Y-99745800D01*
X128111000Y-99746000D02*
X127838400Y-99746000D01*
D40*
%TO.N,/UART+*%
X134934200Y-98491800D02*
X134924800Y-98501200D01*
D37*
X132726400Y-99046000D02*
X132715000Y-99034600D01*
X133001000Y-99046000D02*
X132726400Y-99046000D01*
D40*
X135093900Y-98491800D02*
X134934200Y-98491800D01*
D37*
%TO.N,/UART-*%
X132720800Y-99396000D02*
X132715000Y-99390200D01*
D38*
X137431400Y-97654300D02*
X137431400Y-97883600D01*
D37*
X133001000Y-99396000D02*
X132720800Y-99396000D01*
D38*
X137431400Y-97883600D02*
X137439400Y-97891600D01*
D40*
%TO.N,/BOOT_DTR*%
X136931400Y-97536000D02*
X136931400Y-97654300D01*
D37*
%TO.N,/EN_RTS*%
X130031000Y-95726000D02*
X130031000Y-95360000D01*
D40*
X129540000Y-94996000D02*
X129514600Y-95021400D01*
X129155000Y-94996000D02*
X129489200Y-94996000D01*
D37*
X136423400Y-97485200D02*
X136423400Y-97646300D01*
D40*
X129874200Y-94996000D02*
X129540000Y-94996000D01*
D37*
X129997200Y-95224600D02*
X129874200Y-95101600D01*
X129997200Y-95326200D02*
X129997200Y-95224600D01*
X130031000Y-95360000D02*
X129997200Y-95326200D01*
D40*
X129489200Y-94996000D02*
X129514600Y-95021400D01*
D37*
X136423400Y-97646300D02*
X136431400Y-97654300D01*
X129874200Y-95101600D02*
X129874200Y-94996000D01*
%TO.N,Net-(C26-Pad2)*%
X132105400Y-95834200D02*
X131889200Y-95834200D01*
X131441000Y-94763400D02*
X131296600Y-94619000D01*
X131889200Y-95834200D02*
X131781000Y-95726000D01*
X131781000Y-95726000D02*
X131781000Y-95031200D01*
X132131000Y-95808600D02*
X132105400Y-95834200D01*
X131296600Y-94619000D02*
X131296600Y-94361000D01*
X131745800Y-94996000D02*
X131781000Y-95031200D01*
X131441000Y-94996000D02*
X131745800Y-94996000D01*
X132131000Y-95726000D02*
X132131000Y-95808600D01*
X131466400Y-94970600D02*
X131441000Y-94996000D01*
X131441000Y-94996000D02*
X131441000Y-94763400D01*
%TD*%
%TA.AperFunction,Conductor*%
%TO.N,GND*%
G36*
X139068864Y-100954778D02*
G01*
X139068884Y-100954811D01*
X139157933Y-101022525D01*
X139163472Y-101024129D01*
X139163474Y-101024130D01*
X139248919Y-101048873D01*
X139248921Y-101048873D01*
X139253157Y-101050100D01*
X139429373Y-101050100D01*
X139473567Y-101068406D01*
X139491873Y-101112600D01*
X139491491Y-101119500D01*
X139490790Y-101125811D01*
X139489684Y-101132468D01*
X139488008Y-101140011D01*
X139488046Y-101146691D01*
X139487665Y-101153933D01*
X139483747Y-101189199D01*
X139481173Y-101212364D01*
X139479689Y-101220620D01*
X139445026Y-101359272D01*
X139444495Y-101361255D01*
X139442948Y-101366672D01*
X139413204Y-101404136D01*
X139382853Y-101412000D01*
X138673243Y-101412000D01*
X138629049Y-101393694D01*
X138610743Y-101349500D01*
X138629049Y-101305306D01*
X138980738Y-100953617D01*
X139024932Y-100935311D01*
X139068864Y-100954778D01*
G37*
%TD.AperFunction*%
%TA.AperFunction,Conductor*%
G36*
X139427047Y-92430307D02*
G01*
X139442947Y-92457327D01*
X139444486Y-92462712D01*
X139445026Y-92464728D01*
X139479689Y-92603380D01*
X139481173Y-92611635D01*
X139487638Y-92669818D01*
X139488017Y-92677165D01*
X139487968Y-92683811D01*
X139488735Y-92687261D01*
X139488735Y-92687263D01*
X139489684Y-92691533D01*
X139490789Y-92698184D01*
X139491255Y-92702380D01*
X139491257Y-92702390D01*
X139491644Y-92705871D01*
X139492797Y-92709184D01*
X139492798Y-92709188D01*
X139493840Y-92712183D01*
X139495824Y-92719164D01*
X139508247Y-92775066D01*
X139508570Y-92776891D01*
X139508611Y-92779066D01*
X139509468Y-92782492D01*
X139509468Y-92782495D01*
X139513133Y-92797153D01*
X139513511Y-92798754D01*
X139517517Y-92816783D01*
X139518447Y-92818742D01*
X139518978Y-92820536D01*
X139532462Y-92874472D01*
X139533114Y-92877373D01*
X139541484Y-92919224D01*
X139547768Y-92950647D01*
X139547981Y-92952039D01*
X139547968Y-92953811D01*
X139548734Y-92957256D01*
X139552156Y-92972656D01*
X139552431Y-92973958D01*
X139556182Y-92992716D01*
X139556909Y-92994337D01*
X139557271Y-92995674D01*
X139558274Y-93000188D01*
X139569371Y-93050124D01*
X139570548Y-93057458D01*
X139574171Y-93093684D01*
X139577420Y-93126170D01*
X139577704Y-93134178D01*
X139577550Y-93139551D01*
X139579369Y-93148646D01*
X139580270Y-93154668D01*
X139581174Y-93163711D01*
X139582904Y-93168864D01*
X139584936Y-93176485D01*
X139588627Y-93194938D01*
X139606182Y-93282716D01*
X139606183Y-93282719D01*
X139619371Y-93348659D01*
X139620268Y-93354657D01*
X139627042Y-93422392D01*
X139627176Y-93423735D01*
X139627394Y-93431896D01*
X139627435Y-93432506D01*
X139627272Y-93436033D01*
X139627904Y-93439509D01*
X139629343Y-93447426D01*
X139630041Y-93452384D01*
X139631174Y-93463711D01*
X139632290Y-93467035D01*
X139632394Y-93467517D01*
X139634447Y-93475491D01*
X139649341Y-93557413D01*
X139650039Y-93562373D01*
X139657176Y-93633740D01*
X139657394Y-93641897D01*
X139657435Y-93642506D01*
X139657272Y-93646033D01*
X139657904Y-93649509D01*
X139659343Y-93657426D01*
X139660041Y-93662384D01*
X139661174Y-93673711D01*
X139662290Y-93677034D01*
X139662392Y-93677508D01*
X139664447Y-93685491D01*
X139670823Y-93720559D01*
X139679131Y-93766254D01*
X139679882Y-93771776D01*
X139688723Y-93869030D01*
X139688764Y-93869497D01*
X139692743Y-93917232D01*
X139697366Y-93972705D01*
X139697515Y-93980783D01*
X139697272Y-93986033D01*
X139697904Y-93989511D01*
X139697905Y-93989519D01*
X139698954Y-93995286D01*
X139699747Y-94001278D01*
X139700511Y-94010452D01*
X139701571Y-94013790D01*
X139701572Y-94013797D01*
X139702114Y-94015503D01*
X139704035Y-94023231D01*
X139715750Y-94087657D01*
X139718954Y-94105279D01*
X139719745Y-94111261D01*
X139726855Y-94196583D01*
X139726855Y-94196584D01*
X139736855Y-94316583D01*
X139736855Y-94316584D01*
X139746855Y-94436583D01*
X139746855Y-94436584D01*
X139756855Y-94556583D01*
X139756855Y-94556584D01*
X139767696Y-94686667D01*
X139767758Y-94687416D01*
X139767758Y-94687417D01*
X139768617Y-94697723D01*
X139768649Y-94698120D01*
X139776926Y-94805726D01*
X139776933Y-94806043D01*
X139776855Y-94806584D01*
X139776981Y-94808094D01*
X139776981Y-94808101D01*
X139778622Y-94827786D01*
X139778654Y-94828184D01*
X139780270Y-94849194D01*
X139780431Y-94849712D01*
X139780477Y-94850047D01*
X139788616Y-94947715D01*
X139788647Y-94948105D01*
X139789145Y-94954570D01*
X139796926Y-95055725D01*
X139796933Y-95056042D01*
X139796855Y-95056584D01*
X139796981Y-95058095D01*
X139796981Y-95058099D01*
X139798622Y-95077786D01*
X139798654Y-95078184D01*
X139800270Y-95099194D01*
X139800431Y-95099712D01*
X139800477Y-95100047D01*
X139808619Y-95197750D01*
X139808651Y-95198146D01*
X139817816Y-95317291D01*
X139818000Y-95322085D01*
X139818000Y-95423276D01*
X139817474Y-95430307D01*
X139817420Y-95431808D01*
X139816894Y-95435303D01*
X139817165Y-95438827D01*
X139817165Y-95438829D01*
X139817816Y-95447289D01*
X139818000Y-95452083D01*
X139818000Y-95463919D01*
X139818779Y-95467337D01*
X139818927Y-95468648D01*
X139820006Y-95475767D01*
X139830270Y-95609194D01*
X139837816Y-95707291D01*
X139838000Y-95712085D01*
X139838000Y-95823276D01*
X139837474Y-95830307D01*
X139837420Y-95831808D01*
X139836894Y-95835303D01*
X139837165Y-95838827D01*
X139837165Y-95838829D01*
X139837816Y-95847289D01*
X139838000Y-95852083D01*
X139838000Y-95863919D01*
X139838779Y-95867337D01*
X139838927Y-95868648D01*
X139840006Y-95875767D01*
X139847816Y-95977291D01*
X139848000Y-95982085D01*
X139848000Y-96223276D01*
X139847474Y-96230307D01*
X139847420Y-96231808D01*
X139846894Y-96235303D01*
X139847165Y-96238827D01*
X139847165Y-96238829D01*
X139847816Y-96247289D01*
X139848000Y-96252083D01*
X139848000Y-96263919D01*
X139848779Y-96267337D01*
X139848927Y-96268648D01*
X139850006Y-96275767D01*
X139855978Y-96353397D01*
X139857816Y-96377290D01*
X139858000Y-96382084D01*
X139858000Y-97441917D01*
X139857816Y-97446710D01*
X139850025Y-97547993D01*
X139848961Y-97554968D01*
X139848792Y-97556454D01*
X139848000Y-97559899D01*
X139848000Y-97571917D01*
X139847816Y-97576711D01*
X139846908Y-97588515D01*
X139847424Y-97591988D01*
X139847471Y-97593315D01*
X139848000Y-97600480D01*
X139848000Y-97841917D01*
X139847816Y-97846708D01*
X139843789Y-97899070D01*
X139840025Y-97947998D01*
X139838960Y-97954970D01*
X139838791Y-97956460D01*
X139838000Y-97959899D01*
X139838000Y-97971917D01*
X139837816Y-97976711D01*
X139836908Y-97988515D01*
X139837424Y-97991988D01*
X139837471Y-97993315D01*
X139838000Y-98000480D01*
X139838000Y-98111915D01*
X139837816Y-98116709D01*
X139830284Y-98214625D01*
X139820025Y-98347991D01*
X139818959Y-98354980D01*
X139818791Y-98356459D01*
X139818000Y-98359899D01*
X139818000Y-98371917D01*
X139817816Y-98376711D01*
X139816908Y-98388515D01*
X139817424Y-98391988D01*
X139817471Y-98393315D01*
X139818000Y-98400480D01*
X139818000Y-98501916D01*
X139817816Y-98506710D01*
X139808647Y-98625907D01*
X139808615Y-98626303D01*
X139801884Y-98707077D01*
X139800493Y-98723766D01*
X139800446Y-98724106D01*
X139800284Y-98724625D01*
X139800168Y-98726136D01*
X139798643Y-98745955D01*
X139798611Y-98746350D01*
X139796871Y-98767234D01*
X139796948Y-98767772D01*
X139796940Y-98768096D01*
X139788656Y-98875794D01*
X139788624Y-98876189D01*
X139786544Y-98901150D01*
X139783058Y-98942987D01*
X139780493Y-98973766D01*
X139780446Y-98974106D01*
X139780284Y-98974625D01*
X139778746Y-98994611D01*
X139778643Y-98995955D01*
X139778611Y-98996350D01*
X139776871Y-99017234D01*
X139776948Y-99017773D01*
X139776940Y-99018102D01*
X139768647Y-99125907D01*
X139768615Y-99126303D01*
X139761740Y-99208807D01*
X139760527Y-99223363D01*
X139760525Y-99223372D01*
X139754267Y-99298479D01*
X139750861Y-99339358D01*
X139750527Y-99343363D01*
X139750525Y-99343372D01*
X139747360Y-99381364D01*
X139740527Y-99463364D01*
X139740526Y-99463366D01*
X139738063Y-99492930D01*
X139733882Y-99543103D01*
X139711970Y-99585625D01*
X139666409Y-99600198D01*
X139642996Y-99591205D01*
X139642214Y-99592760D01*
X139637060Y-99590167D01*
X139632467Y-99586675D01*
X139626928Y-99585071D01*
X139626926Y-99585070D01*
X139541481Y-99560327D01*
X139541479Y-99560327D01*
X139537243Y-99559100D01*
X139268354Y-99559100D01*
X139185221Y-99574583D01*
X139180308Y-99577612D01*
X139180304Y-99577613D01*
X139096120Y-99629504D01*
X139063325Y-99638800D01*
X138738860Y-99638800D01*
X138652938Y-99653101D01*
X138648392Y-99655554D01*
X138648389Y-99655555D01*
X138642370Y-99658803D01*
X138612690Y-99666300D01*
X138493763Y-99666300D01*
X138490753Y-99666899D01*
X138490750Y-99666899D01*
X138450223Y-99674961D01*
X138416341Y-99681700D01*
X138329395Y-99739795D01*
X138271300Y-99826741D01*
X138266870Y-99849012D01*
X138260003Y-99883538D01*
X138255900Y-99904163D01*
X138255900Y-100079437D01*
X138271300Y-100156859D01*
X138299299Y-100198763D01*
X138304854Y-100207077D01*
X138314186Y-100253994D01*
X138304854Y-100276523D01*
X138271300Y-100326741D01*
X138255900Y-100404163D01*
X138255900Y-100579437D01*
X138256499Y-100582447D01*
X138256499Y-100582450D01*
X138264561Y-100622977D01*
X138271300Y-100656859D01*
X138274719Y-100661976D01*
X138274720Y-100661978D01*
X138274798Y-100662094D01*
X138274825Y-100662231D01*
X138277076Y-100667665D01*
X138275996Y-100668112D01*
X138284135Y-100709009D01*
X138267029Y-100741016D01*
X138185651Y-100822394D01*
X138141457Y-100840700D01*
X138127482Y-100840700D01*
X138103566Y-100835943D01*
X138101575Y-100835118D01*
X138096459Y-100831700D01*
X138090425Y-100830500D01*
X138090423Y-100830499D01*
X138022050Y-100816899D01*
X138022047Y-100816899D01*
X138019037Y-100816300D01*
X137843763Y-100816300D01*
X137840753Y-100816899D01*
X137840750Y-100816899D01*
X137816851Y-100821653D01*
X137766341Y-100831700D01*
X137761221Y-100835121D01*
X137758093Y-100837211D01*
X137711178Y-100846546D01*
X137679174Y-100829440D01*
X137672163Y-100822429D01*
X137561771Y-100766182D01*
X137439400Y-100746800D01*
X137317029Y-100766182D01*
X137206637Y-100822429D01*
X137206451Y-100822063D01*
X137162925Y-100832514D01*
X137138895Y-100822561D01*
X137138763Y-100822429D01*
X137028371Y-100766182D01*
X136906000Y-100746800D01*
X136783629Y-100766182D01*
X136673237Y-100822429D01*
X136669759Y-100825907D01*
X136665780Y-100828798D01*
X136664090Y-100826472D01*
X136628610Y-100841168D01*
X136604692Y-100836410D01*
X136601577Y-100835120D01*
X136596459Y-100831700D01*
X136590423Y-100830499D01*
X136590422Y-100830499D01*
X136522050Y-100816899D01*
X136522047Y-100816899D01*
X136519037Y-100816300D01*
X136343763Y-100816300D01*
X136340753Y-100816899D01*
X136340750Y-100816899D01*
X136316851Y-100821653D01*
X136266341Y-100831700D01*
X136229425Y-100856366D01*
X136216123Y-100865254D01*
X136169206Y-100874586D01*
X136146677Y-100865254D01*
X136133375Y-100856366D01*
X136096459Y-100831700D01*
X136045949Y-100821653D01*
X136022050Y-100816899D01*
X136022047Y-100816899D01*
X136019037Y-100816300D01*
X135843763Y-100816300D01*
X135840753Y-100816899D01*
X135840750Y-100816899D01*
X135816851Y-100821653D01*
X135766341Y-100831700D01*
X135679395Y-100889795D01*
X135621300Y-100976741D01*
X135605900Y-101054163D01*
X135605900Y-101349500D01*
X135587594Y-101393694D01*
X135543400Y-101412000D01*
X127610352Y-101412000D01*
X127594681Y-101410003D01*
X127585724Y-101407683D01*
X127582193Y-101407586D01*
X127582185Y-101407585D01*
X127529509Y-101406140D01*
X127515046Y-101404034D01*
X127452775Y-101387348D01*
X127437702Y-101381104D01*
X127385095Y-101350731D01*
X127372151Y-101340799D01*
X127329201Y-101297849D01*
X127319268Y-101284905D01*
X127288892Y-101232292D01*
X127282652Y-101217227D01*
X127265964Y-101154947D01*
X127263860Y-101140492D01*
X127262419Y-101087978D01*
X127262418Y-101087971D01*
X127262322Y-101084469D01*
X127259969Y-101075319D01*
X127258000Y-101059753D01*
X127258000Y-98460200D01*
X127276306Y-98416006D01*
X127320500Y-98397700D01*
X127439600Y-98397700D01*
X127483794Y-98416006D01*
X127500899Y-98448007D01*
X127512993Y-98508807D01*
X127512993Y-98533193D01*
X127503195Y-98582450D01*
X127500500Y-98596000D01*
X127500500Y-98796000D01*
X127501099Y-98799010D01*
X127501099Y-98799013D01*
X127512993Y-98858807D01*
X127512993Y-98883193D01*
X127508822Y-98904163D01*
X127500500Y-98946000D01*
X127500500Y-99146000D01*
X127501099Y-99149010D01*
X127501099Y-99149013D01*
X127512993Y-99208807D01*
X127512993Y-99233193D01*
X127501309Y-99291931D01*
X127500500Y-99296000D01*
X127500500Y-99496000D01*
X127501099Y-99499010D01*
X127501099Y-99499013D01*
X127512993Y-99558807D01*
X127512993Y-99583193D01*
X127503781Y-99629504D01*
X127500500Y-99646000D01*
X127500500Y-99846000D01*
X127516143Y-99924641D01*
X127560690Y-99991310D01*
X127565807Y-99994729D01*
X127622240Y-100032437D01*
X127622242Y-100032438D01*
X127627359Y-100035857D01*
X127678835Y-100046096D01*
X127702988Y-100050901D01*
X127702989Y-100050901D01*
X127706000Y-100051500D01*
X127709686Y-100051500D01*
X127710464Y-100051637D01*
X127712127Y-100051801D01*
X127712114Y-100051928D01*
X127731063Y-100055269D01*
X127775323Y-100071379D01*
X127775326Y-100071379D01*
X127780462Y-100073249D01*
X127895938Y-100073249D01*
X127906911Y-100069255D01*
X127954701Y-100071341D01*
X127987019Y-100106609D01*
X127989587Y-100140179D01*
X127985251Y-100161978D01*
X127975500Y-100211000D01*
X127975500Y-101021000D01*
X127976099Y-101024011D01*
X127976099Y-101024012D01*
X127978462Y-101035893D01*
X127991143Y-101099641D01*
X128035690Y-101166310D01*
X128040807Y-101169729D01*
X128097240Y-101207437D01*
X128097242Y-101207438D01*
X128102359Y-101210857D01*
X128151440Y-101220620D01*
X128177988Y-101225901D01*
X128177989Y-101225901D01*
X128181000Y-101226500D01*
X128381000Y-101226500D01*
X128384010Y-101225901D01*
X128384013Y-101225901D01*
X128443807Y-101214007D01*
X128468193Y-101214007D01*
X128527987Y-101225901D01*
X128527990Y-101225901D01*
X128531000Y-101226500D01*
X128731000Y-101226500D01*
X128734010Y-101225901D01*
X128734013Y-101225901D01*
X128793807Y-101214007D01*
X128818193Y-101214007D01*
X128877987Y-101225901D01*
X128877990Y-101225901D01*
X128881000Y-101226500D01*
X129081000Y-101226500D01*
X129084010Y-101225901D01*
X129084013Y-101225901D01*
X129143807Y-101214007D01*
X129168193Y-101214007D01*
X129227987Y-101225901D01*
X129227990Y-101225901D01*
X129231000Y-101226500D01*
X129431000Y-101226500D01*
X129434010Y-101225901D01*
X129434013Y-101225901D01*
X129493807Y-101214007D01*
X129518193Y-101214007D01*
X129577987Y-101225901D01*
X129577990Y-101225901D01*
X129581000Y-101226500D01*
X129781000Y-101226500D01*
X129784010Y-101225901D01*
X129784013Y-101225901D01*
X129843807Y-101214007D01*
X129868193Y-101214007D01*
X129927987Y-101225901D01*
X129927990Y-101225901D01*
X129931000Y-101226500D01*
X130131000Y-101226500D01*
X130134010Y-101225901D01*
X130134013Y-101225901D01*
X130193807Y-101214007D01*
X130218193Y-101214007D01*
X130277987Y-101225901D01*
X130277990Y-101225901D01*
X130281000Y-101226500D01*
X130481000Y-101226500D01*
X130484010Y-101225901D01*
X130484013Y-101225901D01*
X130543807Y-101214007D01*
X130568193Y-101214007D01*
X130627987Y-101225901D01*
X130627990Y-101225901D01*
X130631000Y-101226500D01*
X130831000Y-101226500D01*
X130834010Y-101225901D01*
X130834013Y-101225901D01*
X130893807Y-101214007D01*
X130918193Y-101214007D01*
X130977987Y-101225901D01*
X130977990Y-101225901D01*
X130981000Y-101226500D01*
X131181000Y-101226500D01*
X131184010Y-101225901D01*
X131184013Y-101225901D01*
X131243807Y-101214007D01*
X131268193Y-101214007D01*
X131327987Y-101225901D01*
X131327990Y-101225901D01*
X131331000Y-101226500D01*
X131531000Y-101226500D01*
X131534010Y-101225901D01*
X131534013Y-101225901D01*
X131593807Y-101214007D01*
X131618193Y-101214007D01*
X131677987Y-101225901D01*
X131677990Y-101225901D01*
X131681000Y-101226500D01*
X131881000Y-101226500D01*
X131884010Y-101225901D01*
X131884013Y-101225901D01*
X131943807Y-101214007D01*
X131968193Y-101214007D01*
X132027987Y-101225901D01*
X132027990Y-101225901D01*
X132031000Y-101226500D01*
X132231000Y-101226500D01*
X132234010Y-101225901D01*
X132234013Y-101225901D01*
X132293807Y-101214007D01*
X132318193Y-101214007D01*
X132377987Y-101225901D01*
X132377990Y-101225901D01*
X132381000Y-101226500D01*
X132581000Y-101226500D01*
X132584010Y-101225901D01*
X132584013Y-101225901D01*
X132643807Y-101214007D01*
X132668193Y-101214007D01*
X132727987Y-101225901D01*
X132727990Y-101225901D01*
X132731000Y-101226500D01*
X132931000Y-101226500D01*
X132934011Y-101225901D01*
X132934012Y-101225901D01*
X132960560Y-101220620D01*
X133009641Y-101210857D01*
X133014758Y-101207438D01*
X133014760Y-101207437D01*
X133071193Y-101169729D01*
X133076310Y-101166310D01*
X133120857Y-101099641D01*
X133133538Y-101035893D01*
X133135901Y-101024012D01*
X133135901Y-101024011D01*
X133136500Y-101021000D01*
X133136500Y-100553809D01*
X133154806Y-100509615D01*
X133199000Y-100491309D01*
X133233723Y-100501842D01*
X133267339Y-100524304D01*
X133267341Y-100524305D01*
X133272458Y-100527724D01*
X133375400Y-100548200D01*
X133394499Y-100544401D01*
X133406692Y-100543200D01*
X133579799Y-100543200D01*
X133623993Y-100561506D01*
X133641098Y-100593507D01*
X133650852Y-100642543D01*
X133654271Y-100647660D01*
X133654272Y-100647662D01*
X133664007Y-100662231D01*
X133711657Y-100733543D01*
X133716774Y-100736962D01*
X133797538Y-100790928D01*
X133797540Y-100790929D01*
X133802657Y-100794348D01*
X133823425Y-100798479D01*
X133881850Y-100810101D01*
X133881853Y-100810101D01*
X133884863Y-100810700D01*
X134085137Y-100810700D01*
X134088147Y-100810101D01*
X134088150Y-100810101D01*
X134146575Y-100798479D01*
X134167343Y-100794348D01*
X134172460Y-100790929D01*
X134172462Y-100790928D01*
X134253226Y-100736962D01*
X134258343Y-100733543D01*
X134305993Y-100662231D01*
X134315728Y-100647662D01*
X134315729Y-100647660D01*
X134319148Y-100642543D01*
X134330949Y-100583217D01*
X134347023Y-100552273D01*
X134357667Y-100541115D01*
X134418206Y-100419957D01*
X134440444Y-100286355D01*
X134440500Y-100279200D01*
X134436711Y-100253994D01*
X134429657Y-100207077D01*
X134420364Y-100145265D01*
X134383864Y-100069255D01*
X134363757Y-100027381D01*
X134363756Y-100027379D01*
X134361735Y-100023171D01*
X134281917Y-99936824D01*
X134272969Y-99927144D01*
X134272968Y-99927143D01*
X134269798Y-99923714D01*
X134261001Y-99918604D01*
X134236139Y-99904163D01*
X134580900Y-99904163D01*
X134580900Y-100079437D01*
X134596300Y-100156859D01*
X134624299Y-100198763D01*
X134629854Y-100207077D01*
X134639186Y-100253994D01*
X134629854Y-100276523D01*
X134596300Y-100326741D01*
X134580900Y-100404163D01*
X134580900Y-100579437D01*
X134581499Y-100582447D01*
X134581499Y-100582450D01*
X134589561Y-100622977D01*
X134596300Y-100656859D01*
X134654395Y-100743805D01*
X134741341Y-100801900D01*
X134775223Y-100808639D01*
X134815750Y-100816701D01*
X134815753Y-100816701D01*
X134818763Y-100817300D01*
X135369037Y-100817300D01*
X135372047Y-100816701D01*
X135372050Y-100816701D01*
X135412577Y-100808639D01*
X135446459Y-100801900D01*
X135533405Y-100743805D01*
X135591500Y-100656859D01*
X135598239Y-100622977D01*
X135606301Y-100582450D01*
X135606301Y-100582447D01*
X135606900Y-100579437D01*
X135606900Y-100404163D01*
X135591500Y-100326741D01*
X135557946Y-100276523D01*
X135548614Y-100229606D01*
X135557946Y-100207077D01*
X135563501Y-100198763D01*
X135591500Y-100156859D01*
X135606900Y-100079437D01*
X135606900Y-99904163D01*
X135602798Y-99883538D01*
X135595930Y-99849012D01*
X135591500Y-99826741D01*
X135533405Y-99739795D01*
X135446459Y-99681700D01*
X135412577Y-99674961D01*
X135372050Y-99666899D01*
X135372047Y-99666899D01*
X135369037Y-99666300D01*
X134818763Y-99666300D01*
X134815753Y-99666899D01*
X134815750Y-99666899D01*
X134775223Y-99674961D01*
X134741341Y-99681700D01*
X134654395Y-99739795D01*
X134596300Y-99826741D01*
X134591870Y-99849012D01*
X134585003Y-99883538D01*
X134580900Y-99904163D01*
X134236139Y-99904163D01*
X134197729Y-99881853D01*
X134152681Y-99855687D01*
X134123888Y-99849013D01*
X134025286Y-99826158D01*
X134025285Y-99826158D01*
X134020738Y-99825104D01*
X133885636Y-99834670D01*
X133881278Y-99836356D01*
X133772975Y-99878255D01*
X133759319Y-99883538D01*
X133755652Y-99886429D01*
X133755650Y-99886430D01*
X133708197Y-99923839D01*
X133662158Y-99936824D01*
X133620422Y-99913450D01*
X133607437Y-99867411D01*
X133608205Y-99862563D01*
X133609034Y-99858399D01*
X133611500Y-99846000D01*
X133611500Y-99646000D01*
X133608219Y-99629504D01*
X133599007Y-99583193D01*
X133599007Y-99558807D01*
X133610901Y-99499013D01*
X133610901Y-99499010D01*
X133611500Y-99496000D01*
X133611500Y-99296000D01*
X133610691Y-99291931D01*
X133599007Y-99233193D01*
X133599007Y-99208807D01*
X133610901Y-99149013D01*
X133610901Y-99149010D01*
X133611500Y-99146000D01*
X133611500Y-98946000D01*
X133603178Y-98904163D01*
X133599007Y-98883193D01*
X133599007Y-98858807D01*
X133610901Y-98799013D01*
X133610901Y-98799010D01*
X133611500Y-98796000D01*
X133611500Y-98736000D01*
X133629806Y-98691806D01*
X133674000Y-98673500D01*
X133793563Y-98673500D01*
X133799011Y-98673738D01*
X133838979Y-98677235D01*
X133878297Y-98666700D01*
X133883620Y-98665519D01*
X133918335Y-98659398D01*
X133918336Y-98659398D01*
X133923722Y-98658448D01*
X133928461Y-98655712D01*
X133928463Y-98655711D01*
X133929265Y-98655248D01*
X133944333Y-98649006D01*
X133945241Y-98648763D01*
X133945243Y-98648762D01*
X133950521Y-98647348D01*
X133983871Y-98623997D01*
X133988467Y-98621068D01*
X134018992Y-98603444D01*
X134018993Y-98603443D01*
X134023727Y-98600710D01*
X134049519Y-98569972D01*
X134053203Y-98565952D01*
X134138952Y-98480203D01*
X134142972Y-98476519D01*
X134169522Y-98454241D01*
X134173710Y-98450727D01*
X134194068Y-98415467D01*
X134196997Y-98410870D01*
X134201693Y-98404163D01*
X134580900Y-98404163D01*
X134580900Y-98579437D01*
X134581499Y-98582447D01*
X134581499Y-98582450D01*
X134584298Y-98596522D01*
X134596300Y-98656859D01*
X134609596Y-98676758D01*
X134629854Y-98707077D01*
X134639186Y-98753994D01*
X134629854Y-98776523D01*
X134596300Y-98826741D01*
X134580900Y-98904163D01*
X134580900Y-99079437D01*
X134596300Y-99156859D01*
X134654395Y-99243805D01*
X134741341Y-99301900D01*
X134775223Y-99308639D01*
X134815750Y-99316701D01*
X134815753Y-99316701D01*
X134818763Y-99317300D01*
X135369037Y-99317300D01*
X135372047Y-99316701D01*
X135372050Y-99316701D01*
X135412577Y-99308639D01*
X135446459Y-99301900D01*
X135533405Y-99243805D01*
X135591500Y-99156859D01*
X135606900Y-99079437D01*
X135606900Y-98904163D01*
X135591500Y-98826741D01*
X135557946Y-98776523D01*
X135548614Y-98729606D01*
X135557946Y-98707077D01*
X135578204Y-98676758D01*
X135591500Y-98656859D01*
X135603502Y-98596522D01*
X135606301Y-98582450D01*
X135606301Y-98582447D01*
X135606900Y-98579437D01*
X135606900Y-98404163D01*
X138255900Y-98404163D01*
X138255900Y-98579437D01*
X138256499Y-98582447D01*
X138256499Y-98582450D01*
X138259298Y-98596522D01*
X138271300Y-98656859D01*
X138284596Y-98676758D01*
X138304854Y-98707077D01*
X138314186Y-98753994D01*
X138304854Y-98776523D01*
X138271300Y-98826741D01*
X138255900Y-98904163D01*
X138255900Y-99079437D01*
X138271300Y-99156859D01*
X138329395Y-99243805D01*
X138416341Y-99301900D01*
X138450223Y-99308639D01*
X138490750Y-99316701D01*
X138490753Y-99316701D01*
X138493763Y-99317300D01*
X139044037Y-99317300D01*
X139047047Y-99316701D01*
X139047050Y-99316701D01*
X139087577Y-99308639D01*
X139121459Y-99301900D01*
X139208405Y-99243805D01*
X139266500Y-99156859D01*
X139281900Y-99079437D01*
X139281900Y-98904163D01*
X139266500Y-98826741D01*
X139232946Y-98776523D01*
X139223614Y-98729606D01*
X139232946Y-98707077D01*
X139253204Y-98676758D01*
X139266500Y-98656859D01*
X139278502Y-98596522D01*
X139281301Y-98582450D01*
X139281301Y-98582447D01*
X139281900Y-98579437D01*
X139281900Y-98404163D01*
X139281168Y-98400480D01*
X139267701Y-98332780D01*
X139266500Y-98326741D01*
X139208405Y-98239795D01*
X139121459Y-98181700D01*
X139087577Y-98174961D01*
X139047050Y-98166899D01*
X139047047Y-98166899D01*
X139044037Y-98166300D01*
X138493763Y-98166300D01*
X138490753Y-98166899D01*
X138490750Y-98166899D01*
X138450223Y-98174961D01*
X138416341Y-98181700D01*
X138329395Y-98239795D01*
X138271300Y-98326741D01*
X138270099Y-98332780D01*
X138256633Y-98400480D01*
X138255900Y-98404163D01*
X135606900Y-98404163D01*
X135606168Y-98400480D01*
X135592701Y-98332780D01*
X135591500Y-98326741D01*
X135533405Y-98239795D01*
X135446459Y-98181700D01*
X135412577Y-98174961D01*
X135372050Y-98166899D01*
X135372047Y-98166899D01*
X135369037Y-98166300D01*
X135139071Y-98166300D01*
X135128219Y-98165351D01*
X135124937Y-98164772D01*
X135124931Y-98164771D01*
X135122257Y-98164300D01*
X134950637Y-98164300D01*
X134945189Y-98164062D01*
X134943889Y-98163948D01*
X134905221Y-98160565D01*
X134892170Y-98164062D01*
X134891767Y-98164170D01*
X134875591Y-98166300D01*
X134818763Y-98166300D01*
X134815753Y-98166899D01*
X134815750Y-98166899D01*
X134775223Y-98174961D01*
X134741341Y-98181700D01*
X134654395Y-98239795D01*
X134596300Y-98326741D01*
X134595099Y-98332780D01*
X134581633Y-98400480D01*
X134580900Y-98404163D01*
X134201693Y-98404163D01*
X134206219Y-98397700D01*
X134220348Y-98377521D01*
X134222006Y-98371334D01*
X134228249Y-98356263D01*
X134228714Y-98355457D01*
X134231448Y-98350722D01*
X134238515Y-98310642D01*
X134239694Y-98305321D01*
X134248821Y-98271258D01*
X134248821Y-98271257D01*
X134250235Y-98265980D01*
X134250044Y-98263792D01*
X134261819Y-98233311D01*
X134299929Y-98183193D01*
X134321925Y-98154267D01*
X134323602Y-98148479D01*
X134348273Y-98063281D01*
X134348273Y-98063279D01*
X134349500Y-98059043D01*
X134349500Y-97930538D01*
X134356091Y-97902602D01*
X134365316Y-97884139D01*
X134367406Y-97879957D01*
X134389644Y-97746355D01*
X134389700Y-97739200D01*
X134369564Y-97605265D01*
X134367542Y-97601054D01*
X134367541Y-97601051D01*
X134351296Y-97567221D01*
X135600165Y-97567221D01*
X135602028Y-97588515D01*
X135603662Y-97607189D01*
X135603900Y-97612637D01*
X135603900Y-97682657D01*
X135604371Y-97685331D01*
X135604372Y-97685337D01*
X135604951Y-97688619D01*
X135605900Y-97699471D01*
X135605900Y-97929437D01*
X135621300Y-98006859D01*
X135679395Y-98093805D01*
X135766341Y-98151900D01*
X135800223Y-98158639D01*
X135840750Y-98166701D01*
X135840753Y-98166701D01*
X135843763Y-98167300D01*
X136019037Y-98167300D01*
X136022047Y-98166701D01*
X136022050Y-98166701D01*
X136062577Y-98158639D01*
X136096459Y-98151900D01*
X136146677Y-98118346D01*
X136193594Y-98109014D01*
X136216124Y-98118346D01*
X136266341Y-98151900D01*
X136300223Y-98158639D01*
X136340750Y-98166701D01*
X136340753Y-98166701D01*
X136343763Y-98167300D01*
X136519037Y-98167300D01*
X136522047Y-98166701D01*
X136522050Y-98166701D01*
X136562577Y-98158639D01*
X136596459Y-98151900D01*
X136646677Y-98118346D01*
X136693594Y-98109014D01*
X136716124Y-98118346D01*
X136766341Y-98151900D01*
X136800223Y-98158639D01*
X136840750Y-98166701D01*
X136840753Y-98166701D01*
X136843763Y-98167300D01*
X137019037Y-98167300D01*
X137022047Y-98166701D01*
X137022050Y-98166701D01*
X137062577Y-98158639D01*
X137096459Y-98151900D01*
X137128587Y-98130433D01*
X137137494Y-98124482D01*
X137184411Y-98115150D01*
X137212391Y-98128571D01*
X137257833Y-98166701D01*
X137273150Y-98179553D01*
X137381662Y-98219049D01*
X137497138Y-98219049D01*
X137605650Y-98179553D01*
X137659317Y-98134522D01*
X137704937Y-98120138D01*
X137734213Y-98130433D01*
X137766341Y-98151900D01*
X137800223Y-98158639D01*
X137840750Y-98166701D01*
X137840753Y-98166701D01*
X137843763Y-98167300D01*
X138019037Y-98167300D01*
X138022047Y-98166701D01*
X138022050Y-98166701D01*
X138062577Y-98158639D01*
X138096459Y-98151900D01*
X138183405Y-98093805D01*
X138241500Y-98006859D01*
X138256900Y-97929437D01*
X138256900Y-97379163D01*
X138241500Y-97301741D01*
X138183405Y-97214795D01*
X138096459Y-97156700D01*
X138062577Y-97149961D01*
X138022050Y-97141899D01*
X138022047Y-97141899D01*
X138019037Y-97141300D01*
X137843763Y-97141300D01*
X137840753Y-97141899D01*
X137840750Y-97141899D01*
X137800223Y-97149961D01*
X137766341Y-97156700D01*
X137724437Y-97184699D01*
X137716123Y-97190254D01*
X137669206Y-97199586D01*
X137646677Y-97190254D01*
X137638363Y-97184699D01*
X137596459Y-97156700D01*
X137562577Y-97149961D01*
X137522050Y-97141899D01*
X137522047Y-97141899D01*
X137519037Y-97141300D01*
X137343763Y-97141300D01*
X137340753Y-97141899D01*
X137340750Y-97141899D01*
X137300223Y-97149961D01*
X137266341Y-97156700D01*
X137224437Y-97184699D01*
X137216123Y-97190254D01*
X137169206Y-97199586D01*
X137146677Y-97190254D01*
X137138363Y-97184699D01*
X137096459Y-97156700D01*
X137062577Y-97149961D01*
X137022050Y-97141899D01*
X137022047Y-97141899D01*
X137019037Y-97141300D01*
X136843763Y-97141300D01*
X136840753Y-97141899D01*
X136840750Y-97141899D01*
X136800223Y-97149961D01*
X136766341Y-97156700D01*
X136724437Y-97184699D01*
X136716123Y-97190254D01*
X136669206Y-97199586D01*
X136646677Y-97190254D01*
X136638363Y-97184699D01*
X136596459Y-97156700D01*
X136562577Y-97149961D01*
X136522050Y-97141899D01*
X136522047Y-97141899D01*
X136519037Y-97141300D01*
X136343763Y-97141300D01*
X136340753Y-97141899D01*
X136340750Y-97141899D01*
X136300223Y-97149961D01*
X136266341Y-97156700D01*
X136224437Y-97184699D01*
X136216123Y-97190254D01*
X136169206Y-97199586D01*
X136146677Y-97190254D01*
X136138363Y-97184699D01*
X136096459Y-97156700D01*
X136062577Y-97149961D01*
X136022050Y-97141899D01*
X136022047Y-97141899D01*
X136019037Y-97141300D01*
X135843763Y-97141300D01*
X135840753Y-97141899D01*
X135840750Y-97141899D01*
X135800223Y-97149961D01*
X135766341Y-97156700D01*
X135679395Y-97214795D01*
X135621300Y-97301741D01*
X135605900Y-97379163D01*
X135605900Y-97537591D01*
X135603770Y-97553766D01*
X135600165Y-97567221D01*
X134351296Y-97567221D01*
X134330054Y-97522987D01*
X134326362Y-97478547D01*
X134348272Y-97402888D01*
X134348273Y-97402879D01*
X134349500Y-97398643D01*
X134349500Y-97156800D01*
X134367806Y-97112606D01*
X134412000Y-97094300D01*
X134542337Y-97094300D01*
X134545347Y-97093701D01*
X134545350Y-97093701D01*
X134587209Y-97085374D01*
X134624543Y-97077948D01*
X134629660Y-97074529D01*
X134629662Y-97074528D01*
X134710426Y-97020562D01*
X134715543Y-97017143D01*
X134729744Y-96995891D01*
X134772928Y-96931262D01*
X134772929Y-96931260D01*
X134776348Y-96926143D01*
X134792700Y-96843937D01*
X134792700Y-96543663D01*
X134789242Y-96526275D01*
X134776348Y-96461457D01*
X134777641Y-96461200D01*
X134777641Y-96426400D01*
X134776348Y-96426143D01*
X134792101Y-96346950D01*
X134792101Y-96346947D01*
X134792700Y-96343937D01*
X134792700Y-96043663D01*
X134792045Y-96040366D01*
X134779777Y-95978697D01*
X134776348Y-95961457D01*
X134763907Y-95942837D01*
X134718962Y-95875574D01*
X134715543Y-95870457D01*
X134624543Y-95809652D01*
X134625604Y-95808064D01*
X134597458Y-95779921D01*
X134592700Y-95756001D01*
X134592700Y-95632463D01*
X134588072Y-95609194D01*
X134577549Y-95556296D01*
X134576348Y-95550257D01*
X134566793Y-95535956D01*
X134518962Y-95464374D01*
X134515543Y-95459257D01*
X134472217Y-95430307D01*
X134429662Y-95401872D01*
X134429660Y-95401871D01*
X134424543Y-95398452D01*
X134414408Y-95396436D01*
X134374634Y-95369861D01*
X134364100Y-95335137D01*
X134364100Y-95226063D01*
X134362883Y-95219941D01*
X134348949Y-95149896D01*
X134347748Y-95143857D01*
X134338451Y-95129942D01*
X134290362Y-95057974D01*
X134286943Y-95052857D01*
X134263568Y-95037238D01*
X134201062Y-94995472D01*
X134201060Y-94995471D01*
X134195943Y-94992052D01*
X134142081Y-94981338D01*
X134116750Y-94976299D01*
X134116747Y-94976299D01*
X134113737Y-94975700D01*
X133826758Y-94975700D01*
X133795369Y-94967246D01*
X133771681Y-94953487D01*
X133767133Y-94952433D01*
X133767131Y-94952432D01*
X133644286Y-94923958D01*
X133644285Y-94923958D01*
X133639738Y-94922904D01*
X133504636Y-94932470D01*
X133484506Y-94940258D01*
X133399510Y-94973140D01*
X133378319Y-94981338D01*
X133340410Y-95011223D01*
X133280949Y-95058099D01*
X133271955Y-95065189D01*
X133269299Y-95069032D01*
X133269297Y-95069034D01*
X133234805Y-95118940D01*
X133194948Y-95176608D01*
X133193540Y-95181061D01*
X133193235Y-95181683D01*
X133157352Y-95213316D01*
X133109611Y-95210311D01*
X133085142Y-95188908D01*
X133079729Y-95180807D01*
X133076310Y-95175690D01*
X133030089Y-95144806D01*
X133014760Y-95134563D01*
X133014758Y-95134562D01*
X133009641Y-95131143D01*
X132948294Y-95118940D01*
X132934012Y-95116099D01*
X132934011Y-95116099D01*
X132931000Y-95115500D01*
X132850500Y-95115500D01*
X132806306Y-95097194D01*
X132788000Y-95053000D01*
X132788000Y-94569158D01*
X132806306Y-94524964D01*
X132850500Y-94506658D01*
X132867886Y-94509125D01*
X132882644Y-94513399D01*
X133167846Y-94513399D01*
X133170673Y-94512872D01*
X133170678Y-94512872D01*
X133229947Y-94501833D01*
X133247918Y-94498486D01*
X133251324Y-94496387D01*
X133298301Y-94497536D01*
X133301494Y-94499422D01*
X133301586Y-94499240D01*
X133306740Y-94501833D01*
X133311333Y-94505325D01*
X133316872Y-94506929D01*
X133316874Y-94506930D01*
X133402319Y-94531673D01*
X133402321Y-94531673D01*
X133406557Y-94532900D01*
X133735446Y-94532900D01*
X133818579Y-94517417D01*
X133823492Y-94514388D01*
X133823496Y-94514387D01*
X133864184Y-94489307D01*
X133911410Y-94481700D01*
X133934809Y-94492760D01*
X133946740Y-94501833D01*
X133946742Y-94501834D01*
X133951333Y-94505325D01*
X133956872Y-94506929D01*
X133956874Y-94506930D01*
X134042319Y-94531673D01*
X134042321Y-94531673D01*
X134046557Y-94532900D01*
X134375446Y-94532900D01*
X134420865Y-94524441D01*
X134452905Y-94518474D01*
X134452906Y-94518474D01*
X134458579Y-94517417D01*
X134462780Y-94514828D01*
X134510200Y-94515986D01*
X134522705Y-94523373D01*
X134535133Y-94532824D01*
X134540672Y-94534428D01*
X134626119Y-94559172D01*
X134626121Y-94559172D01*
X134630357Y-94560399D01*
X134899246Y-94560399D01*
X134902073Y-94559872D01*
X134902078Y-94559872D01*
X134925678Y-94555476D01*
X134972477Y-94565380D01*
X134989088Y-94582194D01*
X135014690Y-94620510D01*
X135019807Y-94623929D01*
X135076240Y-94661637D01*
X135076242Y-94661638D01*
X135081359Y-94665057D01*
X135153893Y-94679485D01*
X135193667Y-94706061D01*
X135204200Y-94740784D01*
X135204200Y-96951800D01*
X135951040Y-96949886D01*
X139135169Y-96941725D01*
X139147601Y-96941693D01*
X139147544Y-96920104D01*
X139135702Y-92474667D01*
X139153890Y-92430425D01*
X139198202Y-92412001D01*
X139382853Y-92412001D01*
X139427047Y-92430307D01*
G37*
%TD.AperFunction*%
%TA.AperFunction,Conductor*%
G36*
X128877987Y-96335901D02*
G01*
X128877990Y-96335901D01*
X128881000Y-96336500D01*
X129081000Y-96336500D01*
X129084010Y-96335901D01*
X129084013Y-96335901D01*
X129143807Y-96324007D01*
X129168193Y-96324007D01*
X129227987Y-96335901D01*
X129227990Y-96335901D01*
X129231000Y-96336500D01*
X129431000Y-96336500D01*
X129434010Y-96335901D01*
X129434013Y-96335901D01*
X129493807Y-96324007D01*
X129518193Y-96324007D01*
X129577987Y-96335901D01*
X129577990Y-96335901D01*
X129581000Y-96336500D01*
X129781000Y-96336500D01*
X129784010Y-96335901D01*
X129784013Y-96335901D01*
X129843807Y-96324007D01*
X129868193Y-96324007D01*
X129927987Y-96335901D01*
X129927990Y-96335901D01*
X129931000Y-96336500D01*
X130131000Y-96336500D01*
X130134010Y-96335901D01*
X130134013Y-96335901D01*
X130193807Y-96324007D01*
X130218193Y-96324007D01*
X130277987Y-96335901D01*
X130277990Y-96335901D01*
X130281000Y-96336500D01*
X130481000Y-96336500D01*
X130484010Y-96335901D01*
X130484013Y-96335901D01*
X130543807Y-96324007D01*
X130568193Y-96324007D01*
X130627987Y-96335901D01*
X130627990Y-96335901D01*
X130631000Y-96336500D01*
X130659336Y-96336500D01*
X130670188Y-96337449D01*
X130670924Y-96337579D01*
X130676062Y-96339449D01*
X130791538Y-96339449D01*
X130796676Y-96337579D01*
X130797412Y-96337449D01*
X130808264Y-96336500D01*
X130831000Y-96336500D01*
X130834010Y-96335901D01*
X130834013Y-96335901D01*
X130893807Y-96324007D01*
X130918193Y-96324007D01*
X130977987Y-96335901D01*
X130977990Y-96335901D01*
X130981000Y-96336500D01*
X131181000Y-96336500D01*
X131184010Y-96335901D01*
X131184013Y-96335901D01*
X131243807Y-96324007D01*
X131268193Y-96324007D01*
X131327987Y-96335901D01*
X131327990Y-96335901D01*
X131331000Y-96336500D01*
X131370536Y-96336500D01*
X131381388Y-96337449D01*
X131382124Y-96337579D01*
X131387262Y-96339449D01*
X131502738Y-96339449D01*
X131507876Y-96337579D01*
X131508612Y-96337449D01*
X131519464Y-96336500D01*
X131531000Y-96336500D01*
X131534010Y-96335901D01*
X131534013Y-96335901D01*
X131593807Y-96324007D01*
X131618193Y-96324007D01*
X131677987Y-96335901D01*
X131677990Y-96335901D01*
X131681000Y-96336500D01*
X131881000Y-96336500D01*
X131884010Y-96335901D01*
X131884013Y-96335901D01*
X131943807Y-96324007D01*
X131968193Y-96324007D01*
X132027987Y-96335901D01*
X132027990Y-96335901D01*
X132031000Y-96336500D01*
X132231000Y-96336500D01*
X132234010Y-96335901D01*
X132234013Y-96335901D01*
X132293807Y-96324007D01*
X132318193Y-96324007D01*
X132361680Y-96332657D01*
X132401454Y-96359233D01*
X132410786Y-96406149D01*
X132408419Y-96413953D01*
X132406143Y-96417359D01*
X132404942Y-96423395D01*
X132404942Y-96423396D01*
X132402357Y-96436393D01*
X132390500Y-96496000D01*
X132390500Y-96696000D01*
X132391099Y-96699010D01*
X132391099Y-96699013D01*
X132402993Y-96758807D01*
X132402993Y-96783193D01*
X132391529Y-96840826D01*
X132390500Y-96846000D01*
X132390500Y-97046000D01*
X132391099Y-97049010D01*
X132391099Y-97049013D01*
X132402993Y-97108807D01*
X132402993Y-97133193D01*
X132397637Y-97160121D01*
X132390500Y-97196000D01*
X132390500Y-97396000D01*
X132391099Y-97399010D01*
X132391099Y-97399013D01*
X132402993Y-97458807D01*
X132402993Y-97483193D01*
X132391099Y-97542987D01*
X132390500Y-97546000D01*
X132390500Y-97586758D01*
X132389551Y-97597611D01*
X132382500Y-97637600D01*
X132383449Y-97642982D01*
X132389551Y-97677589D01*
X132390500Y-97688442D01*
X132390500Y-97746000D01*
X132391099Y-97749010D01*
X132391099Y-97749013D01*
X132402993Y-97808807D01*
X132402993Y-97833193D01*
X132394856Y-97874101D01*
X132390500Y-97896000D01*
X132390500Y-98096000D01*
X132391099Y-98099010D01*
X132391099Y-98099013D01*
X132402993Y-98158807D01*
X132402993Y-98183193D01*
X132396741Y-98214625D01*
X132390500Y-98246000D01*
X132390500Y-98446000D01*
X132391099Y-98449010D01*
X132391099Y-98449013D01*
X132402993Y-98508807D01*
X132402993Y-98533193D01*
X132393195Y-98582450D01*
X132390500Y-98596000D01*
X132390500Y-98796000D01*
X132391099Y-98799010D01*
X132391099Y-98799013D01*
X132402993Y-98858807D01*
X132402993Y-98883193D01*
X132398822Y-98904163D01*
X132390500Y-98946000D01*
X132390500Y-98983758D01*
X132389551Y-98994611D01*
X132382500Y-99034600D01*
X132383449Y-99039982D01*
X132389551Y-99074589D01*
X132390500Y-99085442D01*
X132390500Y-99146000D01*
X132391099Y-99149010D01*
X132391099Y-99149013D01*
X132402993Y-99208807D01*
X132402993Y-99233193D01*
X132391309Y-99291931D01*
X132390500Y-99296000D01*
X132390500Y-99339358D01*
X132389551Y-99350211D01*
X132382500Y-99390200D01*
X132383449Y-99395582D01*
X132389551Y-99430189D01*
X132390500Y-99441042D01*
X132390500Y-99496000D01*
X132391099Y-99499010D01*
X132391099Y-99499013D01*
X132402993Y-99558807D01*
X132402993Y-99583193D01*
X132393781Y-99629504D01*
X132390500Y-99646000D01*
X132390500Y-99846000D01*
X132391099Y-99849009D01*
X132391099Y-99849013D01*
X132392966Y-99858399D01*
X132383634Y-99905316D01*
X132375861Y-99914786D01*
X132316452Y-99974195D01*
X132306986Y-99981965D01*
X132290789Y-99992788D01*
X132290293Y-99992046D01*
X132251110Y-100008276D01*
X132238921Y-100007076D01*
X132231000Y-100005500D01*
X132031000Y-100005500D01*
X132027990Y-100006099D01*
X132027987Y-100006099D01*
X131968193Y-100017993D01*
X131943807Y-100017993D01*
X131884013Y-100006099D01*
X131884010Y-100006099D01*
X131881000Y-100005500D01*
X131681000Y-100005500D01*
X131677990Y-100006099D01*
X131677987Y-100006099D01*
X131618193Y-100017993D01*
X131593807Y-100017993D01*
X131534013Y-100006099D01*
X131534010Y-100006099D01*
X131531000Y-100005500D01*
X131331000Y-100005500D01*
X131327990Y-100006099D01*
X131327987Y-100006099D01*
X131268193Y-100017993D01*
X131243807Y-100017993D01*
X131184013Y-100006099D01*
X131184010Y-100006099D01*
X131181000Y-100005500D01*
X130981000Y-100005500D01*
X130977990Y-100006099D01*
X130977987Y-100006099D01*
X130918193Y-100017993D01*
X130893807Y-100017993D01*
X130834013Y-100006099D01*
X130834010Y-100006099D01*
X130831000Y-100005500D01*
X130631000Y-100005500D01*
X130627990Y-100006099D01*
X130627987Y-100006099D01*
X130568193Y-100017993D01*
X130543807Y-100017993D01*
X130484013Y-100006099D01*
X130484010Y-100006099D01*
X130481000Y-100005500D01*
X130281000Y-100005500D01*
X130277990Y-100006099D01*
X130277987Y-100006099D01*
X130218193Y-100017993D01*
X130193807Y-100017993D01*
X130134013Y-100006099D01*
X130134010Y-100006099D01*
X130131000Y-100005500D01*
X129931000Y-100005500D01*
X129927990Y-100006099D01*
X129927987Y-100006099D01*
X129868193Y-100017993D01*
X129843807Y-100017993D01*
X129784013Y-100006099D01*
X129784010Y-100006099D01*
X129781000Y-100005500D01*
X129581000Y-100005500D01*
X129577990Y-100006099D01*
X129577987Y-100006099D01*
X129518193Y-100017993D01*
X129493807Y-100017993D01*
X129434013Y-100006099D01*
X129434010Y-100006099D01*
X129431000Y-100005500D01*
X129231000Y-100005500D01*
X129227990Y-100006099D01*
X129227987Y-100006099D01*
X129168193Y-100017993D01*
X129143807Y-100017993D01*
X129084013Y-100006099D01*
X129084010Y-100006099D01*
X129081000Y-100005500D01*
X128881000Y-100005500D01*
X128877990Y-100006099D01*
X128877987Y-100006099D01*
X128818193Y-100017993D01*
X128793807Y-100017993D01*
X128750320Y-100009343D01*
X128710546Y-99982767D01*
X128701214Y-99935851D01*
X128703581Y-99928047D01*
X128705857Y-99924641D01*
X128709931Y-99904163D01*
X128720901Y-99849012D01*
X128720901Y-99849010D01*
X128721500Y-99846000D01*
X128721500Y-99646000D01*
X128718219Y-99629504D01*
X128709007Y-99583193D01*
X128709007Y-99558807D01*
X128720901Y-99499013D01*
X128720901Y-99499010D01*
X128721500Y-99496000D01*
X128721500Y-99296000D01*
X128720691Y-99291931D01*
X128709007Y-99233193D01*
X128709007Y-99208807D01*
X128720901Y-99149013D01*
X128720901Y-99149010D01*
X128721500Y-99146000D01*
X128721500Y-98946000D01*
X128713178Y-98904163D01*
X128709007Y-98883193D01*
X128709007Y-98858807D01*
X128720901Y-98799013D01*
X128720901Y-98799010D01*
X128721500Y-98796000D01*
X128721500Y-98596000D01*
X128718805Y-98582450D01*
X128709007Y-98533193D01*
X128709007Y-98508807D01*
X128720901Y-98449013D01*
X128720901Y-98449010D01*
X128721500Y-98446000D01*
X128721500Y-98246000D01*
X128715259Y-98214625D01*
X128709007Y-98183193D01*
X128709007Y-98158807D01*
X128720901Y-98099013D01*
X128720901Y-98099010D01*
X128721500Y-98096000D01*
X128721500Y-97896000D01*
X128717144Y-97874101D01*
X128709007Y-97833193D01*
X128709007Y-97808807D01*
X128720901Y-97749013D01*
X128720901Y-97749010D01*
X128721500Y-97746000D01*
X128721500Y-97546000D01*
X128720901Y-97542987D01*
X128709007Y-97483193D01*
X128709007Y-97458807D01*
X128720901Y-97399013D01*
X128720901Y-97399010D01*
X128721500Y-97396000D01*
X128721500Y-97196000D01*
X128714363Y-97160121D01*
X128709007Y-97133193D01*
X128709007Y-97108807D01*
X128720901Y-97049013D01*
X128720901Y-97049010D01*
X128721500Y-97046000D01*
X128721500Y-96846000D01*
X128720471Y-96840826D01*
X128709007Y-96783193D01*
X128709007Y-96758807D01*
X128720901Y-96699013D01*
X128720901Y-96699010D01*
X128721500Y-96696000D01*
X128721500Y-96496000D01*
X128709643Y-96436393D01*
X128707058Y-96423396D01*
X128707058Y-96423395D01*
X128705857Y-96417359D01*
X128704770Y-96415732D01*
X128704771Y-96370037D01*
X128738597Y-96336213D01*
X128750320Y-96332657D01*
X128793807Y-96324007D01*
X128818193Y-96324007D01*
X128877987Y-96335901D01*
G37*
%TD.AperFunction*%
%TA.AperFunction,Conductor*%
G36*
X127482194Y-96840826D02*
G01*
X127500500Y-96885020D01*
X127500500Y-97046000D01*
X127501099Y-97049010D01*
X127501099Y-97049013D01*
X127512993Y-97108807D01*
X127512993Y-97133193D01*
X127507637Y-97160121D01*
X127500500Y-97196000D01*
X127500500Y-97396000D01*
X127501099Y-97399010D01*
X127501099Y-97399013D01*
X127512993Y-97458807D01*
X127512993Y-97483193D01*
X127500500Y-97545999D01*
X127498546Y-97545610D01*
X127478788Y-97582533D01*
X127439162Y-97596700D01*
X127320500Y-97596700D01*
X127276306Y-97578394D01*
X127258000Y-97534200D01*
X127258000Y-96885020D01*
X127276306Y-96840826D01*
X127320500Y-96822520D01*
X127438000Y-96822520D01*
X127482194Y-96840826D01*
G37*
%TD.AperFunction*%
%TA.AperFunction,Conductor*%
G36*
X128577194Y-93703506D02*
G01*
X128595500Y-93747700D01*
X128595500Y-94445800D01*
X128611143Y-94524441D01*
X128614562Y-94529558D01*
X128614563Y-94529560D01*
X128634817Y-94559872D01*
X128655690Y-94591110D01*
X128660807Y-94594529D01*
X128717240Y-94632237D01*
X128717242Y-94632238D01*
X128722359Y-94635657D01*
X128728397Y-94636858D01*
X128778406Y-94646806D01*
X128818179Y-94673383D01*
X128827511Y-94720299D01*
X128818179Y-94742828D01*
X128775994Y-94805962D01*
X128770852Y-94813657D01*
X128764398Y-94846105D01*
X128759604Y-94870206D01*
X128754500Y-94895863D01*
X128754500Y-95053000D01*
X128736194Y-95097194D01*
X128692000Y-95115500D01*
X128531000Y-95115500D01*
X128527990Y-95116099D01*
X128527987Y-95116099D01*
X128468193Y-95127993D01*
X128443807Y-95127993D01*
X128384013Y-95116099D01*
X128384010Y-95116099D01*
X128381000Y-95115500D01*
X128181000Y-95115500D01*
X128177989Y-95116099D01*
X128177988Y-95116099D01*
X128163706Y-95118940D01*
X128102359Y-95131143D01*
X128097242Y-95134562D01*
X128097240Y-95134563D01*
X128081911Y-95144806D01*
X128035690Y-95175690D01*
X128032271Y-95180807D01*
X127999980Y-95229134D01*
X127991143Y-95242359D01*
X127975500Y-95321000D01*
X127975500Y-96131000D01*
X127990141Y-96204604D01*
X127991143Y-96209641D01*
X127990141Y-96209840D01*
X127990140Y-96251918D01*
X127956315Y-96285743D01*
X127932398Y-96290500D01*
X127781415Y-96290500D01*
X127737221Y-96272194D01*
X127720116Y-96240193D01*
X127719144Y-96235303D01*
X127710068Y-96189677D01*
X127711361Y-96189420D01*
X127711361Y-96154620D01*
X127710068Y-96154363D01*
X127725821Y-96075170D01*
X127725821Y-96075167D01*
X127726420Y-96072157D01*
X127726420Y-95771883D01*
X127710068Y-95689677D01*
X127703657Y-95680081D01*
X127653757Y-95605402D01*
X127644425Y-95558486D01*
X127653757Y-95535956D01*
X127704108Y-95460602D01*
X127704109Y-95460600D01*
X127707528Y-95455483D01*
X127719111Y-95397251D01*
X127723281Y-95376290D01*
X127723281Y-95376287D01*
X127723880Y-95373277D01*
X127723880Y-95073003D01*
X127720916Y-95058099D01*
X127707528Y-94990797D01*
X127708821Y-94990540D01*
X127708821Y-94955740D01*
X127707528Y-94955483D01*
X127723281Y-94876290D01*
X127723281Y-94876287D01*
X127723880Y-94873277D01*
X127723880Y-94573003D01*
X127720069Y-94553841D01*
X127711919Y-94512872D01*
X127707528Y-94490797D01*
X127703740Y-94485127D01*
X127653666Y-94410188D01*
X127646723Y-94399797D01*
X127609976Y-94375243D01*
X127560842Y-94342412D01*
X127560840Y-94342411D01*
X127555723Y-94338992D01*
X127518389Y-94331566D01*
X127476530Y-94323239D01*
X127476527Y-94323239D01*
X127473517Y-94322640D01*
X127320500Y-94322640D01*
X127276306Y-94304334D01*
X127258000Y-94260140D01*
X127258000Y-93899000D01*
X127276306Y-93854806D01*
X127320500Y-93836500D01*
X127533246Y-93836500D01*
X127616379Y-93821017D01*
X127621290Y-93817990D01*
X127621292Y-93817989D01*
X127706699Y-93765344D01*
X127706700Y-93765343D01*
X127711611Y-93762316D01*
X127716349Y-93756085D01*
X127751492Y-93709870D01*
X127792813Y-93685771D01*
X127801242Y-93685200D01*
X128533000Y-93685200D01*
X128577194Y-93703506D01*
G37*
%TD.AperFunction*%
%TA.AperFunction,Conductor*%
G36*
X134993144Y-92412001D02*
G01*
X135141700Y-92412001D01*
X135185894Y-92430307D01*
X135204200Y-92474501D01*
X135204200Y-93559616D01*
X135185894Y-93603810D01*
X135153894Y-93620915D01*
X135081359Y-93635343D01*
X135076242Y-93638762D01*
X135076240Y-93638763D01*
X135044616Y-93659894D01*
X135014690Y-93679890D01*
X135011270Y-93685008D01*
X135006918Y-93689360D01*
X135005228Y-93687670D01*
X134973161Y-93709100D01*
X134943579Y-93707836D01*
X134938595Y-93706393D01*
X134914443Y-93699399D01*
X134645554Y-93699399D01*
X134562421Y-93714882D01*
X134557507Y-93717911D01*
X134512309Y-93745771D01*
X134462128Y-93752600D01*
X134394888Y-93733128D01*
X134394879Y-93733127D01*
X134390643Y-93731900D01*
X134061754Y-93731900D01*
X133978621Y-93747383D01*
X133973708Y-93750412D01*
X133973704Y-93750413D01*
X133933016Y-93775493D01*
X133885790Y-93783100D01*
X133862391Y-93772040D01*
X133850460Y-93762967D01*
X133850458Y-93762966D01*
X133845867Y-93759475D01*
X133840328Y-93757871D01*
X133840326Y-93757870D01*
X133754881Y-93733127D01*
X133754879Y-93733127D01*
X133750643Y-93731900D01*
X133421754Y-93731900D01*
X133338621Y-93747383D01*
X133333707Y-93750412D01*
X133333704Y-93750413D01*
X133313334Y-93762969D01*
X133263155Y-93769798D01*
X133182354Y-93746399D01*
X132897152Y-93746399D01*
X132894325Y-93746926D01*
X132894320Y-93746926D01*
X132822754Y-93760255D01*
X132822753Y-93760255D01*
X132817080Y-93761312D01*
X132812166Y-93764341D01*
X132733481Y-93812843D01*
X132724498Y-93818380D01*
X132723760Y-93819351D01*
X132700014Y-93832052D01*
X132692014Y-93834059D01*
X132690569Y-93834576D01*
X132670036Y-93841922D01*
X132657740Y-93844452D01*
X132657756Y-93844529D01*
X132653435Y-93845419D01*
X132649032Y-93845693D01*
X132639945Y-93848949D01*
X132618852Y-93858925D01*
X132606873Y-93862645D01*
X132606897Y-93862721D01*
X132602682Y-93864031D01*
X132598329Y-93864735D01*
X132589604Y-93868866D01*
X132588285Y-93869656D01*
X132588273Y-93869663D01*
X132569594Y-93880859D01*
X132558034Y-93885737D01*
X132558065Y-93885811D01*
X132554003Y-93887526D01*
X132549736Y-93888654D01*
X132545953Y-93890924D01*
X132542760Y-93892839D01*
X132542754Y-93892843D01*
X132541459Y-93893620D01*
X132540240Y-93894524D01*
X132522709Y-93907525D01*
X132511677Y-93913516D01*
X132511714Y-93913584D01*
X132507834Y-93915692D01*
X132503702Y-93917232D01*
X132500162Y-93919861D01*
X132500159Y-93919862D01*
X132498495Y-93921098D01*
X132495952Y-93922986D01*
X132494822Y-93924011D01*
X132494815Y-93924016D01*
X132482728Y-93934972D01*
X132475518Y-93940357D01*
X132473225Y-93941342D01*
X132465766Y-93947469D01*
X132464677Y-93948558D01*
X132436121Y-93977115D01*
X132433899Y-93979232D01*
X132420723Y-93991173D01*
X132418985Y-93993457D01*
X132418845Y-93993610D01*
X132413478Y-93999757D01*
X132393932Y-94019304D01*
X132374816Y-94038420D01*
X132367882Y-94044149D01*
X132365641Y-94045245D01*
X132358491Y-94051730D01*
X132357474Y-94052852D01*
X132357461Y-94052865D01*
X132342814Y-94069026D01*
X132333161Y-94077054D01*
X132333212Y-94077115D01*
X132329825Y-94079933D01*
X132326066Y-94082254D01*
X132319587Y-94089409D01*
X132305687Y-94108151D01*
X132296875Y-94117079D01*
X132296932Y-94117135D01*
X132293836Y-94120274D01*
X132290327Y-94122948D01*
X132284580Y-94130704D01*
X132283797Y-94132011D01*
X132272585Y-94150716D01*
X132264689Y-94160466D01*
X132264752Y-94160517D01*
X132261978Y-94163943D01*
X132258747Y-94166950D01*
X132253788Y-94175231D01*
X132253140Y-94176601D01*
X132253132Y-94176616D01*
X132243809Y-94196329D01*
X132236902Y-94206813D01*
X132236968Y-94206857D01*
X132234543Y-94210540D01*
X132231621Y-94213850D01*
X132227498Y-94222579D01*
X132226991Y-94223997D01*
X132226984Y-94224013D01*
X132219639Y-94244544D01*
X132213796Y-94255649D01*
X132213868Y-94255687D01*
X132211816Y-94259588D01*
X132209236Y-94263164D01*
X132205987Y-94272254D01*
X132205620Y-94273721D01*
X132205618Y-94273726D01*
X132200316Y-94294894D01*
X132195589Y-94306520D01*
X132195663Y-94306550D01*
X132194004Y-94310635D01*
X132191783Y-94314452D01*
X132189442Y-94323817D01*
X132189218Y-94325330D01*
X132186018Y-94346898D01*
X132182453Y-94358936D01*
X132182529Y-94358959D01*
X132181278Y-94363186D01*
X132179445Y-94367197D01*
X132178032Y-94376746D01*
X132177958Y-94378254D01*
X132177957Y-94378264D01*
X132177156Y-94394582D01*
X132175867Y-94403480D01*
X132174942Y-94405799D01*
X132174000Y-94415406D01*
X132174000Y-94457333D01*
X132173925Y-94460397D01*
X132173053Y-94478158D01*
X132173440Y-94481005D01*
X132173448Y-94481195D01*
X132174000Y-94489356D01*
X132174000Y-95053000D01*
X132155694Y-95097194D01*
X132111500Y-95115500D01*
X132109388Y-95115500D01*
X132065194Y-95097194D01*
X132046888Y-95053000D01*
X132048089Y-95040807D01*
X132048799Y-95037238D01*
X132050000Y-95031200D01*
X132029524Y-94928258D01*
X132009931Y-94898934D01*
X131985451Y-94862298D01*
X131974631Y-94846105D01*
X131971212Y-94840988D01*
X131966095Y-94837569D01*
X131966093Y-94837567D01*
X131960449Y-94833796D01*
X131943204Y-94816551D01*
X131939432Y-94810906D01*
X131939431Y-94810905D01*
X131936012Y-94805788D01*
X131921379Y-94796010D01*
X131901423Y-94782676D01*
X131848742Y-94747476D01*
X131842706Y-94746275D01*
X131842705Y-94746275D01*
X131790843Y-94735959D01*
X131764767Y-94722021D01*
X131764342Y-94722657D01*
X131710479Y-94686666D01*
X131689701Y-94661346D01*
X131689524Y-94660458D01*
X131683405Y-94651300D01*
X131672075Y-94634343D01*
X131669210Y-94630055D01*
X131659878Y-94583139D01*
X131669211Y-94560609D01*
X131669704Y-94559872D01*
X131680748Y-94543343D01*
X131689999Y-94496836D01*
X131696501Y-94464150D01*
X131696501Y-94464147D01*
X131697100Y-94461137D01*
X131697100Y-94260863D01*
X131696071Y-94255687D01*
X131681949Y-94184696D01*
X131680748Y-94178657D01*
X131646006Y-94126662D01*
X131636674Y-94079747D01*
X131663249Y-94039973D01*
X131668290Y-94036939D01*
X131732256Y-94002425D01*
X131735760Y-93998634D01*
X131735763Y-93998632D01*
X131807434Y-93921098D01*
X131807435Y-93921097D01*
X131810940Y-93917305D01*
X131813027Y-93912583D01*
X131813029Y-93912581D01*
X131828739Y-93877045D01*
X131854652Y-93848190D01*
X131880190Y-93833445D01*
X131884927Y-93830710D01*
X131910719Y-93799972D01*
X131914392Y-93795963D01*
X131966183Y-93744172D01*
X132001948Y-93726438D01*
X132049720Y-93719936D01*
X132055437Y-93719158D01*
X132142269Y-93671323D01*
X132374829Y-93438763D01*
X132422665Y-93369031D01*
X132426077Y-93354657D01*
X132447164Y-93265797D01*
X132448496Y-93260184D01*
X132433410Y-93149336D01*
X132385575Y-93062504D01*
X132195442Y-92872371D01*
X132125710Y-92824535D01*
X132120097Y-92823203D01*
X132120095Y-92823202D01*
X132022476Y-92800036D01*
X132016863Y-92798704D01*
X131906015Y-92813790D01*
X131819183Y-92861625D01*
X131616931Y-93063877D01*
X131572737Y-93082183D01*
X131564908Y-93081691D01*
X131555480Y-93080500D01*
X131140860Y-93080500D01*
X131056557Y-93094532D01*
X131052012Y-93096984D01*
X131052010Y-93096985D01*
X130988280Y-93131372D01*
X130954544Y-93149575D01*
X130951034Y-93153372D01*
X130947538Y-93156084D01*
X130901398Y-93168707D01*
X130866805Y-93152595D01*
X130849898Y-93136966D01*
X130849897Y-93136965D01*
X130846105Y-93133460D01*
X130841385Y-93131373D01*
X130841383Y-93131372D01*
X130786179Y-93106967D01*
X130740088Y-93086590D01*
X130725147Y-93084703D01*
X130693838Y-93080747D01*
X130693832Y-93080747D01*
X130691880Y-93080500D01*
X130277260Y-93080500D01*
X130192957Y-93094532D01*
X130188412Y-93096984D01*
X130188410Y-93096985D01*
X130141951Y-93122053D01*
X130090944Y-93149575D01*
X130087440Y-93153366D01*
X130087437Y-93153368D01*
X130017007Y-93229560D01*
X130012260Y-93234695D01*
X129965390Y-93340712D01*
X129964820Y-93345225D01*
X129961813Y-93369031D01*
X129959300Y-93388920D01*
X129959300Y-93753540D01*
X129973332Y-93837843D01*
X129975784Y-93842388D01*
X129975785Y-93842390D01*
X129990501Y-93869663D01*
X130028375Y-93939856D01*
X130032166Y-93943360D01*
X130032168Y-93943363D01*
X130100962Y-94006955D01*
X130113495Y-94018540D01*
X130118218Y-94020628D01*
X130170043Y-94043540D01*
X130203061Y-94078153D01*
X130201934Y-94125975D01*
X130196738Y-94135426D01*
X130179973Y-94160517D01*
X130167852Y-94178657D01*
X130166651Y-94184696D01*
X130152530Y-94255687D01*
X130151500Y-94260863D01*
X130151500Y-94461137D01*
X130152099Y-94464147D01*
X130152099Y-94464150D01*
X130158601Y-94496836D01*
X130167852Y-94543343D01*
X130171271Y-94548460D01*
X130171272Y-94548462D01*
X130182731Y-94565611D01*
X130192063Y-94612527D01*
X130165487Y-94652301D01*
X130153204Y-94657390D01*
X130153579Y-94658296D01*
X130148115Y-94660559D01*
X130145555Y-94660559D01*
X130142968Y-94661631D01*
X130141868Y-94661850D01*
X130141611Y-94660559D01*
X130106800Y-94660559D01*
X130106543Y-94661852D01*
X130027350Y-94646099D01*
X130027347Y-94646099D01*
X130024337Y-94645500D01*
X129726897Y-94645500D01*
X129682703Y-94627194D01*
X129664397Y-94583000D01*
X129674929Y-94548278D01*
X129690857Y-94524441D01*
X129706500Y-94445800D01*
X129706500Y-93645800D01*
X129690857Y-93567159D01*
X129646310Y-93500490D01*
X129588954Y-93462166D01*
X129562379Y-93422392D01*
X129567769Y-93382263D01*
X129589371Y-93339031D01*
X129610556Y-93315001D01*
X129641192Y-93294530D01*
X129641193Y-93294529D01*
X129646310Y-93291110D01*
X129670794Y-93254468D01*
X129687437Y-93229560D01*
X129687438Y-93229558D01*
X129690857Y-93224441D01*
X129704454Y-93156084D01*
X129705901Y-93148812D01*
X129705901Y-93148811D01*
X129706500Y-93145800D01*
X129706500Y-92474500D01*
X129724806Y-92430306D01*
X129768999Y-92412000D01*
X129841566Y-92412000D01*
X134993144Y-92412001D01*
G37*
%TD.AperFunction*%
%TD*%
M02*
